G04 #@! TF.FileFunction,Copper,L1,Top,Signal*
%FSLAX46Y46*%
G04 Gerber Fmt 4.6, Leading zero omitted, Abs format (unit mm)*
G04 Created by KiCad (PCBNEW 4.0.2-stable) date 12.07.2016 15:23:50*
%MOMM*%
G01*
G04 APERTURE LIST*
%ADD10C,0.100000*%
%ADD11R,2.032000X2.032000*%
%ADD12O,2.032000X2.032000*%
%ADD13R,2.799080X1.397000*%
%ADD14R,2.799080X1.399540*%
%ADD15R,1.060000X0.650000*%
%ADD16R,0.300000X0.500000*%
%ADD17R,0.500000X0.300000*%
%ADD18R,0.900000X0.500000*%
%ADD19R,0.750000X0.800000*%
%ADD20C,0.600000*%
%ADD21C,0.250000*%
%ADD22C,0.254000*%
G04 APERTURE END LIST*
D10*
D11*
X144885000Y-114685000D03*
D12*
X142345000Y-114685000D03*
D13*
X161860000Y-117160000D03*
X158050000Y-117160000D03*
X161860000Y-114620000D03*
X158050000Y-114620000D03*
X161860000Y-112080000D03*
X158050000Y-109540000D03*
X161860000Y-109540000D03*
D14*
X158050000Y-112080000D03*
D15*
X152735000Y-111985000D03*
X152735000Y-111035000D03*
X152735000Y-110085000D03*
X150535000Y-110085000D03*
X150535000Y-111985000D03*
D13*
X127150000Y-110440000D03*
X127150000Y-112980000D03*
D14*
X127150000Y-115520000D03*
D16*
X137135000Y-109785000D03*
X136635000Y-109785000D03*
X136135000Y-109785000D03*
X135635000Y-109785000D03*
X135135000Y-109785000D03*
X134635000Y-109785000D03*
X134135000Y-109785000D03*
X133635000Y-109785000D03*
X133135000Y-109785000D03*
X132635000Y-109785000D03*
D17*
X131885000Y-110535000D03*
X131885000Y-111035000D03*
X131885000Y-111535000D03*
X131885000Y-112035000D03*
X131885000Y-112535000D03*
X131885000Y-113035000D03*
X131885000Y-113535000D03*
X131885000Y-114035000D03*
X131885000Y-114535000D03*
X131885000Y-115035000D03*
D16*
X132635000Y-115785000D03*
X133135000Y-115785000D03*
X133635000Y-115785000D03*
X134135000Y-115785000D03*
X134635000Y-115785000D03*
X135135000Y-115785000D03*
X135635000Y-115785000D03*
X136135000Y-115785000D03*
X136635000Y-115785000D03*
X137135000Y-115785000D03*
D17*
X137885000Y-115035000D03*
X137885000Y-114535000D03*
X137885000Y-114035000D03*
X137885000Y-113535000D03*
X137885000Y-113035000D03*
X137885000Y-112535000D03*
X137885000Y-112035000D03*
X137885000Y-111535000D03*
X137885000Y-111035000D03*
X137885000Y-110535000D03*
D18*
X152685000Y-114785000D03*
X152685000Y-116285000D03*
X145385000Y-111535000D03*
X145385000Y-110035000D03*
X142735000Y-111535000D03*
X142735000Y-110035000D03*
D19*
X148035000Y-109985000D03*
X148035000Y-111485000D03*
X148035000Y-116235000D03*
X148035000Y-114735000D03*
X150335000Y-116285000D03*
X150335000Y-114785000D03*
D11*
X144935000Y-102635000D03*
D12*
X142395000Y-102635000D03*
D13*
X161910000Y-105110000D03*
X158100000Y-105110000D03*
X161910000Y-102570000D03*
X158100000Y-102570000D03*
X161910000Y-100030000D03*
X158100000Y-97490000D03*
X161910000Y-97490000D03*
D14*
X158100000Y-100030000D03*
D15*
X152785000Y-99935000D03*
X152785000Y-98985000D03*
X152785000Y-98035000D03*
X150585000Y-98035000D03*
X150585000Y-99935000D03*
D13*
X127200000Y-98390000D03*
X127200000Y-100930000D03*
D14*
X127200000Y-103470000D03*
D16*
X137185000Y-97735000D03*
X136685000Y-97735000D03*
X136185000Y-97735000D03*
X135685000Y-97735000D03*
X135185000Y-97735000D03*
X134685000Y-97735000D03*
X134185000Y-97735000D03*
X133685000Y-97735000D03*
X133185000Y-97735000D03*
X132685000Y-97735000D03*
D17*
X131935000Y-98485000D03*
X131935000Y-98985000D03*
X131935000Y-99485000D03*
X131935000Y-99985000D03*
X131935000Y-100485000D03*
X131935000Y-100985000D03*
X131935000Y-101485000D03*
X131935000Y-101985000D03*
X131935000Y-102485000D03*
X131935000Y-102985000D03*
D16*
X132685000Y-103735000D03*
X133185000Y-103735000D03*
X133685000Y-103735000D03*
X134185000Y-103735000D03*
X134685000Y-103735000D03*
X135185000Y-103735000D03*
X135685000Y-103735000D03*
X136185000Y-103735000D03*
X136685000Y-103735000D03*
X137185000Y-103735000D03*
D17*
X137935000Y-102985000D03*
X137935000Y-102485000D03*
X137935000Y-101985000D03*
X137935000Y-101485000D03*
X137935000Y-100985000D03*
X137935000Y-100485000D03*
X137935000Y-99985000D03*
X137935000Y-99485000D03*
X137935000Y-98985000D03*
X137935000Y-98485000D03*
D18*
X152735000Y-102735000D03*
X152735000Y-104235000D03*
X145435000Y-99485000D03*
X145435000Y-97985000D03*
X142785000Y-99485000D03*
X142785000Y-97985000D03*
D19*
X148085000Y-97935000D03*
X148085000Y-99435000D03*
X148085000Y-104185000D03*
X148085000Y-102685000D03*
X150385000Y-104235000D03*
X150385000Y-102735000D03*
D11*
X144935000Y-90635000D03*
D12*
X142395000Y-90635000D03*
D13*
X161910000Y-93110000D03*
X158100000Y-93110000D03*
X161910000Y-90570000D03*
X158100000Y-90570000D03*
X161910000Y-88030000D03*
X158100000Y-85490000D03*
X161910000Y-85490000D03*
D14*
X158100000Y-88030000D03*
D15*
X152785000Y-87935000D03*
X152785000Y-86985000D03*
X152785000Y-86035000D03*
X150585000Y-86035000D03*
X150585000Y-87935000D03*
D13*
X127200000Y-86390000D03*
X127200000Y-88930000D03*
D14*
X127200000Y-91470000D03*
D16*
X137185000Y-85735000D03*
X136685000Y-85735000D03*
X136185000Y-85735000D03*
X135685000Y-85735000D03*
X135185000Y-85735000D03*
X134685000Y-85735000D03*
X134185000Y-85735000D03*
X133685000Y-85735000D03*
X133185000Y-85735000D03*
X132685000Y-85735000D03*
D17*
X131935000Y-86485000D03*
X131935000Y-86985000D03*
X131935000Y-87485000D03*
X131935000Y-87985000D03*
X131935000Y-88485000D03*
X131935000Y-88985000D03*
X131935000Y-89485000D03*
X131935000Y-89985000D03*
X131935000Y-90485000D03*
X131935000Y-90985000D03*
D16*
X132685000Y-91735000D03*
X133185000Y-91735000D03*
X133685000Y-91735000D03*
X134185000Y-91735000D03*
X134685000Y-91735000D03*
X135185000Y-91735000D03*
X135685000Y-91735000D03*
X136185000Y-91735000D03*
X136685000Y-91735000D03*
X137185000Y-91735000D03*
D17*
X137935000Y-90985000D03*
X137935000Y-90485000D03*
X137935000Y-89985000D03*
X137935000Y-89485000D03*
X137935000Y-88985000D03*
X137935000Y-88485000D03*
X137935000Y-87985000D03*
X137935000Y-87485000D03*
X137935000Y-86985000D03*
X137935000Y-86485000D03*
D18*
X152735000Y-90735000D03*
X152735000Y-92235000D03*
X145435000Y-87485000D03*
X145435000Y-85985000D03*
X142785000Y-87485000D03*
X142785000Y-85985000D03*
D19*
X148085000Y-85935000D03*
X148085000Y-87435000D03*
X148085000Y-92185000D03*
X148085000Y-90685000D03*
X150385000Y-92235000D03*
X150385000Y-90735000D03*
D11*
X144935000Y-78635000D03*
D12*
X142395000Y-78635000D03*
D13*
X161910000Y-81110000D03*
X158100000Y-81110000D03*
X161910000Y-78570000D03*
X158100000Y-78570000D03*
X161910000Y-76030000D03*
X158100000Y-73490000D03*
X161910000Y-73490000D03*
D14*
X158100000Y-76030000D03*
D15*
X152785000Y-75935000D03*
X152785000Y-74985000D03*
X152785000Y-74035000D03*
X150585000Y-74035000D03*
X150585000Y-75935000D03*
D13*
X127200000Y-74390000D03*
X127200000Y-76930000D03*
D14*
X127200000Y-79470000D03*
D16*
X137185000Y-73735000D03*
X136685000Y-73735000D03*
X136185000Y-73735000D03*
X135685000Y-73735000D03*
X135185000Y-73735000D03*
X134685000Y-73735000D03*
X134185000Y-73735000D03*
X133685000Y-73735000D03*
X133185000Y-73735000D03*
X132685000Y-73735000D03*
D17*
X131935000Y-74485000D03*
X131935000Y-74985000D03*
X131935000Y-75485000D03*
X131935000Y-75985000D03*
X131935000Y-76485000D03*
X131935000Y-76985000D03*
X131935000Y-77485000D03*
X131935000Y-77985000D03*
X131935000Y-78485000D03*
X131935000Y-78985000D03*
D16*
X132685000Y-79735000D03*
X133185000Y-79735000D03*
X133685000Y-79735000D03*
X134185000Y-79735000D03*
X134685000Y-79735000D03*
X135185000Y-79735000D03*
X135685000Y-79735000D03*
X136185000Y-79735000D03*
X136685000Y-79735000D03*
X137185000Y-79735000D03*
D17*
X137935000Y-78985000D03*
X137935000Y-78485000D03*
X137935000Y-77985000D03*
X137935000Y-77485000D03*
X137935000Y-76985000D03*
X137935000Y-76485000D03*
X137935000Y-75985000D03*
X137935000Y-75485000D03*
X137935000Y-74985000D03*
X137935000Y-74485000D03*
D18*
X152735000Y-78735000D03*
X152735000Y-80235000D03*
X145435000Y-75485000D03*
X145435000Y-73985000D03*
X142785000Y-75485000D03*
X142785000Y-73985000D03*
D19*
X148085000Y-73935000D03*
X148085000Y-75435000D03*
X148085000Y-80185000D03*
X148085000Y-78685000D03*
X150385000Y-80235000D03*
X150385000Y-78735000D03*
D20*
X139035000Y-112435000D03*
X139485000Y-115585000D03*
X148035000Y-113685000D03*
X150335000Y-113485000D03*
X148035000Y-112385000D03*
X148035000Y-117935000D03*
X139085000Y-100385000D03*
X139535000Y-103535000D03*
X148085000Y-101635000D03*
X150385000Y-101435000D03*
X148085000Y-100335000D03*
X148085000Y-105885000D03*
X139085000Y-88385000D03*
X139535000Y-91535000D03*
X148085000Y-89635000D03*
X150385000Y-89435000D03*
X148085000Y-88335000D03*
X148085000Y-93885000D03*
X139085000Y-76385000D03*
X139535000Y-79535000D03*
X148085000Y-77635000D03*
X150385000Y-77435000D03*
X148085000Y-76335000D03*
X148085000Y-81885000D03*
X130335000Y-114335000D03*
X130385000Y-102285000D03*
X130385000Y-90285000D03*
X130385000Y-78285000D03*
X135685000Y-116785000D03*
X154635000Y-109185000D03*
X141285000Y-109985000D03*
X135735000Y-104735000D03*
X154685000Y-97135000D03*
X141335000Y-97935000D03*
X135735000Y-92735000D03*
X154685000Y-85135000D03*
X141335000Y-85935000D03*
X135735000Y-80735000D03*
X154685000Y-73135000D03*
X141335000Y-73935000D03*
X136735000Y-116785000D03*
X155585000Y-110485000D03*
X144135000Y-110035000D03*
X136785000Y-104735000D03*
X155635000Y-98435000D03*
X144185000Y-97985000D03*
X136785000Y-92735000D03*
X155635000Y-86435000D03*
X144185000Y-85985000D03*
X136785000Y-80735000D03*
X155635000Y-74435000D03*
X144185000Y-73985000D03*
X130385000Y-115485000D03*
X130435000Y-103435000D03*
X130435000Y-91435000D03*
X130435000Y-79435000D03*
D21*
X137885000Y-112535000D02*
X138935000Y-112535000D01*
X138935000Y-112535000D02*
X139035000Y-112435000D01*
X139485000Y-115585000D02*
X139485000Y-115635000D01*
X137885000Y-111035000D02*
X138835000Y-111035000D01*
X139035000Y-112435000D02*
X138935000Y-112535000D01*
X139035000Y-111235000D02*
X139035000Y-112435000D01*
X138835000Y-111035000D02*
X139035000Y-111235000D01*
X148035000Y-114735000D02*
X148035000Y-113685000D01*
X150335000Y-114785000D02*
X150335000Y-113485000D01*
X137885000Y-115035000D02*
X138885000Y-115035000D01*
X139485000Y-115635000D02*
X139485000Y-117935000D01*
X138885000Y-115035000D02*
X139485000Y-115635000D01*
X148035000Y-112385000D02*
X148035000Y-111485000D01*
X152735000Y-111035000D02*
X148485000Y-111035000D01*
X148485000Y-111035000D02*
X148035000Y-111485000D01*
X127150000Y-115520000D02*
X127150000Y-116100000D01*
X127150000Y-116100000D02*
X128985000Y-117935000D01*
X128985000Y-117935000D02*
X139485000Y-117935000D01*
X139485000Y-117935000D02*
X148035000Y-117935000D01*
X148035000Y-117935000D02*
X157275000Y-117935000D01*
X157275000Y-117935000D02*
X158050000Y-117160000D01*
X161860000Y-117160000D02*
X158050000Y-117160000D01*
X137935000Y-100485000D02*
X138985000Y-100485000D01*
X138985000Y-100485000D02*
X139085000Y-100385000D01*
X139535000Y-103535000D02*
X139535000Y-103585000D01*
X137935000Y-98985000D02*
X138885000Y-98985000D01*
X139085000Y-100385000D02*
X138985000Y-100485000D01*
X139085000Y-99185000D02*
X139085000Y-100385000D01*
X138885000Y-98985000D02*
X139085000Y-99185000D01*
X148085000Y-102685000D02*
X148085000Y-101635000D01*
X150385000Y-102735000D02*
X150385000Y-101435000D01*
X137935000Y-102985000D02*
X138935000Y-102985000D01*
X139535000Y-103585000D02*
X139535000Y-105885000D01*
X138935000Y-102985000D02*
X139535000Y-103585000D01*
X148085000Y-100335000D02*
X148085000Y-99435000D01*
X152785000Y-98985000D02*
X148535000Y-98985000D01*
X148535000Y-98985000D02*
X148085000Y-99435000D01*
X127200000Y-103470000D02*
X127200000Y-104050000D01*
X127200000Y-104050000D02*
X129035000Y-105885000D01*
X129035000Y-105885000D02*
X139535000Y-105885000D01*
X139535000Y-105885000D02*
X148085000Y-105885000D01*
X148085000Y-105885000D02*
X157325000Y-105885000D01*
X157325000Y-105885000D02*
X158100000Y-105110000D01*
X161910000Y-105110000D02*
X158100000Y-105110000D01*
X137935000Y-88485000D02*
X138985000Y-88485000D01*
X138985000Y-88485000D02*
X139085000Y-88385000D01*
X139535000Y-91535000D02*
X139535000Y-91585000D01*
X137935000Y-86985000D02*
X138885000Y-86985000D01*
X139085000Y-88385000D02*
X138985000Y-88485000D01*
X139085000Y-87185000D02*
X139085000Y-88385000D01*
X138885000Y-86985000D02*
X139085000Y-87185000D01*
X148085000Y-90685000D02*
X148085000Y-89635000D01*
X150385000Y-90735000D02*
X150385000Y-89435000D01*
X137935000Y-90985000D02*
X138935000Y-90985000D01*
X139535000Y-91585000D02*
X139535000Y-93885000D01*
X138935000Y-90985000D02*
X139535000Y-91585000D01*
X148085000Y-88335000D02*
X148085000Y-87435000D01*
X152785000Y-86985000D02*
X148535000Y-86985000D01*
X148535000Y-86985000D02*
X148085000Y-87435000D01*
X127200000Y-91470000D02*
X127200000Y-92050000D01*
X127200000Y-92050000D02*
X129035000Y-93885000D01*
X129035000Y-93885000D02*
X139535000Y-93885000D01*
X139535000Y-93885000D02*
X148085000Y-93885000D01*
X148085000Y-93885000D02*
X157325000Y-93885000D01*
X157325000Y-93885000D02*
X158100000Y-93110000D01*
X161910000Y-93110000D02*
X158100000Y-93110000D01*
X137935000Y-76485000D02*
X138985000Y-76485000D01*
X138985000Y-76485000D02*
X139085000Y-76385000D01*
X139535000Y-79535000D02*
X139535000Y-79585000D01*
X137935000Y-74985000D02*
X138885000Y-74985000D01*
X139085000Y-76385000D02*
X138985000Y-76485000D01*
X139085000Y-75185000D02*
X139085000Y-76385000D01*
X138885000Y-74985000D02*
X139085000Y-75185000D01*
X148085000Y-78685000D02*
X148085000Y-77635000D01*
X150385000Y-78735000D02*
X150385000Y-77435000D01*
X137935000Y-78985000D02*
X138935000Y-78985000D01*
X139535000Y-79585000D02*
X139535000Y-81885000D01*
X138935000Y-78985000D02*
X139535000Y-79585000D01*
X148085000Y-76335000D02*
X148085000Y-75435000D01*
X152785000Y-74985000D02*
X148535000Y-74985000D01*
X148535000Y-74985000D02*
X148085000Y-75435000D01*
X127200000Y-79470000D02*
X127200000Y-80050000D01*
X127200000Y-80050000D02*
X129035000Y-81885000D01*
X129035000Y-81885000D02*
X139535000Y-81885000D01*
X139535000Y-81885000D02*
X148085000Y-81885000D01*
X148085000Y-81885000D02*
X157325000Y-81885000D01*
X157325000Y-81885000D02*
X158100000Y-81110000D01*
X161910000Y-81110000D02*
X158100000Y-81110000D01*
X152735000Y-110085000D02*
X153635000Y-110085000D01*
X153735000Y-110185000D02*
X153735000Y-112485000D01*
X153635000Y-110085000D02*
X153735000Y-110185000D01*
X152735000Y-111985000D02*
X153235000Y-111985000D01*
X153235000Y-111985000D02*
X153735000Y-112485000D01*
X153735000Y-112485000D02*
X155870000Y-114620000D01*
X155870000Y-114620000D02*
X158050000Y-114620000D01*
X148035000Y-109985000D02*
X148035000Y-109035000D01*
X152735000Y-110085000D02*
X152735000Y-109035000D01*
X128655000Y-108935000D02*
X127150000Y-110440000D01*
X147935000Y-108935000D02*
X128655000Y-108935000D01*
X148035000Y-109035000D02*
X147935000Y-108935000D01*
X152735000Y-109035000D02*
X148035000Y-109035000D01*
X161860000Y-114620000D02*
X158050000Y-114620000D01*
X127150000Y-110440000D02*
X128130000Y-110440000D01*
X152785000Y-98035000D02*
X153685000Y-98035000D01*
X153785000Y-98135000D02*
X153785000Y-100435000D01*
X153685000Y-98035000D02*
X153785000Y-98135000D01*
X152785000Y-99935000D02*
X153285000Y-99935000D01*
X153285000Y-99935000D02*
X153785000Y-100435000D01*
X153785000Y-100435000D02*
X155920000Y-102570000D01*
X155920000Y-102570000D02*
X158100000Y-102570000D01*
X148085000Y-97935000D02*
X148085000Y-96985000D01*
X152785000Y-98035000D02*
X152785000Y-96985000D01*
X128705000Y-96885000D02*
X127200000Y-98390000D01*
X147985000Y-96885000D02*
X128705000Y-96885000D01*
X148085000Y-96985000D02*
X147985000Y-96885000D01*
X152785000Y-96985000D02*
X148085000Y-96985000D01*
X161910000Y-102570000D02*
X158100000Y-102570000D01*
X127200000Y-98390000D02*
X128180000Y-98390000D01*
X152785000Y-86035000D02*
X153685000Y-86035000D01*
X153785000Y-86135000D02*
X153785000Y-88435000D01*
X153685000Y-86035000D02*
X153785000Y-86135000D01*
X152785000Y-87935000D02*
X153285000Y-87935000D01*
X153285000Y-87935000D02*
X153785000Y-88435000D01*
X153785000Y-88435000D02*
X155920000Y-90570000D01*
X155920000Y-90570000D02*
X158100000Y-90570000D01*
X148085000Y-85935000D02*
X148085000Y-84985000D01*
X152785000Y-86035000D02*
X152785000Y-84985000D01*
X128705000Y-84885000D02*
X127200000Y-86390000D01*
X147985000Y-84885000D02*
X128705000Y-84885000D01*
X148085000Y-84985000D02*
X147985000Y-84885000D01*
X152785000Y-84985000D02*
X148085000Y-84985000D01*
X161910000Y-90570000D02*
X158100000Y-90570000D01*
X127200000Y-86390000D02*
X128180000Y-86390000D01*
X152785000Y-74035000D02*
X153685000Y-74035000D01*
X153785000Y-74135000D02*
X153785000Y-76435000D01*
X153685000Y-74035000D02*
X153785000Y-74135000D01*
X152785000Y-75935000D02*
X153285000Y-75935000D01*
X153285000Y-75935000D02*
X153785000Y-76435000D01*
X153785000Y-76435000D02*
X155920000Y-78570000D01*
X155920000Y-78570000D02*
X158100000Y-78570000D01*
X148085000Y-73935000D02*
X148085000Y-72985000D01*
X152785000Y-74035000D02*
X152785000Y-72985000D01*
X128705000Y-72885000D02*
X127200000Y-74390000D01*
X147985000Y-72885000D02*
X128705000Y-72885000D01*
X148085000Y-72985000D02*
X147985000Y-72885000D01*
X152785000Y-72985000D02*
X148085000Y-72985000D01*
X161910000Y-78570000D02*
X158100000Y-78570000D01*
X127200000Y-74390000D02*
X128180000Y-74390000D01*
X145385000Y-111535000D02*
X145385000Y-111635000D01*
X145385000Y-111635000D02*
X146785000Y-113035000D01*
X149485000Y-113035000D02*
X150535000Y-111985000D01*
X146785000Y-113035000D02*
X149485000Y-113035000D01*
X145385000Y-111535000D02*
X145485000Y-111535000D01*
X137885000Y-114535000D02*
X139035000Y-114535000D01*
X141435000Y-112135000D02*
X141435000Y-111535000D01*
X139035000Y-114535000D02*
X141435000Y-112135000D01*
X145385000Y-111535000D02*
X142735000Y-111535000D01*
X142735000Y-111535000D02*
X141435000Y-111535000D01*
X140435000Y-110535000D02*
X137885000Y-110535000D01*
X141435000Y-111535000D02*
X140435000Y-110535000D01*
X148035000Y-116235000D02*
X148685000Y-116235000D01*
X149185000Y-113335000D02*
X150535000Y-111985000D01*
X149185000Y-115735000D02*
X149185000Y-113335000D01*
X148685000Y-116235000D02*
X149185000Y-115735000D01*
X152685000Y-114785000D02*
X152685000Y-114135000D01*
X152685000Y-114135000D02*
X150535000Y-111985000D01*
X145435000Y-99485000D02*
X145435000Y-99585000D01*
X145435000Y-99585000D02*
X146835000Y-100985000D01*
X149535000Y-100985000D02*
X150585000Y-99935000D01*
X146835000Y-100985000D02*
X149535000Y-100985000D01*
X145435000Y-99485000D02*
X145535000Y-99485000D01*
X137935000Y-102485000D02*
X139085000Y-102485000D01*
X141485000Y-100085000D02*
X141485000Y-99485000D01*
X139085000Y-102485000D02*
X141485000Y-100085000D01*
X145435000Y-99485000D02*
X142785000Y-99485000D01*
X142785000Y-99485000D02*
X141485000Y-99485000D01*
X140485000Y-98485000D02*
X137935000Y-98485000D01*
X141485000Y-99485000D02*
X140485000Y-98485000D01*
X148085000Y-104185000D02*
X148735000Y-104185000D01*
X149235000Y-101285000D02*
X150585000Y-99935000D01*
X149235000Y-103685000D02*
X149235000Y-101285000D01*
X148735000Y-104185000D02*
X149235000Y-103685000D01*
X152735000Y-102735000D02*
X152735000Y-102085000D01*
X152735000Y-102085000D02*
X150585000Y-99935000D01*
X145435000Y-87485000D02*
X145435000Y-87585000D01*
X145435000Y-87585000D02*
X146835000Y-88985000D01*
X149535000Y-88985000D02*
X150585000Y-87935000D01*
X146835000Y-88985000D02*
X149535000Y-88985000D01*
X145435000Y-87485000D02*
X145535000Y-87485000D01*
X137935000Y-90485000D02*
X139085000Y-90485000D01*
X141485000Y-88085000D02*
X141485000Y-87485000D01*
X139085000Y-90485000D02*
X141485000Y-88085000D01*
X145435000Y-87485000D02*
X142785000Y-87485000D01*
X142785000Y-87485000D02*
X141485000Y-87485000D01*
X140485000Y-86485000D02*
X137935000Y-86485000D01*
X141485000Y-87485000D02*
X140485000Y-86485000D01*
X148085000Y-92185000D02*
X148735000Y-92185000D01*
X149235000Y-89285000D02*
X150585000Y-87935000D01*
X149235000Y-91685000D02*
X149235000Y-89285000D01*
X148735000Y-92185000D02*
X149235000Y-91685000D01*
X152735000Y-90735000D02*
X152735000Y-90085000D01*
X152735000Y-90085000D02*
X150585000Y-87935000D01*
X145435000Y-75485000D02*
X145435000Y-75585000D01*
X145435000Y-75585000D02*
X146835000Y-76985000D01*
X149535000Y-76985000D02*
X150585000Y-75935000D01*
X146835000Y-76985000D02*
X149535000Y-76985000D01*
X145435000Y-75485000D02*
X145535000Y-75485000D01*
X137935000Y-78485000D02*
X139085000Y-78485000D01*
X141485000Y-76085000D02*
X141485000Y-75485000D01*
X139085000Y-78485000D02*
X141485000Y-76085000D01*
X145435000Y-75485000D02*
X142785000Y-75485000D01*
X142785000Y-75485000D02*
X141485000Y-75485000D01*
X140485000Y-74485000D02*
X137935000Y-74485000D01*
X141485000Y-75485000D02*
X140485000Y-74485000D01*
X148085000Y-80185000D02*
X148735000Y-80185000D01*
X149235000Y-77285000D02*
X150585000Y-75935000D01*
X149235000Y-79685000D02*
X149235000Y-77285000D01*
X148735000Y-80185000D02*
X149235000Y-79685000D01*
X152735000Y-78735000D02*
X152735000Y-78085000D01*
X152735000Y-78085000D02*
X150585000Y-75935000D01*
X130335000Y-114335000D02*
X130535000Y-114535000D01*
X130535000Y-114535000D02*
X131885000Y-114535000D01*
X142735000Y-115635000D02*
X142335000Y-115235000D01*
X130385000Y-102285000D02*
X130585000Y-102485000D01*
X130585000Y-102485000D02*
X131935000Y-102485000D01*
X142785000Y-103585000D02*
X142385000Y-103185000D01*
X130385000Y-90285000D02*
X130585000Y-90485000D01*
X130585000Y-90485000D02*
X131935000Y-90485000D01*
X142785000Y-91585000D02*
X142385000Y-91185000D01*
X130385000Y-78285000D02*
X130585000Y-78485000D01*
X130585000Y-78485000D02*
X131935000Y-78485000D01*
X142785000Y-79585000D02*
X142385000Y-79185000D01*
X136135000Y-115785000D02*
X136135000Y-116335000D01*
X136135000Y-116335000D02*
X135685000Y-116785000D01*
X158050000Y-112080000D02*
X154830000Y-112080000D01*
X154785000Y-109335000D02*
X154635000Y-109185000D01*
X154785000Y-112035000D02*
X154785000Y-109335000D01*
X154830000Y-112080000D02*
X154785000Y-112035000D01*
X141335000Y-110035000D02*
X142735000Y-110035000D01*
X141285000Y-109985000D02*
X141335000Y-110035000D01*
X161860000Y-112080000D02*
X158050000Y-112080000D01*
X136185000Y-103735000D02*
X136185000Y-104285000D01*
X136185000Y-104285000D02*
X135735000Y-104735000D01*
X158100000Y-100030000D02*
X154880000Y-100030000D01*
X154835000Y-97285000D02*
X154685000Y-97135000D01*
X154835000Y-99985000D02*
X154835000Y-97285000D01*
X154880000Y-100030000D02*
X154835000Y-99985000D01*
X141385000Y-97985000D02*
X142785000Y-97985000D01*
X141335000Y-97935000D02*
X141385000Y-97985000D01*
X161910000Y-100030000D02*
X158100000Y-100030000D01*
X136185000Y-91735000D02*
X136185000Y-92285000D01*
X136185000Y-92285000D02*
X135735000Y-92735000D01*
X158100000Y-88030000D02*
X154880000Y-88030000D01*
X154835000Y-85285000D02*
X154685000Y-85135000D01*
X154835000Y-87985000D02*
X154835000Y-85285000D01*
X154880000Y-88030000D02*
X154835000Y-87985000D01*
X141385000Y-85985000D02*
X142785000Y-85985000D01*
X141335000Y-85935000D02*
X141385000Y-85985000D01*
X161910000Y-88030000D02*
X158100000Y-88030000D01*
X136185000Y-79735000D02*
X136185000Y-80285000D01*
X136185000Y-80285000D02*
X135735000Y-80735000D01*
X158100000Y-76030000D02*
X154880000Y-76030000D01*
X154835000Y-73285000D02*
X154685000Y-73135000D01*
X154835000Y-75985000D02*
X154835000Y-73285000D01*
X154880000Y-76030000D02*
X154835000Y-75985000D01*
X141385000Y-73985000D02*
X142785000Y-73985000D01*
X141335000Y-73935000D02*
X141385000Y-73985000D01*
X161910000Y-76030000D02*
X158100000Y-76030000D01*
X136635000Y-115785000D02*
X136635000Y-116685000D01*
X136635000Y-116685000D02*
X136735000Y-116785000D01*
X158050000Y-109540000D02*
X156530000Y-109540000D01*
X156530000Y-109540000D02*
X155585000Y-110485000D01*
X144135000Y-110035000D02*
X145385000Y-110035000D01*
X161860000Y-109540000D02*
X158050000Y-109540000D01*
X136685000Y-103735000D02*
X136685000Y-104635000D01*
X136685000Y-104635000D02*
X136785000Y-104735000D01*
X158100000Y-97490000D02*
X156580000Y-97490000D01*
X156580000Y-97490000D02*
X155635000Y-98435000D01*
X144185000Y-97985000D02*
X145435000Y-97985000D01*
X161910000Y-97490000D02*
X158100000Y-97490000D01*
X136685000Y-91735000D02*
X136685000Y-92635000D01*
X136685000Y-92635000D02*
X136785000Y-92735000D01*
X158100000Y-85490000D02*
X156580000Y-85490000D01*
X156580000Y-85490000D02*
X155635000Y-86435000D01*
X144185000Y-85985000D02*
X145435000Y-85985000D01*
X161910000Y-85490000D02*
X158100000Y-85490000D01*
X136685000Y-79735000D02*
X136685000Y-80635000D01*
X136685000Y-80635000D02*
X136785000Y-80735000D01*
X158100000Y-73490000D02*
X156580000Y-73490000D01*
X156580000Y-73490000D02*
X155635000Y-74435000D01*
X144185000Y-73985000D02*
X145435000Y-73985000D01*
X161910000Y-73490000D02*
X158100000Y-73490000D01*
X131885000Y-113535000D02*
X129885000Y-113535000D01*
X129330000Y-112980000D02*
X127150000Y-112980000D01*
X129885000Y-113535000D02*
X129330000Y-112980000D01*
X131935000Y-101485000D02*
X129935000Y-101485000D01*
X129380000Y-100930000D02*
X127200000Y-100930000D01*
X129935000Y-101485000D02*
X129380000Y-100930000D01*
X131935000Y-89485000D02*
X129935000Y-89485000D01*
X129380000Y-88930000D02*
X127200000Y-88930000D01*
X129935000Y-89485000D02*
X129380000Y-88930000D01*
X131935000Y-77485000D02*
X129935000Y-77485000D01*
X129380000Y-76930000D02*
X127200000Y-76930000D01*
X129935000Y-77485000D02*
X129380000Y-76930000D01*
X130835000Y-115035000D02*
X131885000Y-115035000D01*
X130385000Y-115485000D02*
X130835000Y-115035000D01*
X152685000Y-116285000D02*
X150335000Y-116285000D01*
X150335000Y-116285000D02*
X150335000Y-116785000D01*
X147085000Y-117285000D02*
X144885000Y-115085000D01*
X149835000Y-117285000D02*
X147085000Y-117285000D01*
X150335000Y-116785000D02*
X149835000Y-117285000D01*
X144885000Y-115085000D02*
X144885000Y-114685000D01*
X130885000Y-102985000D02*
X131935000Y-102985000D01*
X130435000Y-103435000D02*
X130885000Y-102985000D01*
X152735000Y-104235000D02*
X150385000Y-104235000D01*
X150385000Y-104235000D02*
X150385000Y-104735000D01*
X147135000Y-105235000D02*
X144935000Y-103035000D01*
X149885000Y-105235000D02*
X147135000Y-105235000D01*
X150385000Y-104735000D02*
X149885000Y-105235000D01*
X144935000Y-103035000D02*
X144935000Y-102635000D01*
X130885000Y-90985000D02*
X131935000Y-90985000D01*
X130435000Y-91435000D02*
X130885000Y-90985000D01*
X152735000Y-92235000D02*
X150385000Y-92235000D01*
X150385000Y-92235000D02*
X150385000Y-92735000D01*
X147135000Y-93235000D02*
X144935000Y-91035000D01*
X149885000Y-93235000D02*
X147135000Y-93235000D01*
X150385000Y-92735000D02*
X149885000Y-93235000D01*
X144935000Y-91035000D02*
X144935000Y-90635000D01*
X130885000Y-78985000D02*
X131935000Y-78985000D01*
X130435000Y-79435000D02*
X130885000Y-78985000D01*
X152735000Y-80235000D02*
X150385000Y-80235000D01*
X150385000Y-80235000D02*
X150385000Y-80735000D01*
X147135000Y-81235000D02*
X144935000Y-79035000D01*
X149885000Y-81235000D02*
X147135000Y-81235000D01*
X150385000Y-80735000D02*
X149885000Y-81235000D01*
X144935000Y-79035000D02*
X144935000Y-78635000D01*
D22*
G36*
X141177567Y-113485222D02*
X140819675Y-114020845D01*
X140694000Y-114652655D01*
X140694000Y-114717345D01*
X140819675Y-115349155D01*
X141177567Y-115884778D01*
X141713190Y-116242670D01*
X142345000Y-116368345D01*
X142472999Y-116342884D01*
X142735000Y-116394999D01*
X143025839Y-116337148D01*
X143272401Y-116172401D01*
X143346446Y-116061585D01*
X143404910Y-116152441D01*
X143617110Y-116297431D01*
X143869000Y-116348440D01*
X145073638Y-116348440D01*
X146547599Y-117822401D01*
X146794161Y-117987148D01*
X147085000Y-118045000D01*
X149835000Y-118045000D01*
X150125839Y-117987148D01*
X150372401Y-117822401D01*
X150872401Y-117322401D01*
X150888083Y-117298931D01*
X150945317Y-117288162D01*
X151161441Y-117149090D01*
X151232563Y-117045000D01*
X151856614Y-117045000D01*
X151983110Y-117131431D01*
X152235000Y-117182440D01*
X153135000Y-117182440D01*
X153370317Y-117138162D01*
X153586441Y-116999090D01*
X153731431Y-116786890D01*
X153782440Y-116535000D01*
X153782440Y-116035000D01*
X153738162Y-115799683D01*
X153599090Y-115583559D01*
X153529289Y-115535866D01*
X153576123Y-115505729D01*
X154245197Y-116174803D01*
X154287211Y-116202666D01*
X154335000Y-116212000D01*
X156066487Y-116212000D01*
X156015460Y-116335191D01*
X156015460Y-116874250D01*
X156174210Y-117033000D01*
X157923000Y-117033000D01*
X157923000Y-117013000D01*
X158177000Y-117013000D01*
X158177000Y-117033000D01*
X159925790Y-117033000D01*
X159955000Y-117003790D01*
X159984210Y-117033000D01*
X161733000Y-117033000D01*
X161733000Y-117013000D01*
X161987000Y-117013000D01*
X161987000Y-117033000D01*
X162007000Y-117033000D01*
X162007000Y-117287000D01*
X161987000Y-117287000D01*
X161987000Y-117307000D01*
X161733000Y-117307000D01*
X161733000Y-117287000D01*
X159984210Y-117287000D01*
X159955000Y-117316210D01*
X159925790Y-117287000D01*
X158177000Y-117287000D01*
X158177000Y-117307000D01*
X157923000Y-117307000D01*
X157923000Y-117287000D01*
X156174210Y-117287000D01*
X156015460Y-117445750D01*
X156015460Y-117984809D01*
X156112133Y-118218198D01*
X156201934Y-118308000D01*
X125262000Y-118308000D01*
X125262000Y-116629335D01*
X125390761Y-116758097D01*
X125624150Y-116854770D01*
X126864250Y-116854770D01*
X127023000Y-116696020D01*
X127023000Y-115647000D01*
X127277000Y-115647000D01*
X127277000Y-116696020D01*
X127435750Y-116854770D01*
X128675850Y-116854770D01*
X128909239Y-116758097D01*
X129087867Y-116579468D01*
X129184540Y-116346079D01*
X129184540Y-115805750D01*
X129025790Y-115647000D01*
X127277000Y-115647000D01*
X127023000Y-115647000D01*
X127003000Y-115647000D01*
X127003000Y-115393000D01*
X127023000Y-115393000D01*
X127023000Y-115373000D01*
X127277000Y-115373000D01*
X127277000Y-115393000D01*
X129025790Y-115393000D01*
X129184540Y-115234250D01*
X129184540Y-114693921D01*
X129087867Y-114460532D01*
X128909239Y-114281903D01*
X128833340Y-114250464D01*
X129000981Y-114142590D01*
X129145971Y-113930390D01*
X129156011Y-113880813D01*
X129347599Y-114072401D01*
X129413385Y-114116357D01*
X129400162Y-114148201D01*
X129399838Y-114520167D01*
X129541883Y-114863943D01*
X129612666Y-114934850D01*
X129592808Y-114954673D01*
X129450162Y-115298201D01*
X129449838Y-115670167D01*
X129591883Y-116013943D01*
X129854673Y-116277192D01*
X130198201Y-116419838D01*
X130570167Y-116420162D01*
X130913943Y-116278117D01*
X131177192Y-116015327D01*
X131268680Y-115795000D01*
X131450116Y-115795000D01*
X131635000Y-115832440D01*
X131837560Y-115832440D01*
X131837560Y-116035000D01*
X131881838Y-116270317D01*
X132020910Y-116486441D01*
X132233110Y-116631431D01*
X132485000Y-116682440D01*
X132785000Y-116682440D01*
X132888671Y-116662933D01*
X132985000Y-116682440D01*
X133285000Y-116682440D01*
X133388671Y-116662933D01*
X133485000Y-116682440D01*
X133785000Y-116682440D01*
X133888671Y-116662933D01*
X133985000Y-116682440D01*
X134285000Y-116682440D01*
X134388671Y-116662933D01*
X134485000Y-116682440D01*
X134750089Y-116682440D01*
X134749838Y-116970167D01*
X134891883Y-117313943D01*
X135154673Y-117577192D01*
X135498201Y-117719838D01*
X135870167Y-117720162D01*
X136210413Y-117579576D01*
X136548201Y-117719838D01*
X136920167Y-117720162D01*
X137263943Y-117578117D01*
X137527192Y-117315327D01*
X137669838Y-116971799D01*
X137670162Y-116599833D01*
X137651200Y-116553941D01*
X137736441Y-116499090D01*
X137881431Y-116286890D01*
X137932440Y-116035000D01*
X137932440Y-115820000D01*
X138012002Y-115820000D01*
X138012002Y-115663252D01*
X138168750Y-115820000D01*
X138261309Y-115820000D01*
X138494698Y-115723327D01*
X138673327Y-115544699D01*
X138770000Y-115311310D01*
X138770000Y-115295000D01*
X139035000Y-115295000D01*
X139325839Y-115237148D01*
X139572401Y-115072401D01*
X141332802Y-113312000D01*
X141436812Y-113312000D01*
X141177567Y-113485222D01*
X141177567Y-113485222D01*
G37*
X141177567Y-113485222D02*
X140819675Y-114020845D01*
X140694000Y-114652655D01*
X140694000Y-114717345D01*
X140819675Y-115349155D01*
X141177567Y-115884778D01*
X141713190Y-116242670D01*
X142345000Y-116368345D01*
X142472999Y-116342884D01*
X142735000Y-116394999D01*
X143025839Y-116337148D01*
X143272401Y-116172401D01*
X143346446Y-116061585D01*
X143404910Y-116152441D01*
X143617110Y-116297431D01*
X143869000Y-116348440D01*
X145073638Y-116348440D01*
X146547599Y-117822401D01*
X146794161Y-117987148D01*
X147085000Y-118045000D01*
X149835000Y-118045000D01*
X150125839Y-117987148D01*
X150372401Y-117822401D01*
X150872401Y-117322401D01*
X150888083Y-117298931D01*
X150945317Y-117288162D01*
X151161441Y-117149090D01*
X151232563Y-117045000D01*
X151856614Y-117045000D01*
X151983110Y-117131431D01*
X152235000Y-117182440D01*
X153135000Y-117182440D01*
X153370317Y-117138162D01*
X153586441Y-116999090D01*
X153731431Y-116786890D01*
X153782440Y-116535000D01*
X153782440Y-116035000D01*
X153738162Y-115799683D01*
X153599090Y-115583559D01*
X153529289Y-115535866D01*
X153576123Y-115505729D01*
X154245197Y-116174803D01*
X154287211Y-116202666D01*
X154335000Y-116212000D01*
X156066487Y-116212000D01*
X156015460Y-116335191D01*
X156015460Y-116874250D01*
X156174210Y-117033000D01*
X157923000Y-117033000D01*
X157923000Y-117013000D01*
X158177000Y-117013000D01*
X158177000Y-117033000D01*
X159925790Y-117033000D01*
X159955000Y-117003790D01*
X159984210Y-117033000D01*
X161733000Y-117033000D01*
X161733000Y-117013000D01*
X161987000Y-117013000D01*
X161987000Y-117033000D01*
X162007000Y-117033000D01*
X162007000Y-117287000D01*
X161987000Y-117287000D01*
X161987000Y-117307000D01*
X161733000Y-117307000D01*
X161733000Y-117287000D01*
X159984210Y-117287000D01*
X159955000Y-117316210D01*
X159925790Y-117287000D01*
X158177000Y-117287000D01*
X158177000Y-117307000D01*
X157923000Y-117307000D01*
X157923000Y-117287000D01*
X156174210Y-117287000D01*
X156015460Y-117445750D01*
X156015460Y-117984809D01*
X156112133Y-118218198D01*
X156201934Y-118308000D01*
X125262000Y-118308000D01*
X125262000Y-116629335D01*
X125390761Y-116758097D01*
X125624150Y-116854770D01*
X126864250Y-116854770D01*
X127023000Y-116696020D01*
X127023000Y-115647000D01*
X127277000Y-115647000D01*
X127277000Y-116696020D01*
X127435750Y-116854770D01*
X128675850Y-116854770D01*
X128909239Y-116758097D01*
X129087867Y-116579468D01*
X129184540Y-116346079D01*
X129184540Y-115805750D01*
X129025790Y-115647000D01*
X127277000Y-115647000D01*
X127023000Y-115647000D01*
X127003000Y-115647000D01*
X127003000Y-115393000D01*
X127023000Y-115393000D01*
X127023000Y-115373000D01*
X127277000Y-115373000D01*
X127277000Y-115393000D01*
X129025790Y-115393000D01*
X129184540Y-115234250D01*
X129184540Y-114693921D01*
X129087867Y-114460532D01*
X128909239Y-114281903D01*
X128833340Y-114250464D01*
X129000981Y-114142590D01*
X129145971Y-113930390D01*
X129156011Y-113880813D01*
X129347599Y-114072401D01*
X129413385Y-114116357D01*
X129400162Y-114148201D01*
X129399838Y-114520167D01*
X129541883Y-114863943D01*
X129612666Y-114934850D01*
X129592808Y-114954673D01*
X129450162Y-115298201D01*
X129449838Y-115670167D01*
X129591883Y-116013943D01*
X129854673Y-116277192D01*
X130198201Y-116419838D01*
X130570167Y-116420162D01*
X130913943Y-116278117D01*
X131177192Y-116015327D01*
X131268680Y-115795000D01*
X131450116Y-115795000D01*
X131635000Y-115832440D01*
X131837560Y-115832440D01*
X131837560Y-116035000D01*
X131881838Y-116270317D01*
X132020910Y-116486441D01*
X132233110Y-116631431D01*
X132485000Y-116682440D01*
X132785000Y-116682440D01*
X132888671Y-116662933D01*
X132985000Y-116682440D01*
X133285000Y-116682440D01*
X133388671Y-116662933D01*
X133485000Y-116682440D01*
X133785000Y-116682440D01*
X133888671Y-116662933D01*
X133985000Y-116682440D01*
X134285000Y-116682440D01*
X134388671Y-116662933D01*
X134485000Y-116682440D01*
X134750089Y-116682440D01*
X134749838Y-116970167D01*
X134891883Y-117313943D01*
X135154673Y-117577192D01*
X135498201Y-117719838D01*
X135870167Y-117720162D01*
X136210413Y-117579576D01*
X136548201Y-117719838D01*
X136920167Y-117720162D01*
X137263943Y-117578117D01*
X137527192Y-117315327D01*
X137669838Y-116971799D01*
X137670162Y-116599833D01*
X137651200Y-116553941D01*
X137736441Y-116499090D01*
X137881431Y-116286890D01*
X137932440Y-116035000D01*
X137932440Y-115820000D01*
X138012002Y-115820000D01*
X138012002Y-115663252D01*
X138168750Y-115820000D01*
X138261309Y-115820000D01*
X138494698Y-115723327D01*
X138673327Y-115544699D01*
X138770000Y-115311310D01*
X138770000Y-115295000D01*
X139035000Y-115295000D01*
X139325839Y-115237148D01*
X139572401Y-115072401D01*
X141332802Y-113312000D01*
X141436812Y-113312000D01*
X141177567Y-113485222D01*
G36*
X146785000Y-113795000D02*
X147304340Y-113795000D01*
X147300301Y-113796673D01*
X147121673Y-113975302D01*
X147025000Y-114208691D01*
X147025000Y-114449250D01*
X147183750Y-114608000D01*
X147908000Y-114608000D01*
X147908000Y-114588000D01*
X148162000Y-114588000D01*
X148162000Y-114608000D01*
X148182000Y-114608000D01*
X148182000Y-114862000D01*
X148162000Y-114862000D01*
X148162000Y-114882000D01*
X147908000Y-114882000D01*
X147908000Y-114862000D01*
X147183750Y-114862000D01*
X147025000Y-115020750D01*
X147025000Y-115261309D01*
X147121673Y-115494698D01*
X147123043Y-115496068D01*
X147063569Y-115583110D01*
X147012560Y-115835000D01*
X147012560Y-116137758D01*
X146548440Y-115673638D01*
X146548440Y-113747945D01*
X146785000Y-113795000D01*
X146785000Y-113795000D01*
G37*
X146785000Y-113795000D02*
X147304340Y-113795000D01*
X147300301Y-113796673D01*
X147121673Y-113975302D01*
X147025000Y-114208691D01*
X147025000Y-114449250D01*
X147183750Y-114608000D01*
X147908000Y-114608000D01*
X147908000Y-114588000D01*
X148162000Y-114588000D01*
X148162000Y-114608000D01*
X148182000Y-114608000D01*
X148182000Y-114862000D01*
X148162000Y-114862000D01*
X148162000Y-114882000D01*
X147908000Y-114882000D01*
X147908000Y-114862000D01*
X147183750Y-114862000D01*
X147025000Y-115020750D01*
X147025000Y-115261309D01*
X147121673Y-115494698D01*
X147123043Y-115496068D01*
X147063569Y-115583110D01*
X147012560Y-115835000D01*
X147012560Y-116137758D01*
X146548440Y-115673638D01*
X146548440Y-113747945D01*
X146785000Y-113795000D01*
G36*
X151687173Y-114211975D02*
X151638569Y-114283110D01*
X151587560Y-114535000D01*
X151587560Y-115035000D01*
X151631838Y-115270317D01*
X151770910Y-115486441D01*
X151827343Y-115525000D01*
X151256486Y-115525000D01*
X151345000Y-115311309D01*
X151345000Y-115070750D01*
X151186250Y-114912000D01*
X150462000Y-114912000D01*
X150462000Y-114932000D01*
X150208000Y-114932000D01*
X150208000Y-114912000D01*
X150188000Y-114912000D01*
X150188000Y-114658000D01*
X150208000Y-114658000D01*
X150208000Y-113908750D01*
X150462000Y-113908750D01*
X150462000Y-114658000D01*
X151186250Y-114658000D01*
X151345000Y-114499250D01*
X151345000Y-114258691D01*
X151248327Y-114025302D01*
X151069699Y-113846673D01*
X150836310Y-113750000D01*
X150620750Y-113750000D01*
X150462000Y-113908750D01*
X150208000Y-113908750D01*
X150049250Y-113750000D01*
X149945000Y-113750000D01*
X149945000Y-113649802D01*
X150282802Y-113312000D01*
X150787198Y-113312000D01*
X151687173Y-114211975D01*
X151687173Y-114211975D01*
G37*
X151687173Y-114211975D02*
X151638569Y-114283110D01*
X151587560Y-114535000D01*
X151587560Y-115035000D01*
X151631838Y-115270317D01*
X151770910Y-115486441D01*
X151827343Y-115525000D01*
X151256486Y-115525000D01*
X151345000Y-115311309D01*
X151345000Y-115070750D01*
X151186250Y-114912000D01*
X150462000Y-114912000D01*
X150462000Y-114932000D01*
X150208000Y-114932000D01*
X150208000Y-114912000D01*
X150188000Y-114912000D01*
X150188000Y-114658000D01*
X150208000Y-114658000D01*
X150208000Y-113908750D01*
X150462000Y-113908750D01*
X150462000Y-114658000D01*
X151186250Y-114658000D01*
X151345000Y-114499250D01*
X151345000Y-114258691D01*
X151248327Y-114025302D01*
X151069699Y-113846673D01*
X150836310Y-113750000D01*
X150620750Y-113750000D01*
X150462000Y-113908750D01*
X150208000Y-113908750D01*
X150049250Y-113750000D01*
X149945000Y-113750000D01*
X149945000Y-113649802D01*
X150282802Y-113312000D01*
X150787198Y-113312000D01*
X151687173Y-114211975D01*
G36*
X154106057Y-108391883D02*
X153842808Y-108654673D01*
X153700162Y-108998201D01*
X153699902Y-109296876D01*
X153624698Y-109221673D01*
X153391309Y-109125000D01*
X153020750Y-109125000D01*
X152862000Y-109283750D01*
X152862000Y-109958000D01*
X153741250Y-109958000D01*
X153900000Y-109799250D01*
X153900000Y-109772162D01*
X154025000Y-109897380D01*
X154025000Y-112035000D01*
X154082852Y-112325839D01*
X154247599Y-112572401D01*
X154292599Y-112617401D01*
X154539161Y-112782148D01*
X154830000Y-112840000D01*
X156014353Y-112840000D01*
X156047298Y-113015087D01*
X156186370Y-113231211D01*
X156364233Y-113352740D01*
X156290761Y-113383173D01*
X156112133Y-113561802D01*
X156015460Y-113795191D01*
X156015460Y-114334250D01*
X156174210Y-114493000D01*
X157923000Y-114493000D01*
X157923000Y-114473000D01*
X158177000Y-114473000D01*
X158177000Y-114493000D01*
X159925790Y-114493000D01*
X159955000Y-114463790D01*
X159984210Y-114493000D01*
X161733000Y-114493000D01*
X161733000Y-114473000D01*
X161987000Y-114473000D01*
X161987000Y-114493000D01*
X162007000Y-114493000D01*
X162007000Y-114747000D01*
X161987000Y-114747000D01*
X161987000Y-114767000D01*
X161733000Y-114767000D01*
X161733000Y-114747000D01*
X159984210Y-114747000D01*
X159955000Y-114776210D01*
X159925790Y-114747000D01*
X158177000Y-114747000D01*
X158177000Y-114767000D01*
X157923000Y-114767000D01*
X157923000Y-114747000D01*
X156174210Y-114747000D01*
X156015460Y-114905750D01*
X156015460Y-115408000D01*
X155087606Y-115408000D01*
X152536928Y-112857322D01*
X152608000Y-112786250D01*
X152608000Y-112112000D01*
X152862000Y-112112000D01*
X152862000Y-112786250D01*
X153020750Y-112945000D01*
X153391309Y-112945000D01*
X153624698Y-112848327D01*
X153803327Y-112669699D01*
X153900000Y-112436310D01*
X153900000Y-112270750D01*
X153741250Y-112112000D01*
X152862000Y-112112000D01*
X152608000Y-112112000D01*
X152588000Y-112112000D01*
X152588000Y-112007440D01*
X153265000Y-112007440D01*
X153500317Y-111963162D01*
X153663743Y-111858000D01*
X153741250Y-111858000D01*
X153900000Y-111699250D01*
X153900000Y-111533690D01*
X153884732Y-111496829D01*
X153912440Y-111360000D01*
X153912440Y-110710000D01*
X153886081Y-110569914D01*
X153900000Y-110536310D01*
X153900000Y-110370750D01*
X153741250Y-110212000D01*
X153660949Y-110212000D01*
X153516890Y-110113569D01*
X153265000Y-110062560D01*
X152588000Y-110062560D01*
X152588000Y-109958000D01*
X152608000Y-109958000D01*
X152608000Y-109283750D01*
X152449250Y-109125000D01*
X152078691Y-109125000D01*
X151845302Y-109221673D01*
X151666673Y-109400301D01*
X151635912Y-109474565D01*
X151529090Y-109308559D01*
X151316890Y-109163569D01*
X151065000Y-109112560D01*
X150005000Y-109112560D01*
X149769683Y-109156838D01*
X149553559Y-109295910D01*
X149408569Y-109508110D01*
X149357560Y-109760000D01*
X149357560Y-110275000D01*
X149045000Y-110275000D01*
X149045000Y-110270750D01*
X148886250Y-110112000D01*
X148162000Y-110112000D01*
X148162000Y-110132000D01*
X147908000Y-110132000D01*
X147908000Y-110112000D01*
X147183750Y-110112000D01*
X147025000Y-110270750D01*
X147025000Y-110511309D01*
X147121673Y-110744698D01*
X147123043Y-110746068D01*
X147063569Y-110833110D01*
X147012560Y-111085000D01*
X147012560Y-111885000D01*
X147056838Y-112120317D01*
X147102826Y-112191785D01*
X147100162Y-112198201D01*
X147100095Y-112275000D01*
X147099802Y-112275000D01*
X146482440Y-111657638D01*
X146482440Y-111285000D01*
X146438162Y-111049683D01*
X146299090Y-110833559D01*
X146229289Y-110785866D01*
X146286441Y-110749090D01*
X146431431Y-110536890D01*
X146482440Y-110285000D01*
X146482440Y-109785000D01*
X146438162Y-109549683D01*
X146379611Y-109458691D01*
X147025000Y-109458691D01*
X147025000Y-109699250D01*
X147183750Y-109858000D01*
X147908000Y-109858000D01*
X147908000Y-109108750D01*
X148162000Y-109108750D01*
X148162000Y-109858000D01*
X148886250Y-109858000D01*
X149045000Y-109699250D01*
X149045000Y-109458691D01*
X148948327Y-109225302D01*
X148769699Y-109046673D01*
X148536310Y-108950000D01*
X148320750Y-108950000D01*
X148162000Y-109108750D01*
X147908000Y-109108750D01*
X147749250Y-108950000D01*
X147533690Y-108950000D01*
X147300301Y-109046673D01*
X147121673Y-109225302D01*
X147025000Y-109458691D01*
X146379611Y-109458691D01*
X146299090Y-109333559D01*
X146086890Y-109188569D01*
X145835000Y-109137560D01*
X144935000Y-109137560D01*
X144699683Y-109181838D01*
X144628620Y-109227566D01*
X144321799Y-109100162D01*
X143949833Y-109099838D01*
X143606057Y-109241883D01*
X143569024Y-109278852D01*
X143436890Y-109188569D01*
X143185000Y-109137560D01*
X142285000Y-109137560D01*
X142049683Y-109181838D01*
X141904905Y-109275000D01*
X141897376Y-109275000D01*
X141815327Y-109192808D01*
X141471799Y-109050162D01*
X141099833Y-109049838D01*
X140756057Y-109191883D01*
X140492808Y-109454673D01*
X140359796Y-109775000D01*
X138319884Y-109775000D01*
X138135000Y-109737560D01*
X137932440Y-109737560D01*
X137932440Y-109535000D01*
X137888162Y-109299683D01*
X137749090Y-109083559D01*
X137536890Y-108938569D01*
X137285000Y-108887560D01*
X136985000Y-108887560D01*
X136881329Y-108907067D01*
X136785000Y-108887560D01*
X136485000Y-108887560D01*
X136381329Y-108907067D01*
X136285000Y-108887560D01*
X135985000Y-108887560D01*
X135881329Y-108907067D01*
X135785000Y-108887560D01*
X135485000Y-108887560D01*
X135381329Y-108907067D01*
X135285000Y-108887560D01*
X134985000Y-108887560D01*
X134881329Y-108907067D01*
X134785000Y-108887560D01*
X134485000Y-108887560D01*
X134381329Y-108907067D01*
X134285000Y-108887560D01*
X133985000Y-108887560D01*
X133881329Y-108907067D01*
X133785000Y-108887560D01*
X133485000Y-108887560D01*
X133381329Y-108907067D01*
X133285000Y-108887560D01*
X132985000Y-108887560D01*
X132881329Y-108907067D01*
X132785000Y-108887560D01*
X132485000Y-108887560D01*
X132249683Y-108931838D01*
X132033559Y-109070910D01*
X131888569Y-109283110D01*
X131837560Y-109535000D01*
X131837560Y-109737560D01*
X131635000Y-109737560D01*
X131399683Y-109781838D01*
X131183559Y-109920910D01*
X131038569Y-110133110D01*
X130987560Y-110385000D01*
X130987560Y-110685000D01*
X131007067Y-110788671D01*
X130987560Y-110885000D01*
X130987560Y-111185000D01*
X131007067Y-111288671D01*
X130987560Y-111385000D01*
X130987560Y-111685000D01*
X131007067Y-111788671D01*
X130987560Y-111885000D01*
X130987560Y-112185000D01*
X131007067Y-112288671D01*
X131003153Y-112308000D01*
X129665959Y-112308000D01*
X129620839Y-112277852D01*
X129330000Y-112220000D01*
X129185408Y-112220000D01*
X129152702Y-112046183D01*
X129013630Y-111830059D01*
X128834610Y-111707740D01*
X128909239Y-111676827D01*
X129087867Y-111498198D01*
X129184540Y-111264809D01*
X129184540Y-110725750D01*
X129025790Y-110567000D01*
X127277000Y-110567000D01*
X127277000Y-110587000D01*
X127023000Y-110587000D01*
X127023000Y-110567000D01*
X127003000Y-110567000D01*
X127003000Y-110313000D01*
X127023000Y-110313000D01*
X127023000Y-109265250D01*
X127277000Y-109265250D01*
X127277000Y-110313000D01*
X129025790Y-110313000D01*
X129184540Y-110154250D01*
X129184540Y-109615191D01*
X129087867Y-109381802D01*
X128909239Y-109203173D01*
X128675850Y-109106500D01*
X127435750Y-109106500D01*
X127277000Y-109265250D01*
X127023000Y-109265250D01*
X126864250Y-109106500D01*
X125624150Y-109106500D01*
X125390761Y-109203173D01*
X125312000Y-109281934D01*
X125312000Y-108362000D01*
X154178380Y-108362000D01*
X154106057Y-108391883D01*
X154106057Y-108391883D01*
G37*
X154106057Y-108391883D02*
X153842808Y-108654673D01*
X153700162Y-108998201D01*
X153699902Y-109296876D01*
X153624698Y-109221673D01*
X153391309Y-109125000D01*
X153020750Y-109125000D01*
X152862000Y-109283750D01*
X152862000Y-109958000D01*
X153741250Y-109958000D01*
X153900000Y-109799250D01*
X153900000Y-109772162D01*
X154025000Y-109897380D01*
X154025000Y-112035000D01*
X154082852Y-112325839D01*
X154247599Y-112572401D01*
X154292599Y-112617401D01*
X154539161Y-112782148D01*
X154830000Y-112840000D01*
X156014353Y-112840000D01*
X156047298Y-113015087D01*
X156186370Y-113231211D01*
X156364233Y-113352740D01*
X156290761Y-113383173D01*
X156112133Y-113561802D01*
X156015460Y-113795191D01*
X156015460Y-114334250D01*
X156174210Y-114493000D01*
X157923000Y-114493000D01*
X157923000Y-114473000D01*
X158177000Y-114473000D01*
X158177000Y-114493000D01*
X159925790Y-114493000D01*
X159955000Y-114463790D01*
X159984210Y-114493000D01*
X161733000Y-114493000D01*
X161733000Y-114473000D01*
X161987000Y-114473000D01*
X161987000Y-114493000D01*
X162007000Y-114493000D01*
X162007000Y-114747000D01*
X161987000Y-114747000D01*
X161987000Y-114767000D01*
X161733000Y-114767000D01*
X161733000Y-114747000D01*
X159984210Y-114747000D01*
X159955000Y-114776210D01*
X159925790Y-114747000D01*
X158177000Y-114747000D01*
X158177000Y-114767000D01*
X157923000Y-114767000D01*
X157923000Y-114747000D01*
X156174210Y-114747000D01*
X156015460Y-114905750D01*
X156015460Y-115408000D01*
X155087606Y-115408000D01*
X152536928Y-112857322D01*
X152608000Y-112786250D01*
X152608000Y-112112000D01*
X152862000Y-112112000D01*
X152862000Y-112786250D01*
X153020750Y-112945000D01*
X153391309Y-112945000D01*
X153624698Y-112848327D01*
X153803327Y-112669699D01*
X153900000Y-112436310D01*
X153900000Y-112270750D01*
X153741250Y-112112000D01*
X152862000Y-112112000D01*
X152608000Y-112112000D01*
X152588000Y-112112000D01*
X152588000Y-112007440D01*
X153265000Y-112007440D01*
X153500317Y-111963162D01*
X153663743Y-111858000D01*
X153741250Y-111858000D01*
X153900000Y-111699250D01*
X153900000Y-111533690D01*
X153884732Y-111496829D01*
X153912440Y-111360000D01*
X153912440Y-110710000D01*
X153886081Y-110569914D01*
X153900000Y-110536310D01*
X153900000Y-110370750D01*
X153741250Y-110212000D01*
X153660949Y-110212000D01*
X153516890Y-110113569D01*
X153265000Y-110062560D01*
X152588000Y-110062560D01*
X152588000Y-109958000D01*
X152608000Y-109958000D01*
X152608000Y-109283750D01*
X152449250Y-109125000D01*
X152078691Y-109125000D01*
X151845302Y-109221673D01*
X151666673Y-109400301D01*
X151635912Y-109474565D01*
X151529090Y-109308559D01*
X151316890Y-109163569D01*
X151065000Y-109112560D01*
X150005000Y-109112560D01*
X149769683Y-109156838D01*
X149553559Y-109295910D01*
X149408569Y-109508110D01*
X149357560Y-109760000D01*
X149357560Y-110275000D01*
X149045000Y-110275000D01*
X149045000Y-110270750D01*
X148886250Y-110112000D01*
X148162000Y-110112000D01*
X148162000Y-110132000D01*
X147908000Y-110132000D01*
X147908000Y-110112000D01*
X147183750Y-110112000D01*
X147025000Y-110270750D01*
X147025000Y-110511309D01*
X147121673Y-110744698D01*
X147123043Y-110746068D01*
X147063569Y-110833110D01*
X147012560Y-111085000D01*
X147012560Y-111885000D01*
X147056838Y-112120317D01*
X147102826Y-112191785D01*
X147100162Y-112198201D01*
X147100095Y-112275000D01*
X147099802Y-112275000D01*
X146482440Y-111657638D01*
X146482440Y-111285000D01*
X146438162Y-111049683D01*
X146299090Y-110833559D01*
X146229289Y-110785866D01*
X146286441Y-110749090D01*
X146431431Y-110536890D01*
X146482440Y-110285000D01*
X146482440Y-109785000D01*
X146438162Y-109549683D01*
X146379611Y-109458691D01*
X147025000Y-109458691D01*
X147025000Y-109699250D01*
X147183750Y-109858000D01*
X147908000Y-109858000D01*
X147908000Y-109108750D01*
X148162000Y-109108750D01*
X148162000Y-109858000D01*
X148886250Y-109858000D01*
X149045000Y-109699250D01*
X149045000Y-109458691D01*
X148948327Y-109225302D01*
X148769699Y-109046673D01*
X148536310Y-108950000D01*
X148320750Y-108950000D01*
X148162000Y-109108750D01*
X147908000Y-109108750D01*
X147749250Y-108950000D01*
X147533690Y-108950000D01*
X147300301Y-109046673D01*
X147121673Y-109225302D01*
X147025000Y-109458691D01*
X146379611Y-109458691D01*
X146299090Y-109333559D01*
X146086890Y-109188569D01*
X145835000Y-109137560D01*
X144935000Y-109137560D01*
X144699683Y-109181838D01*
X144628620Y-109227566D01*
X144321799Y-109100162D01*
X143949833Y-109099838D01*
X143606057Y-109241883D01*
X143569024Y-109278852D01*
X143436890Y-109188569D01*
X143185000Y-109137560D01*
X142285000Y-109137560D01*
X142049683Y-109181838D01*
X141904905Y-109275000D01*
X141897376Y-109275000D01*
X141815327Y-109192808D01*
X141471799Y-109050162D01*
X141099833Y-109049838D01*
X140756057Y-109191883D01*
X140492808Y-109454673D01*
X140359796Y-109775000D01*
X138319884Y-109775000D01*
X138135000Y-109737560D01*
X137932440Y-109737560D01*
X137932440Y-109535000D01*
X137888162Y-109299683D01*
X137749090Y-109083559D01*
X137536890Y-108938569D01*
X137285000Y-108887560D01*
X136985000Y-108887560D01*
X136881329Y-108907067D01*
X136785000Y-108887560D01*
X136485000Y-108887560D01*
X136381329Y-108907067D01*
X136285000Y-108887560D01*
X135985000Y-108887560D01*
X135881329Y-108907067D01*
X135785000Y-108887560D01*
X135485000Y-108887560D01*
X135381329Y-108907067D01*
X135285000Y-108887560D01*
X134985000Y-108887560D01*
X134881329Y-108907067D01*
X134785000Y-108887560D01*
X134485000Y-108887560D01*
X134381329Y-108907067D01*
X134285000Y-108887560D01*
X133985000Y-108887560D01*
X133881329Y-108907067D01*
X133785000Y-108887560D01*
X133485000Y-108887560D01*
X133381329Y-108907067D01*
X133285000Y-108887560D01*
X132985000Y-108887560D01*
X132881329Y-108907067D01*
X132785000Y-108887560D01*
X132485000Y-108887560D01*
X132249683Y-108931838D01*
X132033559Y-109070910D01*
X131888569Y-109283110D01*
X131837560Y-109535000D01*
X131837560Y-109737560D01*
X131635000Y-109737560D01*
X131399683Y-109781838D01*
X131183559Y-109920910D01*
X131038569Y-110133110D01*
X130987560Y-110385000D01*
X130987560Y-110685000D01*
X131007067Y-110788671D01*
X130987560Y-110885000D01*
X130987560Y-111185000D01*
X131007067Y-111288671D01*
X130987560Y-111385000D01*
X130987560Y-111685000D01*
X131007067Y-111788671D01*
X130987560Y-111885000D01*
X130987560Y-112185000D01*
X131007067Y-112288671D01*
X131003153Y-112308000D01*
X129665959Y-112308000D01*
X129620839Y-112277852D01*
X129330000Y-112220000D01*
X129185408Y-112220000D01*
X129152702Y-112046183D01*
X129013630Y-111830059D01*
X128834610Y-111707740D01*
X128909239Y-111676827D01*
X129087867Y-111498198D01*
X129184540Y-111264809D01*
X129184540Y-110725750D01*
X129025790Y-110567000D01*
X127277000Y-110567000D01*
X127277000Y-110587000D01*
X127023000Y-110587000D01*
X127023000Y-110567000D01*
X127003000Y-110567000D01*
X127003000Y-110313000D01*
X127023000Y-110313000D01*
X127023000Y-109265250D01*
X127277000Y-109265250D01*
X127277000Y-110313000D01*
X129025790Y-110313000D01*
X129184540Y-110154250D01*
X129184540Y-109615191D01*
X129087867Y-109381802D01*
X128909239Y-109203173D01*
X128675850Y-109106500D01*
X127435750Y-109106500D01*
X127277000Y-109265250D01*
X127023000Y-109265250D01*
X126864250Y-109106500D01*
X125624150Y-109106500D01*
X125390761Y-109203173D01*
X125312000Y-109281934D01*
X125312000Y-108362000D01*
X154178380Y-108362000D01*
X154106057Y-108391883D01*
G36*
X141227567Y-101435222D02*
X140869675Y-101970845D01*
X140744000Y-102602655D01*
X140744000Y-102667345D01*
X140869675Y-103299155D01*
X141227567Y-103834778D01*
X141763190Y-104192670D01*
X142395000Y-104318345D01*
X142522999Y-104292884D01*
X142785000Y-104344999D01*
X143075839Y-104287148D01*
X143322401Y-104122401D01*
X143396446Y-104011585D01*
X143454910Y-104102441D01*
X143667110Y-104247431D01*
X143919000Y-104298440D01*
X145123638Y-104298440D01*
X146597599Y-105772401D01*
X146844161Y-105937148D01*
X147135000Y-105995000D01*
X149885000Y-105995000D01*
X150175839Y-105937148D01*
X150422401Y-105772401D01*
X150922401Y-105272401D01*
X150938083Y-105248931D01*
X150995317Y-105238162D01*
X151211441Y-105099090D01*
X151282563Y-104995000D01*
X151906614Y-104995000D01*
X152033110Y-105081431D01*
X152285000Y-105132440D01*
X153185000Y-105132440D01*
X153420317Y-105088162D01*
X153636441Y-104949090D01*
X153781431Y-104736890D01*
X153832440Y-104485000D01*
X153832440Y-103985000D01*
X153788162Y-103749683D01*
X153649090Y-103533559D01*
X153579289Y-103485866D01*
X153626123Y-103455729D01*
X154295197Y-104124803D01*
X154337211Y-104152666D01*
X154385000Y-104162000D01*
X156116487Y-104162000D01*
X156065460Y-104285191D01*
X156065460Y-104824250D01*
X156224210Y-104983000D01*
X157973000Y-104983000D01*
X157973000Y-104963000D01*
X158227000Y-104963000D01*
X158227000Y-104983000D01*
X159975790Y-104983000D01*
X160005000Y-104953790D01*
X160034210Y-104983000D01*
X161783000Y-104983000D01*
X161783000Y-104963000D01*
X162037000Y-104963000D01*
X162037000Y-104983000D01*
X162057000Y-104983000D01*
X162057000Y-105237000D01*
X162037000Y-105237000D01*
X162037000Y-105257000D01*
X161783000Y-105257000D01*
X161783000Y-105237000D01*
X160034210Y-105237000D01*
X160005000Y-105266210D01*
X159975790Y-105237000D01*
X158227000Y-105237000D01*
X158227000Y-105257000D01*
X157973000Y-105257000D01*
X157973000Y-105237000D01*
X156224210Y-105237000D01*
X156065460Y-105395750D01*
X156065460Y-105934809D01*
X156162133Y-106168198D01*
X156251934Y-106258000D01*
X125312000Y-106258000D01*
X125312000Y-104579335D01*
X125440761Y-104708097D01*
X125674150Y-104804770D01*
X126914250Y-104804770D01*
X127073000Y-104646020D01*
X127073000Y-103597000D01*
X127327000Y-103597000D01*
X127327000Y-104646020D01*
X127485750Y-104804770D01*
X128725850Y-104804770D01*
X128959239Y-104708097D01*
X129137867Y-104529468D01*
X129234540Y-104296079D01*
X129234540Y-103755750D01*
X129075790Y-103597000D01*
X127327000Y-103597000D01*
X127073000Y-103597000D01*
X127053000Y-103597000D01*
X127053000Y-103343000D01*
X127073000Y-103343000D01*
X127073000Y-103323000D01*
X127327000Y-103323000D01*
X127327000Y-103343000D01*
X129075790Y-103343000D01*
X129234540Y-103184250D01*
X129234540Y-102643921D01*
X129137867Y-102410532D01*
X128959239Y-102231903D01*
X128883340Y-102200464D01*
X129050981Y-102092590D01*
X129195971Y-101880390D01*
X129206011Y-101830813D01*
X129397599Y-102022401D01*
X129463385Y-102066357D01*
X129450162Y-102098201D01*
X129449838Y-102470167D01*
X129591883Y-102813943D01*
X129662666Y-102884850D01*
X129642808Y-102904673D01*
X129500162Y-103248201D01*
X129499838Y-103620167D01*
X129641883Y-103963943D01*
X129904673Y-104227192D01*
X130248201Y-104369838D01*
X130620167Y-104370162D01*
X130963943Y-104228117D01*
X131227192Y-103965327D01*
X131318680Y-103745000D01*
X131500116Y-103745000D01*
X131685000Y-103782440D01*
X131887560Y-103782440D01*
X131887560Y-103985000D01*
X131931838Y-104220317D01*
X132070910Y-104436441D01*
X132283110Y-104581431D01*
X132535000Y-104632440D01*
X132835000Y-104632440D01*
X132938671Y-104612933D01*
X133035000Y-104632440D01*
X133335000Y-104632440D01*
X133438671Y-104612933D01*
X133535000Y-104632440D01*
X133835000Y-104632440D01*
X133938671Y-104612933D01*
X134035000Y-104632440D01*
X134335000Y-104632440D01*
X134438671Y-104612933D01*
X134535000Y-104632440D01*
X134800089Y-104632440D01*
X134799838Y-104920167D01*
X134941883Y-105263943D01*
X135204673Y-105527192D01*
X135548201Y-105669838D01*
X135920167Y-105670162D01*
X136260413Y-105529576D01*
X136598201Y-105669838D01*
X136970167Y-105670162D01*
X137313943Y-105528117D01*
X137577192Y-105265327D01*
X137719838Y-104921799D01*
X137720162Y-104549833D01*
X137701200Y-104503941D01*
X137786441Y-104449090D01*
X137931431Y-104236890D01*
X137982440Y-103985000D01*
X137982440Y-103770000D01*
X138062002Y-103770000D01*
X138062002Y-103613252D01*
X138218750Y-103770000D01*
X138311309Y-103770000D01*
X138544698Y-103673327D01*
X138723327Y-103494699D01*
X138820000Y-103261310D01*
X138820000Y-103245000D01*
X139085000Y-103245000D01*
X139375839Y-103187148D01*
X139622401Y-103022401D01*
X141382802Y-101262000D01*
X141486812Y-101262000D01*
X141227567Y-101435222D01*
X141227567Y-101435222D01*
G37*
X141227567Y-101435222D02*
X140869675Y-101970845D01*
X140744000Y-102602655D01*
X140744000Y-102667345D01*
X140869675Y-103299155D01*
X141227567Y-103834778D01*
X141763190Y-104192670D01*
X142395000Y-104318345D01*
X142522999Y-104292884D01*
X142785000Y-104344999D01*
X143075839Y-104287148D01*
X143322401Y-104122401D01*
X143396446Y-104011585D01*
X143454910Y-104102441D01*
X143667110Y-104247431D01*
X143919000Y-104298440D01*
X145123638Y-104298440D01*
X146597599Y-105772401D01*
X146844161Y-105937148D01*
X147135000Y-105995000D01*
X149885000Y-105995000D01*
X150175839Y-105937148D01*
X150422401Y-105772401D01*
X150922401Y-105272401D01*
X150938083Y-105248931D01*
X150995317Y-105238162D01*
X151211441Y-105099090D01*
X151282563Y-104995000D01*
X151906614Y-104995000D01*
X152033110Y-105081431D01*
X152285000Y-105132440D01*
X153185000Y-105132440D01*
X153420317Y-105088162D01*
X153636441Y-104949090D01*
X153781431Y-104736890D01*
X153832440Y-104485000D01*
X153832440Y-103985000D01*
X153788162Y-103749683D01*
X153649090Y-103533559D01*
X153579289Y-103485866D01*
X153626123Y-103455729D01*
X154295197Y-104124803D01*
X154337211Y-104152666D01*
X154385000Y-104162000D01*
X156116487Y-104162000D01*
X156065460Y-104285191D01*
X156065460Y-104824250D01*
X156224210Y-104983000D01*
X157973000Y-104983000D01*
X157973000Y-104963000D01*
X158227000Y-104963000D01*
X158227000Y-104983000D01*
X159975790Y-104983000D01*
X160005000Y-104953790D01*
X160034210Y-104983000D01*
X161783000Y-104983000D01*
X161783000Y-104963000D01*
X162037000Y-104963000D01*
X162037000Y-104983000D01*
X162057000Y-104983000D01*
X162057000Y-105237000D01*
X162037000Y-105237000D01*
X162037000Y-105257000D01*
X161783000Y-105257000D01*
X161783000Y-105237000D01*
X160034210Y-105237000D01*
X160005000Y-105266210D01*
X159975790Y-105237000D01*
X158227000Y-105237000D01*
X158227000Y-105257000D01*
X157973000Y-105257000D01*
X157973000Y-105237000D01*
X156224210Y-105237000D01*
X156065460Y-105395750D01*
X156065460Y-105934809D01*
X156162133Y-106168198D01*
X156251934Y-106258000D01*
X125312000Y-106258000D01*
X125312000Y-104579335D01*
X125440761Y-104708097D01*
X125674150Y-104804770D01*
X126914250Y-104804770D01*
X127073000Y-104646020D01*
X127073000Y-103597000D01*
X127327000Y-103597000D01*
X127327000Y-104646020D01*
X127485750Y-104804770D01*
X128725850Y-104804770D01*
X128959239Y-104708097D01*
X129137867Y-104529468D01*
X129234540Y-104296079D01*
X129234540Y-103755750D01*
X129075790Y-103597000D01*
X127327000Y-103597000D01*
X127073000Y-103597000D01*
X127053000Y-103597000D01*
X127053000Y-103343000D01*
X127073000Y-103343000D01*
X127073000Y-103323000D01*
X127327000Y-103323000D01*
X127327000Y-103343000D01*
X129075790Y-103343000D01*
X129234540Y-103184250D01*
X129234540Y-102643921D01*
X129137867Y-102410532D01*
X128959239Y-102231903D01*
X128883340Y-102200464D01*
X129050981Y-102092590D01*
X129195971Y-101880390D01*
X129206011Y-101830813D01*
X129397599Y-102022401D01*
X129463385Y-102066357D01*
X129450162Y-102098201D01*
X129449838Y-102470167D01*
X129591883Y-102813943D01*
X129662666Y-102884850D01*
X129642808Y-102904673D01*
X129500162Y-103248201D01*
X129499838Y-103620167D01*
X129641883Y-103963943D01*
X129904673Y-104227192D01*
X130248201Y-104369838D01*
X130620167Y-104370162D01*
X130963943Y-104228117D01*
X131227192Y-103965327D01*
X131318680Y-103745000D01*
X131500116Y-103745000D01*
X131685000Y-103782440D01*
X131887560Y-103782440D01*
X131887560Y-103985000D01*
X131931838Y-104220317D01*
X132070910Y-104436441D01*
X132283110Y-104581431D01*
X132535000Y-104632440D01*
X132835000Y-104632440D01*
X132938671Y-104612933D01*
X133035000Y-104632440D01*
X133335000Y-104632440D01*
X133438671Y-104612933D01*
X133535000Y-104632440D01*
X133835000Y-104632440D01*
X133938671Y-104612933D01*
X134035000Y-104632440D01*
X134335000Y-104632440D01*
X134438671Y-104612933D01*
X134535000Y-104632440D01*
X134800089Y-104632440D01*
X134799838Y-104920167D01*
X134941883Y-105263943D01*
X135204673Y-105527192D01*
X135548201Y-105669838D01*
X135920167Y-105670162D01*
X136260413Y-105529576D01*
X136598201Y-105669838D01*
X136970167Y-105670162D01*
X137313943Y-105528117D01*
X137577192Y-105265327D01*
X137719838Y-104921799D01*
X137720162Y-104549833D01*
X137701200Y-104503941D01*
X137786441Y-104449090D01*
X137931431Y-104236890D01*
X137982440Y-103985000D01*
X137982440Y-103770000D01*
X138062002Y-103770000D01*
X138062002Y-103613252D01*
X138218750Y-103770000D01*
X138311309Y-103770000D01*
X138544698Y-103673327D01*
X138723327Y-103494699D01*
X138820000Y-103261310D01*
X138820000Y-103245000D01*
X139085000Y-103245000D01*
X139375839Y-103187148D01*
X139622401Y-103022401D01*
X141382802Y-101262000D01*
X141486812Y-101262000D01*
X141227567Y-101435222D01*
G36*
X146835000Y-101745000D02*
X147354340Y-101745000D01*
X147350301Y-101746673D01*
X147171673Y-101925302D01*
X147075000Y-102158691D01*
X147075000Y-102399250D01*
X147233750Y-102558000D01*
X147958000Y-102558000D01*
X147958000Y-102538000D01*
X148212000Y-102538000D01*
X148212000Y-102558000D01*
X148232000Y-102558000D01*
X148232000Y-102812000D01*
X148212000Y-102812000D01*
X148212000Y-102832000D01*
X147958000Y-102832000D01*
X147958000Y-102812000D01*
X147233750Y-102812000D01*
X147075000Y-102970750D01*
X147075000Y-103211309D01*
X147171673Y-103444698D01*
X147173043Y-103446068D01*
X147113569Y-103533110D01*
X147062560Y-103785000D01*
X147062560Y-104087758D01*
X146598440Y-103623638D01*
X146598440Y-101697945D01*
X146835000Y-101745000D01*
X146835000Y-101745000D01*
G37*
X146835000Y-101745000D02*
X147354340Y-101745000D01*
X147350301Y-101746673D01*
X147171673Y-101925302D01*
X147075000Y-102158691D01*
X147075000Y-102399250D01*
X147233750Y-102558000D01*
X147958000Y-102558000D01*
X147958000Y-102538000D01*
X148212000Y-102538000D01*
X148212000Y-102558000D01*
X148232000Y-102558000D01*
X148232000Y-102812000D01*
X148212000Y-102812000D01*
X148212000Y-102832000D01*
X147958000Y-102832000D01*
X147958000Y-102812000D01*
X147233750Y-102812000D01*
X147075000Y-102970750D01*
X147075000Y-103211309D01*
X147171673Y-103444698D01*
X147173043Y-103446068D01*
X147113569Y-103533110D01*
X147062560Y-103785000D01*
X147062560Y-104087758D01*
X146598440Y-103623638D01*
X146598440Y-101697945D01*
X146835000Y-101745000D01*
G36*
X151737173Y-102161975D02*
X151688569Y-102233110D01*
X151637560Y-102485000D01*
X151637560Y-102985000D01*
X151681838Y-103220317D01*
X151820910Y-103436441D01*
X151877343Y-103475000D01*
X151306486Y-103475000D01*
X151395000Y-103261309D01*
X151395000Y-103020750D01*
X151236250Y-102862000D01*
X150512000Y-102862000D01*
X150512000Y-102882000D01*
X150258000Y-102882000D01*
X150258000Y-102862000D01*
X150238000Y-102862000D01*
X150238000Y-102608000D01*
X150258000Y-102608000D01*
X150258000Y-101858750D01*
X150512000Y-101858750D01*
X150512000Y-102608000D01*
X151236250Y-102608000D01*
X151395000Y-102449250D01*
X151395000Y-102208691D01*
X151298327Y-101975302D01*
X151119699Y-101796673D01*
X150886310Y-101700000D01*
X150670750Y-101700000D01*
X150512000Y-101858750D01*
X150258000Y-101858750D01*
X150099250Y-101700000D01*
X149995000Y-101700000D01*
X149995000Y-101599802D01*
X150332802Y-101262000D01*
X150837198Y-101262000D01*
X151737173Y-102161975D01*
X151737173Y-102161975D01*
G37*
X151737173Y-102161975D02*
X151688569Y-102233110D01*
X151637560Y-102485000D01*
X151637560Y-102985000D01*
X151681838Y-103220317D01*
X151820910Y-103436441D01*
X151877343Y-103475000D01*
X151306486Y-103475000D01*
X151395000Y-103261309D01*
X151395000Y-103020750D01*
X151236250Y-102862000D01*
X150512000Y-102862000D01*
X150512000Y-102882000D01*
X150258000Y-102882000D01*
X150258000Y-102862000D01*
X150238000Y-102862000D01*
X150238000Y-102608000D01*
X150258000Y-102608000D01*
X150258000Y-101858750D01*
X150512000Y-101858750D01*
X150512000Y-102608000D01*
X151236250Y-102608000D01*
X151395000Y-102449250D01*
X151395000Y-102208691D01*
X151298327Y-101975302D01*
X151119699Y-101796673D01*
X150886310Y-101700000D01*
X150670750Y-101700000D01*
X150512000Y-101858750D01*
X150258000Y-101858750D01*
X150099250Y-101700000D01*
X149995000Y-101700000D01*
X149995000Y-101599802D01*
X150332802Y-101262000D01*
X150837198Y-101262000D01*
X151737173Y-102161975D01*
G36*
X154156057Y-96341883D02*
X153892808Y-96604673D01*
X153750162Y-96948201D01*
X153749902Y-97246876D01*
X153674698Y-97171673D01*
X153441309Y-97075000D01*
X153070750Y-97075000D01*
X152912000Y-97233750D01*
X152912000Y-97908000D01*
X153791250Y-97908000D01*
X153950000Y-97749250D01*
X153950000Y-97722162D01*
X154075000Y-97847380D01*
X154075000Y-99985000D01*
X154132852Y-100275839D01*
X154297599Y-100522401D01*
X154342599Y-100567401D01*
X154589161Y-100732148D01*
X154880000Y-100790000D01*
X156064353Y-100790000D01*
X156097298Y-100965087D01*
X156236370Y-101181211D01*
X156414233Y-101302740D01*
X156340761Y-101333173D01*
X156162133Y-101511802D01*
X156065460Y-101745191D01*
X156065460Y-102284250D01*
X156224210Y-102443000D01*
X157973000Y-102443000D01*
X157973000Y-102423000D01*
X158227000Y-102423000D01*
X158227000Y-102443000D01*
X159975790Y-102443000D01*
X160005000Y-102413790D01*
X160034210Y-102443000D01*
X161783000Y-102443000D01*
X161783000Y-102423000D01*
X162037000Y-102423000D01*
X162037000Y-102443000D01*
X162057000Y-102443000D01*
X162057000Y-102697000D01*
X162037000Y-102697000D01*
X162037000Y-102717000D01*
X161783000Y-102717000D01*
X161783000Y-102697000D01*
X160034210Y-102697000D01*
X160005000Y-102726210D01*
X159975790Y-102697000D01*
X158227000Y-102697000D01*
X158227000Y-102717000D01*
X157973000Y-102717000D01*
X157973000Y-102697000D01*
X156224210Y-102697000D01*
X156065460Y-102855750D01*
X156065460Y-103358000D01*
X155137606Y-103358000D01*
X152586928Y-100807322D01*
X152658000Y-100736250D01*
X152658000Y-100062000D01*
X152912000Y-100062000D01*
X152912000Y-100736250D01*
X153070750Y-100895000D01*
X153441309Y-100895000D01*
X153674698Y-100798327D01*
X153853327Y-100619699D01*
X153950000Y-100386310D01*
X153950000Y-100220750D01*
X153791250Y-100062000D01*
X152912000Y-100062000D01*
X152658000Y-100062000D01*
X152638000Y-100062000D01*
X152638000Y-99957440D01*
X153315000Y-99957440D01*
X153550317Y-99913162D01*
X153713743Y-99808000D01*
X153791250Y-99808000D01*
X153950000Y-99649250D01*
X153950000Y-99483690D01*
X153934732Y-99446829D01*
X153962440Y-99310000D01*
X153962440Y-98660000D01*
X153936081Y-98519914D01*
X153950000Y-98486310D01*
X153950000Y-98320750D01*
X153791250Y-98162000D01*
X153710949Y-98162000D01*
X153566890Y-98063569D01*
X153315000Y-98012560D01*
X152638000Y-98012560D01*
X152638000Y-97908000D01*
X152658000Y-97908000D01*
X152658000Y-97233750D01*
X152499250Y-97075000D01*
X152128691Y-97075000D01*
X151895302Y-97171673D01*
X151716673Y-97350301D01*
X151685912Y-97424565D01*
X151579090Y-97258559D01*
X151366890Y-97113569D01*
X151115000Y-97062560D01*
X150055000Y-97062560D01*
X149819683Y-97106838D01*
X149603559Y-97245910D01*
X149458569Y-97458110D01*
X149407560Y-97710000D01*
X149407560Y-98225000D01*
X149095000Y-98225000D01*
X149095000Y-98220750D01*
X148936250Y-98062000D01*
X148212000Y-98062000D01*
X148212000Y-98082000D01*
X147958000Y-98082000D01*
X147958000Y-98062000D01*
X147233750Y-98062000D01*
X147075000Y-98220750D01*
X147075000Y-98461309D01*
X147171673Y-98694698D01*
X147173043Y-98696068D01*
X147113569Y-98783110D01*
X147062560Y-99035000D01*
X147062560Y-99835000D01*
X147106838Y-100070317D01*
X147152826Y-100141785D01*
X147150162Y-100148201D01*
X147150095Y-100225000D01*
X147149802Y-100225000D01*
X146532440Y-99607638D01*
X146532440Y-99235000D01*
X146488162Y-98999683D01*
X146349090Y-98783559D01*
X146279289Y-98735866D01*
X146336441Y-98699090D01*
X146481431Y-98486890D01*
X146532440Y-98235000D01*
X146532440Y-97735000D01*
X146488162Y-97499683D01*
X146429611Y-97408691D01*
X147075000Y-97408691D01*
X147075000Y-97649250D01*
X147233750Y-97808000D01*
X147958000Y-97808000D01*
X147958000Y-97058750D01*
X148212000Y-97058750D01*
X148212000Y-97808000D01*
X148936250Y-97808000D01*
X149095000Y-97649250D01*
X149095000Y-97408691D01*
X148998327Y-97175302D01*
X148819699Y-96996673D01*
X148586310Y-96900000D01*
X148370750Y-96900000D01*
X148212000Y-97058750D01*
X147958000Y-97058750D01*
X147799250Y-96900000D01*
X147583690Y-96900000D01*
X147350301Y-96996673D01*
X147171673Y-97175302D01*
X147075000Y-97408691D01*
X146429611Y-97408691D01*
X146349090Y-97283559D01*
X146136890Y-97138569D01*
X145885000Y-97087560D01*
X144985000Y-97087560D01*
X144749683Y-97131838D01*
X144678620Y-97177566D01*
X144371799Y-97050162D01*
X143999833Y-97049838D01*
X143656057Y-97191883D01*
X143619024Y-97228852D01*
X143486890Y-97138569D01*
X143235000Y-97087560D01*
X142335000Y-97087560D01*
X142099683Y-97131838D01*
X141954905Y-97225000D01*
X141947376Y-97225000D01*
X141865327Y-97142808D01*
X141521799Y-97000162D01*
X141149833Y-96999838D01*
X140806057Y-97141883D01*
X140542808Y-97404673D01*
X140409796Y-97725000D01*
X138369884Y-97725000D01*
X138185000Y-97687560D01*
X137982440Y-97687560D01*
X137982440Y-97485000D01*
X137938162Y-97249683D01*
X137799090Y-97033559D01*
X137586890Y-96888569D01*
X137335000Y-96837560D01*
X137035000Y-96837560D01*
X136931329Y-96857067D01*
X136835000Y-96837560D01*
X136535000Y-96837560D01*
X136431329Y-96857067D01*
X136335000Y-96837560D01*
X136035000Y-96837560D01*
X135931329Y-96857067D01*
X135835000Y-96837560D01*
X135535000Y-96837560D01*
X135431329Y-96857067D01*
X135335000Y-96837560D01*
X135035000Y-96837560D01*
X134931329Y-96857067D01*
X134835000Y-96837560D01*
X134535000Y-96837560D01*
X134431329Y-96857067D01*
X134335000Y-96837560D01*
X134035000Y-96837560D01*
X133931329Y-96857067D01*
X133835000Y-96837560D01*
X133535000Y-96837560D01*
X133431329Y-96857067D01*
X133335000Y-96837560D01*
X133035000Y-96837560D01*
X132931329Y-96857067D01*
X132835000Y-96837560D01*
X132535000Y-96837560D01*
X132299683Y-96881838D01*
X132083559Y-97020910D01*
X131938569Y-97233110D01*
X131887560Y-97485000D01*
X131887560Y-97687560D01*
X131685000Y-97687560D01*
X131449683Y-97731838D01*
X131233559Y-97870910D01*
X131088569Y-98083110D01*
X131037560Y-98335000D01*
X131037560Y-98635000D01*
X131057067Y-98738671D01*
X131037560Y-98835000D01*
X131037560Y-99135000D01*
X131057067Y-99238671D01*
X131037560Y-99335000D01*
X131037560Y-99635000D01*
X131057067Y-99738671D01*
X131037560Y-99835000D01*
X131037560Y-100135000D01*
X131057067Y-100238671D01*
X131053153Y-100258000D01*
X129715959Y-100258000D01*
X129670839Y-100227852D01*
X129380000Y-100170000D01*
X129235408Y-100170000D01*
X129202702Y-99996183D01*
X129063630Y-99780059D01*
X128884610Y-99657740D01*
X128959239Y-99626827D01*
X129137867Y-99448198D01*
X129234540Y-99214809D01*
X129234540Y-98675750D01*
X129075790Y-98517000D01*
X127327000Y-98517000D01*
X127327000Y-98537000D01*
X127073000Y-98537000D01*
X127073000Y-98517000D01*
X127053000Y-98517000D01*
X127053000Y-98263000D01*
X127073000Y-98263000D01*
X127073000Y-97215250D01*
X127327000Y-97215250D01*
X127327000Y-98263000D01*
X129075790Y-98263000D01*
X129234540Y-98104250D01*
X129234540Y-97565191D01*
X129137867Y-97331802D01*
X128959239Y-97153173D01*
X128725850Y-97056500D01*
X127485750Y-97056500D01*
X127327000Y-97215250D01*
X127073000Y-97215250D01*
X126914250Y-97056500D01*
X125674150Y-97056500D01*
X125440761Y-97153173D01*
X125362000Y-97231934D01*
X125362000Y-96312000D01*
X154228380Y-96312000D01*
X154156057Y-96341883D01*
X154156057Y-96341883D01*
G37*
X154156057Y-96341883D02*
X153892808Y-96604673D01*
X153750162Y-96948201D01*
X153749902Y-97246876D01*
X153674698Y-97171673D01*
X153441309Y-97075000D01*
X153070750Y-97075000D01*
X152912000Y-97233750D01*
X152912000Y-97908000D01*
X153791250Y-97908000D01*
X153950000Y-97749250D01*
X153950000Y-97722162D01*
X154075000Y-97847380D01*
X154075000Y-99985000D01*
X154132852Y-100275839D01*
X154297599Y-100522401D01*
X154342599Y-100567401D01*
X154589161Y-100732148D01*
X154880000Y-100790000D01*
X156064353Y-100790000D01*
X156097298Y-100965087D01*
X156236370Y-101181211D01*
X156414233Y-101302740D01*
X156340761Y-101333173D01*
X156162133Y-101511802D01*
X156065460Y-101745191D01*
X156065460Y-102284250D01*
X156224210Y-102443000D01*
X157973000Y-102443000D01*
X157973000Y-102423000D01*
X158227000Y-102423000D01*
X158227000Y-102443000D01*
X159975790Y-102443000D01*
X160005000Y-102413790D01*
X160034210Y-102443000D01*
X161783000Y-102443000D01*
X161783000Y-102423000D01*
X162037000Y-102423000D01*
X162037000Y-102443000D01*
X162057000Y-102443000D01*
X162057000Y-102697000D01*
X162037000Y-102697000D01*
X162037000Y-102717000D01*
X161783000Y-102717000D01*
X161783000Y-102697000D01*
X160034210Y-102697000D01*
X160005000Y-102726210D01*
X159975790Y-102697000D01*
X158227000Y-102697000D01*
X158227000Y-102717000D01*
X157973000Y-102717000D01*
X157973000Y-102697000D01*
X156224210Y-102697000D01*
X156065460Y-102855750D01*
X156065460Y-103358000D01*
X155137606Y-103358000D01*
X152586928Y-100807322D01*
X152658000Y-100736250D01*
X152658000Y-100062000D01*
X152912000Y-100062000D01*
X152912000Y-100736250D01*
X153070750Y-100895000D01*
X153441309Y-100895000D01*
X153674698Y-100798327D01*
X153853327Y-100619699D01*
X153950000Y-100386310D01*
X153950000Y-100220750D01*
X153791250Y-100062000D01*
X152912000Y-100062000D01*
X152658000Y-100062000D01*
X152638000Y-100062000D01*
X152638000Y-99957440D01*
X153315000Y-99957440D01*
X153550317Y-99913162D01*
X153713743Y-99808000D01*
X153791250Y-99808000D01*
X153950000Y-99649250D01*
X153950000Y-99483690D01*
X153934732Y-99446829D01*
X153962440Y-99310000D01*
X153962440Y-98660000D01*
X153936081Y-98519914D01*
X153950000Y-98486310D01*
X153950000Y-98320750D01*
X153791250Y-98162000D01*
X153710949Y-98162000D01*
X153566890Y-98063569D01*
X153315000Y-98012560D01*
X152638000Y-98012560D01*
X152638000Y-97908000D01*
X152658000Y-97908000D01*
X152658000Y-97233750D01*
X152499250Y-97075000D01*
X152128691Y-97075000D01*
X151895302Y-97171673D01*
X151716673Y-97350301D01*
X151685912Y-97424565D01*
X151579090Y-97258559D01*
X151366890Y-97113569D01*
X151115000Y-97062560D01*
X150055000Y-97062560D01*
X149819683Y-97106838D01*
X149603559Y-97245910D01*
X149458569Y-97458110D01*
X149407560Y-97710000D01*
X149407560Y-98225000D01*
X149095000Y-98225000D01*
X149095000Y-98220750D01*
X148936250Y-98062000D01*
X148212000Y-98062000D01*
X148212000Y-98082000D01*
X147958000Y-98082000D01*
X147958000Y-98062000D01*
X147233750Y-98062000D01*
X147075000Y-98220750D01*
X147075000Y-98461309D01*
X147171673Y-98694698D01*
X147173043Y-98696068D01*
X147113569Y-98783110D01*
X147062560Y-99035000D01*
X147062560Y-99835000D01*
X147106838Y-100070317D01*
X147152826Y-100141785D01*
X147150162Y-100148201D01*
X147150095Y-100225000D01*
X147149802Y-100225000D01*
X146532440Y-99607638D01*
X146532440Y-99235000D01*
X146488162Y-98999683D01*
X146349090Y-98783559D01*
X146279289Y-98735866D01*
X146336441Y-98699090D01*
X146481431Y-98486890D01*
X146532440Y-98235000D01*
X146532440Y-97735000D01*
X146488162Y-97499683D01*
X146429611Y-97408691D01*
X147075000Y-97408691D01*
X147075000Y-97649250D01*
X147233750Y-97808000D01*
X147958000Y-97808000D01*
X147958000Y-97058750D01*
X148212000Y-97058750D01*
X148212000Y-97808000D01*
X148936250Y-97808000D01*
X149095000Y-97649250D01*
X149095000Y-97408691D01*
X148998327Y-97175302D01*
X148819699Y-96996673D01*
X148586310Y-96900000D01*
X148370750Y-96900000D01*
X148212000Y-97058750D01*
X147958000Y-97058750D01*
X147799250Y-96900000D01*
X147583690Y-96900000D01*
X147350301Y-96996673D01*
X147171673Y-97175302D01*
X147075000Y-97408691D01*
X146429611Y-97408691D01*
X146349090Y-97283559D01*
X146136890Y-97138569D01*
X145885000Y-97087560D01*
X144985000Y-97087560D01*
X144749683Y-97131838D01*
X144678620Y-97177566D01*
X144371799Y-97050162D01*
X143999833Y-97049838D01*
X143656057Y-97191883D01*
X143619024Y-97228852D01*
X143486890Y-97138569D01*
X143235000Y-97087560D01*
X142335000Y-97087560D01*
X142099683Y-97131838D01*
X141954905Y-97225000D01*
X141947376Y-97225000D01*
X141865327Y-97142808D01*
X141521799Y-97000162D01*
X141149833Y-96999838D01*
X140806057Y-97141883D01*
X140542808Y-97404673D01*
X140409796Y-97725000D01*
X138369884Y-97725000D01*
X138185000Y-97687560D01*
X137982440Y-97687560D01*
X137982440Y-97485000D01*
X137938162Y-97249683D01*
X137799090Y-97033559D01*
X137586890Y-96888569D01*
X137335000Y-96837560D01*
X137035000Y-96837560D01*
X136931329Y-96857067D01*
X136835000Y-96837560D01*
X136535000Y-96837560D01*
X136431329Y-96857067D01*
X136335000Y-96837560D01*
X136035000Y-96837560D01*
X135931329Y-96857067D01*
X135835000Y-96837560D01*
X135535000Y-96837560D01*
X135431329Y-96857067D01*
X135335000Y-96837560D01*
X135035000Y-96837560D01*
X134931329Y-96857067D01*
X134835000Y-96837560D01*
X134535000Y-96837560D01*
X134431329Y-96857067D01*
X134335000Y-96837560D01*
X134035000Y-96837560D01*
X133931329Y-96857067D01*
X133835000Y-96837560D01*
X133535000Y-96837560D01*
X133431329Y-96857067D01*
X133335000Y-96837560D01*
X133035000Y-96837560D01*
X132931329Y-96857067D01*
X132835000Y-96837560D01*
X132535000Y-96837560D01*
X132299683Y-96881838D01*
X132083559Y-97020910D01*
X131938569Y-97233110D01*
X131887560Y-97485000D01*
X131887560Y-97687560D01*
X131685000Y-97687560D01*
X131449683Y-97731838D01*
X131233559Y-97870910D01*
X131088569Y-98083110D01*
X131037560Y-98335000D01*
X131037560Y-98635000D01*
X131057067Y-98738671D01*
X131037560Y-98835000D01*
X131037560Y-99135000D01*
X131057067Y-99238671D01*
X131037560Y-99335000D01*
X131037560Y-99635000D01*
X131057067Y-99738671D01*
X131037560Y-99835000D01*
X131037560Y-100135000D01*
X131057067Y-100238671D01*
X131053153Y-100258000D01*
X129715959Y-100258000D01*
X129670839Y-100227852D01*
X129380000Y-100170000D01*
X129235408Y-100170000D01*
X129202702Y-99996183D01*
X129063630Y-99780059D01*
X128884610Y-99657740D01*
X128959239Y-99626827D01*
X129137867Y-99448198D01*
X129234540Y-99214809D01*
X129234540Y-98675750D01*
X129075790Y-98517000D01*
X127327000Y-98517000D01*
X127327000Y-98537000D01*
X127073000Y-98537000D01*
X127073000Y-98517000D01*
X127053000Y-98517000D01*
X127053000Y-98263000D01*
X127073000Y-98263000D01*
X127073000Y-97215250D01*
X127327000Y-97215250D01*
X127327000Y-98263000D01*
X129075790Y-98263000D01*
X129234540Y-98104250D01*
X129234540Y-97565191D01*
X129137867Y-97331802D01*
X128959239Y-97153173D01*
X128725850Y-97056500D01*
X127485750Y-97056500D01*
X127327000Y-97215250D01*
X127073000Y-97215250D01*
X126914250Y-97056500D01*
X125674150Y-97056500D01*
X125440761Y-97153173D01*
X125362000Y-97231934D01*
X125362000Y-96312000D01*
X154228380Y-96312000D01*
X154156057Y-96341883D01*
G36*
X141227567Y-89435222D02*
X140869675Y-89970845D01*
X140744000Y-90602655D01*
X140744000Y-90667345D01*
X140869675Y-91299155D01*
X141227567Y-91834778D01*
X141763190Y-92192670D01*
X142395000Y-92318345D01*
X142522999Y-92292884D01*
X142785000Y-92344999D01*
X143075839Y-92287148D01*
X143322401Y-92122401D01*
X143396446Y-92011585D01*
X143454910Y-92102441D01*
X143667110Y-92247431D01*
X143919000Y-92298440D01*
X145123638Y-92298440D01*
X146597599Y-93772401D01*
X146844161Y-93937148D01*
X147135000Y-93995000D01*
X149885000Y-93995000D01*
X150175839Y-93937148D01*
X150422401Y-93772401D01*
X150922401Y-93272401D01*
X150938083Y-93248931D01*
X150995317Y-93238162D01*
X151211441Y-93099090D01*
X151282563Y-92995000D01*
X151906614Y-92995000D01*
X152033110Y-93081431D01*
X152285000Y-93132440D01*
X153185000Y-93132440D01*
X153420317Y-93088162D01*
X153636441Y-92949090D01*
X153781431Y-92736890D01*
X153832440Y-92485000D01*
X153832440Y-91985000D01*
X153788162Y-91749683D01*
X153649090Y-91533559D01*
X153579289Y-91485866D01*
X153626123Y-91455729D01*
X154295197Y-92124803D01*
X154337211Y-92152666D01*
X154385000Y-92162000D01*
X156116487Y-92162000D01*
X156065460Y-92285191D01*
X156065460Y-92824250D01*
X156224210Y-92983000D01*
X157973000Y-92983000D01*
X157973000Y-92963000D01*
X158227000Y-92963000D01*
X158227000Y-92983000D01*
X159975790Y-92983000D01*
X160005000Y-92953790D01*
X160034210Y-92983000D01*
X161783000Y-92983000D01*
X161783000Y-92963000D01*
X162037000Y-92963000D01*
X162037000Y-92983000D01*
X162057000Y-92983000D01*
X162057000Y-93237000D01*
X162037000Y-93237000D01*
X162037000Y-93257000D01*
X161783000Y-93257000D01*
X161783000Y-93237000D01*
X160034210Y-93237000D01*
X160005000Y-93266210D01*
X159975790Y-93237000D01*
X158227000Y-93237000D01*
X158227000Y-93257000D01*
X157973000Y-93257000D01*
X157973000Y-93237000D01*
X156224210Y-93237000D01*
X156065460Y-93395750D01*
X156065460Y-93934809D01*
X156162133Y-94168198D01*
X156251934Y-94258000D01*
X125312000Y-94258000D01*
X125312000Y-92579335D01*
X125440761Y-92708097D01*
X125674150Y-92804770D01*
X126914250Y-92804770D01*
X127073000Y-92646020D01*
X127073000Y-91597000D01*
X127327000Y-91597000D01*
X127327000Y-92646020D01*
X127485750Y-92804770D01*
X128725850Y-92804770D01*
X128959239Y-92708097D01*
X129137867Y-92529468D01*
X129234540Y-92296079D01*
X129234540Y-91755750D01*
X129075790Y-91597000D01*
X127327000Y-91597000D01*
X127073000Y-91597000D01*
X127053000Y-91597000D01*
X127053000Y-91343000D01*
X127073000Y-91343000D01*
X127073000Y-91323000D01*
X127327000Y-91323000D01*
X127327000Y-91343000D01*
X129075790Y-91343000D01*
X129234540Y-91184250D01*
X129234540Y-90643921D01*
X129137867Y-90410532D01*
X128959239Y-90231903D01*
X128883340Y-90200464D01*
X129050981Y-90092590D01*
X129195971Y-89880390D01*
X129206011Y-89830813D01*
X129397599Y-90022401D01*
X129463385Y-90066357D01*
X129450162Y-90098201D01*
X129449838Y-90470167D01*
X129591883Y-90813943D01*
X129662666Y-90884850D01*
X129642808Y-90904673D01*
X129500162Y-91248201D01*
X129499838Y-91620167D01*
X129641883Y-91963943D01*
X129904673Y-92227192D01*
X130248201Y-92369838D01*
X130620167Y-92370162D01*
X130963943Y-92228117D01*
X131227192Y-91965327D01*
X131318680Y-91745000D01*
X131500116Y-91745000D01*
X131685000Y-91782440D01*
X131887560Y-91782440D01*
X131887560Y-91985000D01*
X131931838Y-92220317D01*
X132070910Y-92436441D01*
X132283110Y-92581431D01*
X132535000Y-92632440D01*
X132835000Y-92632440D01*
X132938671Y-92612933D01*
X133035000Y-92632440D01*
X133335000Y-92632440D01*
X133438671Y-92612933D01*
X133535000Y-92632440D01*
X133835000Y-92632440D01*
X133938671Y-92612933D01*
X134035000Y-92632440D01*
X134335000Y-92632440D01*
X134438671Y-92612933D01*
X134535000Y-92632440D01*
X134800089Y-92632440D01*
X134799838Y-92920167D01*
X134941883Y-93263943D01*
X135204673Y-93527192D01*
X135548201Y-93669838D01*
X135920167Y-93670162D01*
X136260413Y-93529576D01*
X136598201Y-93669838D01*
X136970167Y-93670162D01*
X137313943Y-93528117D01*
X137577192Y-93265327D01*
X137719838Y-92921799D01*
X137720162Y-92549833D01*
X137701200Y-92503941D01*
X137786441Y-92449090D01*
X137931431Y-92236890D01*
X137982440Y-91985000D01*
X137982440Y-91770000D01*
X138062002Y-91770000D01*
X138062002Y-91613252D01*
X138218750Y-91770000D01*
X138311309Y-91770000D01*
X138544698Y-91673327D01*
X138723327Y-91494699D01*
X138820000Y-91261310D01*
X138820000Y-91245000D01*
X139085000Y-91245000D01*
X139375839Y-91187148D01*
X139622401Y-91022401D01*
X141382802Y-89262000D01*
X141486812Y-89262000D01*
X141227567Y-89435222D01*
X141227567Y-89435222D01*
G37*
X141227567Y-89435222D02*
X140869675Y-89970845D01*
X140744000Y-90602655D01*
X140744000Y-90667345D01*
X140869675Y-91299155D01*
X141227567Y-91834778D01*
X141763190Y-92192670D01*
X142395000Y-92318345D01*
X142522999Y-92292884D01*
X142785000Y-92344999D01*
X143075839Y-92287148D01*
X143322401Y-92122401D01*
X143396446Y-92011585D01*
X143454910Y-92102441D01*
X143667110Y-92247431D01*
X143919000Y-92298440D01*
X145123638Y-92298440D01*
X146597599Y-93772401D01*
X146844161Y-93937148D01*
X147135000Y-93995000D01*
X149885000Y-93995000D01*
X150175839Y-93937148D01*
X150422401Y-93772401D01*
X150922401Y-93272401D01*
X150938083Y-93248931D01*
X150995317Y-93238162D01*
X151211441Y-93099090D01*
X151282563Y-92995000D01*
X151906614Y-92995000D01*
X152033110Y-93081431D01*
X152285000Y-93132440D01*
X153185000Y-93132440D01*
X153420317Y-93088162D01*
X153636441Y-92949090D01*
X153781431Y-92736890D01*
X153832440Y-92485000D01*
X153832440Y-91985000D01*
X153788162Y-91749683D01*
X153649090Y-91533559D01*
X153579289Y-91485866D01*
X153626123Y-91455729D01*
X154295197Y-92124803D01*
X154337211Y-92152666D01*
X154385000Y-92162000D01*
X156116487Y-92162000D01*
X156065460Y-92285191D01*
X156065460Y-92824250D01*
X156224210Y-92983000D01*
X157973000Y-92983000D01*
X157973000Y-92963000D01*
X158227000Y-92963000D01*
X158227000Y-92983000D01*
X159975790Y-92983000D01*
X160005000Y-92953790D01*
X160034210Y-92983000D01*
X161783000Y-92983000D01*
X161783000Y-92963000D01*
X162037000Y-92963000D01*
X162037000Y-92983000D01*
X162057000Y-92983000D01*
X162057000Y-93237000D01*
X162037000Y-93237000D01*
X162037000Y-93257000D01*
X161783000Y-93257000D01*
X161783000Y-93237000D01*
X160034210Y-93237000D01*
X160005000Y-93266210D01*
X159975790Y-93237000D01*
X158227000Y-93237000D01*
X158227000Y-93257000D01*
X157973000Y-93257000D01*
X157973000Y-93237000D01*
X156224210Y-93237000D01*
X156065460Y-93395750D01*
X156065460Y-93934809D01*
X156162133Y-94168198D01*
X156251934Y-94258000D01*
X125312000Y-94258000D01*
X125312000Y-92579335D01*
X125440761Y-92708097D01*
X125674150Y-92804770D01*
X126914250Y-92804770D01*
X127073000Y-92646020D01*
X127073000Y-91597000D01*
X127327000Y-91597000D01*
X127327000Y-92646020D01*
X127485750Y-92804770D01*
X128725850Y-92804770D01*
X128959239Y-92708097D01*
X129137867Y-92529468D01*
X129234540Y-92296079D01*
X129234540Y-91755750D01*
X129075790Y-91597000D01*
X127327000Y-91597000D01*
X127073000Y-91597000D01*
X127053000Y-91597000D01*
X127053000Y-91343000D01*
X127073000Y-91343000D01*
X127073000Y-91323000D01*
X127327000Y-91323000D01*
X127327000Y-91343000D01*
X129075790Y-91343000D01*
X129234540Y-91184250D01*
X129234540Y-90643921D01*
X129137867Y-90410532D01*
X128959239Y-90231903D01*
X128883340Y-90200464D01*
X129050981Y-90092590D01*
X129195971Y-89880390D01*
X129206011Y-89830813D01*
X129397599Y-90022401D01*
X129463385Y-90066357D01*
X129450162Y-90098201D01*
X129449838Y-90470167D01*
X129591883Y-90813943D01*
X129662666Y-90884850D01*
X129642808Y-90904673D01*
X129500162Y-91248201D01*
X129499838Y-91620167D01*
X129641883Y-91963943D01*
X129904673Y-92227192D01*
X130248201Y-92369838D01*
X130620167Y-92370162D01*
X130963943Y-92228117D01*
X131227192Y-91965327D01*
X131318680Y-91745000D01*
X131500116Y-91745000D01*
X131685000Y-91782440D01*
X131887560Y-91782440D01*
X131887560Y-91985000D01*
X131931838Y-92220317D01*
X132070910Y-92436441D01*
X132283110Y-92581431D01*
X132535000Y-92632440D01*
X132835000Y-92632440D01*
X132938671Y-92612933D01*
X133035000Y-92632440D01*
X133335000Y-92632440D01*
X133438671Y-92612933D01*
X133535000Y-92632440D01*
X133835000Y-92632440D01*
X133938671Y-92612933D01*
X134035000Y-92632440D01*
X134335000Y-92632440D01*
X134438671Y-92612933D01*
X134535000Y-92632440D01*
X134800089Y-92632440D01*
X134799838Y-92920167D01*
X134941883Y-93263943D01*
X135204673Y-93527192D01*
X135548201Y-93669838D01*
X135920167Y-93670162D01*
X136260413Y-93529576D01*
X136598201Y-93669838D01*
X136970167Y-93670162D01*
X137313943Y-93528117D01*
X137577192Y-93265327D01*
X137719838Y-92921799D01*
X137720162Y-92549833D01*
X137701200Y-92503941D01*
X137786441Y-92449090D01*
X137931431Y-92236890D01*
X137982440Y-91985000D01*
X137982440Y-91770000D01*
X138062002Y-91770000D01*
X138062002Y-91613252D01*
X138218750Y-91770000D01*
X138311309Y-91770000D01*
X138544698Y-91673327D01*
X138723327Y-91494699D01*
X138820000Y-91261310D01*
X138820000Y-91245000D01*
X139085000Y-91245000D01*
X139375839Y-91187148D01*
X139622401Y-91022401D01*
X141382802Y-89262000D01*
X141486812Y-89262000D01*
X141227567Y-89435222D01*
G36*
X146835000Y-89745000D02*
X147354340Y-89745000D01*
X147350301Y-89746673D01*
X147171673Y-89925302D01*
X147075000Y-90158691D01*
X147075000Y-90399250D01*
X147233750Y-90558000D01*
X147958000Y-90558000D01*
X147958000Y-90538000D01*
X148212000Y-90538000D01*
X148212000Y-90558000D01*
X148232000Y-90558000D01*
X148232000Y-90812000D01*
X148212000Y-90812000D01*
X148212000Y-90832000D01*
X147958000Y-90832000D01*
X147958000Y-90812000D01*
X147233750Y-90812000D01*
X147075000Y-90970750D01*
X147075000Y-91211309D01*
X147171673Y-91444698D01*
X147173043Y-91446068D01*
X147113569Y-91533110D01*
X147062560Y-91785000D01*
X147062560Y-92087758D01*
X146598440Y-91623638D01*
X146598440Y-89697945D01*
X146835000Y-89745000D01*
X146835000Y-89745000D01*
G37*
X146835000Y-89745000D02*
X147354340Y-89745000D01*
X147350301Y-89746673D01*
X147171673Y-89925302D01*
X147075000Y-90158691D01*
X147075000Y-90399250D01*
X147233750Y-90558000D01*
X147958000Y-90558000D01*
X147958000Y-90538000D01*
X148212000Y-90538000D01*
X148212000Y-90558000D01*
X148232000Y-90558000D01*
X148232000Y-90812000D01*
X148212000Y-90812000D01*
X148212000Y-90832000D01*
X147958000Y-90832000D01*
X147958000Y-90812000D01*
X147233750Y-90812000D01*
X147075000Y-90970750D01*
X147075000Y-91211309D01*
X147171673Y-91444698D01*
X147173043Y-91446068D01*
X147113569Y-91533110D01*
X147062560Y-91785000D01*
X147062560Y-92087758D01*
X146598440Y-91623638D01*
X146598440Y-89697945D01*
X146835000Y-89745000D01*
G36*
X151737173Y-90161975D02*
X151688569Y-90233110D01*
X151637560Y-90485000D01*
X151637560Y-90985000D01*
X151681838Y-91220317D01*
X151820910Y-91436441D01*
X151877343Y-91475000D01*
X151306486Y-91475000D01*
X151395000Y-91261309D01*
X151395000Y-91020750D01*
X151236250Y-90862000D01*
X150512000Y-90862000D01*
X150512000Y-90882000D01*
X150258000Y-90882000D01*
X150258000Y-90862000D01*
X150238000Y-90862000D01*
X150238000Y-90608000D01*
X150258000Y-90608000D01*
X150258000Y-89858750D01*
X150512000Y-89858750D01*
X150512000Y-90608000D01*
X151236250Y-90608000D01*
X151395000Y-90449250D01*
X151395000Y-90208691D01*
X151298327Y-89975302D01*
X151119699Y-89796673D01*
X150886310Y-89700000D01*
X150670750Y-89700000D01*
X150512000Y-89858750D01*
X150258000Y-89858750D01*
X150099250Y-89700000D01*
X149995000Y-89700000D01*
X149995000Y-89599802D01*
X150332802Y-89262000D01*
X150837198Y-89262000D01*
X151737173Y-90161975D01*
X151737173Y-90161975D01*
G37*
X151737173Y-90161975D02*
X151688569Y-90233110D01*
X151637560Y-90485000D01*
X151637560Y-90985000D01*
X151681838Y-91220317D01*
X151820910Y-91436441D01*
X151877343Y-91475000D01*
X151306486Y-91475000D01*
X151395000Y-91261309D01*
X151395000Y-91020750D01*
X151236250Y-90862000D01*
X150512000Y-90862000D01*
X150512000Y-90882000D01*
X150258000Y-90882000D01*
X150258000Y-90862000D01*
X150238000Y-90862000D01*
X150238000Y-90608000D01*
X150258000Y-90608000D01*
X150258000Y-89858750D01*
X150512000Y-89858750D01*
X150512000Y-90608000D01*
X151236250Y-90608000D01*
X151395000Y-90449250D01*
X151395000Y-90208691D01*
X151298327Y-89975302D01*
X151119699Y-89796673D01*
X150886310Y-89700000D01*
X150670750Y-89700000D01*
X150512000Y-89858750D01*
X150258000Y-89858750D01*
X150099250Y-89700000D01*
X149995000Y-89700000D01*
X149995000Y-89599802D01*
X150332802Y-89262000D01*
X150837198Y-89262000D01*
X151737173Y-90161975D01*
G36*
X154156057Y-84341883D02*
X153892808Y-84604673D01*
X153750162Y-84948201D01*
X153749902Y-85246876D01*
X153674698Y-85171673D01*
X153441309Y-85075000D01*
X153070750Y-85075000D01*
X152912000Y-85233750D01*
X152912000Y-85908000D01*
X153791250Y-85908000D01*
X153950000Y-85749250D01*
X153950000Y-85722162D01*
X154075000Y-85847380D01*
X154075000Y-87985000D01*
X154132852Y-88275839D01*
X154297599Y-88522401D01*
X154342599Y-88567401D01*
X154589161Y-88732148D01*
X154880000Y-88790000D01*
X156064353Y-88790000D01*
X156097298Y-88965087D01*
X156236370Y-89181211D01*
X156414233Y-89302740D01*
X156340761Y-89333173D01*
X156162133Y-89511802D01*
X156065460Y-89745191D01*
X156065460Y-90284250D01*
X156224210Y-90443000D01*
X157973000Y-90443000D01*
X157973000Y-90423000D01*
X158227000Y-90423000D01*
X158227000Y-90443000D01*
X159975790Y-90443000D01*
X160005000Y-90413790D01*
X160034210Y-90443000D01*
X161783000Y-90443000D01*
X161783000Y-90423000D01*
X162037000Y-90423000D01*
X162037000Y-90443000D01*
X162057000Y-90443000D01*
X162057000Y-90697000D01*
X162037000Y-90697000D01*
X162037000Y-90717000D01*
X161783000Y-90717000D01*
X161783000Y-90697000D01*
X160034210Y-90697000D01*
X160005000Y-90726210D01*
X159975790Y-90697000D01*
X158227000Y-90697000D01*
X158227000Y-90717000D01*
X157973000Y-90717000D01*
X157973000Y-90697000D01*
X156224210Y-90697000D01*
X156065460Y-90855750D01*
X156065460Y-91358000D01*
X155137606Y-91358000D01*
X152586928Y-88807322D01*
X152658000Y-88736250D01*
X152658000Y-88062000D01*
X152912000Y-88062000D01*
X152912000Y-88736250D01*
X153070750Y-88895000D01*
X153441309Y-88895000D01*
X153674698Y-88798327D01*
X153853327Y-88619699D01*
X153950000Y-88386310D01*
X153950000Y-88220750D01*
X153791250Y-88062000D01*
X152912000Y-88062000D01*
X152658000Y-88062000D01*
X152638000Y-88062000D01*
X152638000Y-87957440D01*
X153315000Y-87957440D01*
X153550317Y-87913162D01*
X153713743Y-87808000D01*
X153791250Y-87808000D01*
X153950000Y-87649250D01*
X153950000Y-87483690D01*
X153934732Y-87446829D01*
X153962440Y-87310000D01*
X153962440Y-86660000D01*
X153936081Y-86519914D01*
X153950000Y-86486310D01*
X153950000Y-86320750D01*
X153791250Y-86162000D01*
X153710949Y-86162000D01*
X153566890Y-86063569D01*
X153315000Y-86012560D01*
X152638000Y-86012560D01*
X152638000Y-85908000D01*
X152658000Y-85908000D01*
X152658000Y-85233750D01*
X152499250Y-85075000D01*
X152128691Y-85075000D01*
X151895302Y-85171673D01*
X151716673Y-85350301D01*
X151685912Y-85424565D01*
X151579090Y-85258559D01*
X151366890Y-85113569D01*
X151115000Y-85062560D01*
X150055000Y-85062560D01*
X149819683Y-85106838D01*
X149603559Y-85245910D01*
X149458569Y-85458110D01*
X149407560Y-85710000D01*
X149407560Y-86225000D01*
X149095000Y-86225000D01*
X149095000Y-86220750D01*
X148936250Y-86062000D01*
X148212000Y-86062000D01*
X148212000Y-86082000D01*
X147958000Y-86082000D01*
X147958000Y-86062000D01*
X147233750Y-86062000D01*
X147075000Y-86220750D01*
X147075000Y-86461309D01*
X147171673Y-86694698D01*
X147173043Y-86696068D01*
X147113569Y-86783110D01*
X147062560Y-87035000D01*
X147062560Y-87835000D01*
X147106838Y-88070317D01*
X147152826Y-88141785D01*
X147150162Y-88148201D01*
X147150095Y-88225000D01*
X147149802Y-88225000D01*
X146532440Y-87607638D01*
X146532440Y-87235000D01*
X146488162Y-86999683D01*
X146349090Y-86783559D01*
X146279289Y-86735866D01*
X146336441Y-86699090D01*
X146481431Y-86486890D01*
X146532440Y-86235000D01*
X146532440Y-85735000D01*
X146488162Y-85499683D01*
X146429611Y-85408691D01*
X147075000Y-85408691D01*
X147075000Y-85649250D01*
X147233750Y-85808000D01*
X147958000Y-85808000D01*
X147958000Y-85058750D01*
X148212000Y-85058750D01*
X148212000Y-85808000D01*
X148936250Y-85808000D01*
X149095000Y-85649250D01*
X149095000Y-85408691D01*
X148998327Y-85175302D01*
X148819699Y-84996673D01*
X148586310Y-84900000D01*
X148370750Y-84900000D01*
X148212000Y-85058750D01*
X147958000Y-85058750D01*
X147799250Y-84900000D01*
X147583690Y-84900000D01*
X147350301Y-84996673D01*
X147171673Y-85175302D01*
X147075000Y-85408691D01*
X146429611Y-85408691D01*
X146349090Y-85283559D01*
X146136890Y-85138569D01*
X145885000Y-85087560D01*
X144985000Y-85087560D01*
X144749683Y-85131838D01*
X144678620Y-85177566D01*
X144371799Y-85050162D01*
X143999833Y-85049838D01*
X143656057Y-85191883D01*
X143619024Y-85228852D01*
X143486890Y-85138569D01*
X143235000Y-85087560D01*
X142335000Y-85087560D01*
X142099683Y-85131838D01*
X141954905Y-85225000D01*
X141947376Y-85225000D01*
X141865327Y-85142808D01*
X141521799Y-85000162D01*
X141149833Y-84999838D01*
X140806057Y-85141883D01*
X140542808Y-85404673D01*
X140409796Y-85725000D01*
X138369884Y-85725000D01*
X138185000Y-85687560D01*
X137982440Y-85687560D01*
X137982440Y-85485000D01*
X137938162Y-85249683D01*
X137799090Y-85033559D01*
X137586890Y-84888569D01*
X137335000Y-84837560D01*
X137035000Y-84837560D01*
X136931329Y-84857067D01*
X136835000Y-84837560D01*
X136535000Y-84837560D01*
X136431329Y-84857067D01*
X136335000Y-84837560D01*
X136035000Y-84837560D01*
X135931329Y-84857067D01*
X135835000Y-84837560D01*
X135535000Y-84837560D01*
X135431329Y-84857067D01*
X135335000Y-84837560D01*
X135035000Y-84837560D01*
X134931329Y-84857067D01*
X134835000Y-84837560D01*
X134535000Y-84837560D01*
X134431329Y-84857067D01*
X134335000Y-84837560D01*
X134035000Y-84837560D01*
X133931329Y-84857067D01*
X133835000Y-84837560D01*
X133535000Y-84837560D01*
X133431329Y-84857067D01*
X133335000Y-84837560D01*
X133035000Y-84837560D01*
X132931329Y-84857067D01*
X132835000Y-84837560D01*
X132535000Y-84837560D01*
X132299683Y-84881838D01*
X132083559Y-85020910D01*
X131938569Y-85233110D01*
X131887560Y-85485000D01*
X131887560Y-85687560D01*
X131685000Y-85687560D01*
X131449683Y-85731838D01*
X131233559Y-85870910D01*
X131088569Y-86083110D01*
X131037560Y-86335000D01*
X131037560Y-86635000D01*
X131057067Y-86738671D01*
X131037560Y-86835000D01*
X131037560Y-87135000D01*
X131057067Y-87238671D01*
X131037560Y-87335000D01*
X131037560Y-87635000D01*
X131057067Y-87738671D01*
X131037560Y-87835000D01*
X131037560Y-88135000D01*
X131057067Y-88238671D01*
X131053153Y-88258000D01*
X129715959Y-88258000D01*
X129670839Y-88227852D01*
X129380000Y-88170000D01*
X129235408Y-88170000D01*
X129202702Y-87996183D01*
X129063630Y-87780059D01*
X128884610Y-87657740D01*
X128959239Y-87626827D01*
X129137867Y-87448198D01*
X129234540Y-87214809D01*
X129234540Y-86675750D01*
X129075790Y-86517000D01*
X127327000Y-86517000D01*
X127327000Y-86537000D01*
X127073000Y-86537000D01*
X127073000Y-86517000D01*
X127053000Y-86517000D01*
X127053000Y-86263000D01*
X127073000Y-86263000D01*
X127073000Y-85215250D01*
X127327000Y-85215250D01*
X127327000Y-86263000D01*
X129075790Y-86263000D01*
X129234540Y-86104250D01*
X129234540Y-85565191D01*
X129137867Y-85331802D01*
X128959239Y-85153173D01*
X128725850Y-85056500D01*
X127485750Y-85056500D01*
X127327000Y-85215250D01*
X127073000Y-85215250D01*
X126914250Y-85056500D01*
X125674150Y-85056500D01*
X125440761Y-85153173D01*
X125362000Y-85231934D01*
X125362000Y-84312000D01*
X154228380Y-84312000D01*
X154156057Y-84341883D01*
X154156057Y-84341883D01*
G37*
X154156057Y-84341883D02*
X153892808Y-84604673D01*
X153750162Y-84948201D01*
X153749902Y-85246876D01*
X153674698Y-85171673D01*
X153441309Y-85075000D01*
X153070750Y-85075000D01*
X152912000Y-85233750D01*
X152912000Y-85908000D01*
X153791250Y-85908000D01*
X153950000Y-85749250D01*
X153950000Y-85722162D01*
X154075000Y-85847380D01*
X154075000Y-87985000D01*
X154132852Y-88275839D01*
X154297599Y-88522401D01*
X154342599Y-88567401D01*
X154589161Y-88732148D01*
X154880000Y-88790000D01*
X156064353Y-88790000D01*
X156097298Y-88965087D01*
X156236370Y-89181211D01*
X156414233Y-89302740D01*
X156340761Y-89333173D01*
X156162133Y-89511802D01*
X156065460Y-89745191D01*
X156065460Y-90284250D01*
X156224210Y-90443000D01*
X157973000Y-90443000D01*
X157973000Y-90423000D01*
X158227000Y-90423000D01*
X158227000Y-90443000D01*
X159975790Y-90443000D01*
X160005000Y-90413790D01*
X160034210Y-90443000D01*
X161783000Y-90443000D01*
X161783000Y-90423000D01*
X162037000Y-90423000D01*
X162037000Y-90443000D01*
X162057000Y-90443000D01*
X162057000Y-90697000D01*
X162037000Y-90697000D01*
X162037000Y-90717000D01*
X161783000Y-90717000D01*
X161783000Y-90697000D01*
X160034210Y-90697000D01*
X160005000Y-90726210D01*
X159975790Y-90697000D01*
X158227000Y-90697000D01*
X158227000Y-90717000D01*
X157973000Y-90717000D01*
X157973000Y-90697000D01*
X156224210Y-90697000D01*
X156065460Y-90855750D01*
X156065460Y-91358000D01*
X155137606Y-91358000D01*
X152586928Y-88807322D01*
X152658000Y-88736250D01*
X152658000Y-88062000D01*
X152912000Y-88062000D01*
X152912000Y-88736250D01*
X153070750Y-88895000D01*
X153441309Y-88895000D01*
X153674698Y-88798327D01*
X153853327Y-88619699D01*
X153950000Y-88386310D01*
X153950000Y-88220750D01*
X153791250Y-88062000D01*
X152912000Y-88062000D01*
X152658000Y-88062000D01*
X152638000Y-88062000D01*
X152638000Y-87957440D01*
X153315000Y-87957440D01*
X153550317Y-87913162D01*
X153713743Y-87808000D01*
X153791250Y-87808000D01*
X153950000Y-87649250D01*
X153950000Y-87483690D01*
X153934732Y-87446829D01*
X153962440Y-87310000D01*
X153962440Y-86660000D01*
X153936081Y-86519914D01*
X153950000Y-86486310D01*
X153950000Y-86320750D01*
X153791250Y-86162000D01*
X153710949Y-86162000D01*
X153566890Y-86063569D01*
X153315000Y-86012560D01*
X152638000Y-86012560D01*
X152638000Y-85908000D01*
X152658000Y-85908000D01*
X152658000Y-85233750D01*
X152499250Y-85075000D01*
X152128691Y-85075000D01*
X151895302Y-85171673D01*
X151716673Y-85350301D01*
X151685912Y-85424565D01*
X151579090Y-85258559D01*
X151366890Y-85113569D01*
X151115000Y-85062560D01*
X150055000Y-85062560D01*
X149819683Y-85106838D01*
X149603559Y-85245910D01*
X149458569Y-85458110D01*
X149407560Y-85710000D01*
X149407560Y-86225000D01*
X149095000Y-86225000D01*
X149095000Y-86220750D01*
X148936250Y-86062000D01*
X148212000Y-86062000D01*
X148212000Y-86082000D01*
X147958000Y-86082000D01*
X147958000Y-86062000D01*
X147233750Y-86062000D01*
X147075000Y-86220750D01*
X147075000Y-86461309D01*
X147171673Y-86694698D01*
X147173043Y-86696068D01*
X147113569Y-86783110D01*
X147062560Y-87035000D01*
X147062560Y-87835000D01*
X147106838Y-88070317D01*
X147152826Y-88141785D01*
X147150162Y-88148201D01*
X147150095Y-88225000D01*
X147149802Y-88225000D01*
X146532440Y-87607638D01*
X146532440Y-87235000D01*
X146488162Y-86999683D01*
X146349090Y-86783559D01*
X146279289Y-86735866D01*
X146336441Y-86699090D01*
X146481431Y-86486890D01*
X146532440Y-86235000D01*
X146532440Y-85735000D01*
X146488162Y-85499683D01*
X146429611Y-85408691D01*
X147075000Y-85408691D01*
X147075000Y-85649250D01*
X147233750Y-85808000D01*
X147958000Y-85808000D01*
X147958000Y-85058750D01*
X148212000Y-85058750D01*
X148212000Y-85808000D01*
X148936250Y-85808000D01*
X149095000Y-85649250D01*
X149095000Y-85408691D01*
X148998327Y-85175302D01*
X148819699Y-84996673D01*
X148586310Y-84900000D01*
X148370750Y-84900000D01*
X148212000Y-85058750D01*
X147958000Y-85058750D01*
X147799250Y-84900000D01*
X147583690Y-84900000D01*
X147350301Y-84996673D01*
X147171673Y-85175302D01*
X147075000Y-85408691D01*
X146429611Y-85408691D01*
X146349090Y-85283559D01*
X146136890Y-85138569D01*
X145885000Y-85087560D01*
X144985000Y-85087560D01*
X144749683Y-85131838D01*
X144678620Y-85177566D01*
X144371799Y-85050162D01*
X143999833Y-85049838D01*
X143656057Y-85191883D01*
X143619024Y-85228852D01*
X143486890Y-85138569D01*
X143235000Y-85087560D01*
X142335000Y-85087560D01*
X142099683Y-85131838D01*
X141954905Y-85225000D01*
X141947376Y-85225000D01*
X141865327Y-85142808D01*
X141521799Y-85000162D01*
X141149833Y-84999838D01*
X140806057Y-85141883D01*
X140542808Y-85404673D01*
X140409796Y-85725000D01*
X138369884Y-85725000D01*
X138185000Y-85687560D01*
X137982440Y-85687560D01*
X137982440Y-85485000D01*
X137938162Y-85249683D01*
X137799090Y-85033559D01*
X137586890Y-84888569D01*
X137335000Y-84837560D01*
X137035000Y-84837560D01*
X136931329Y-84857067D01*
X136835000Y-84837560D01*
X136535000Y-84837560D01*
X136431329Y-84857067D01*
X136335000Y-84837560D01*
X136035000Y-84837560D01*
X135931329Y-84857067D01*
X135835000Y-84837560D01*
X135535000Y-84837560D01*
X135431329Y-84857067D01*
X135335000Y-84837560D01*
X135035000Y-84837560D01*
X134931329Y-84857067D01*
X134835000Y-84837560D01*
X134535000Y-84837560D01*
X134431329Y-84857067D01*
X134335000Y-84837560D01*
X134035000Y-84837560D01*
X133931329Y-84857067D01*
X133835000Y-84837560D01*
X133535000Y-84837560D01*
X133431329Y-84857067D01*
X133335000Y-84837560D01*
X133035000Y-84837560D01*
X132931329Y-84857067D01*
X132835000Y-84837560D01*
X132535000Y-84837560D01*
X132299683Y-84881838D01*
X132083559Y-85020910D01*
X131938569Y-85233110D01*
X131887560Y-85485000D01*
X131887560Y-85687560D01*
X131685000Y-85687560D01*
X131449683Y-85731838D01*
X131233559Y-85870910D01*
X131088569Y-86083110D01*
X131037560Y-86335000D01*
X131037560Y-86635000D01*
X131057067Y-86738671D01*
X131037560Y-86835000D01*
X131037560Y-87135000D01*
X131057067Y-87238671D01*
X131037560Y-87335000D01*
X131037560Y-87635000D01*
X131057067Y-87738671D01*
X131037560Y-87835000D01*
X131037560Y-88135000D01*
X131057067Y-88238671D01*
X131053153Y-88258000D01*
X129715959Y-88258000D01*
X129670839Y-88227852D01*
X129380000Y-88170000D01*
X129235408Y-88170000D01*
X129202702Y-87996183D01*
X129063630Y-87780059D01*
X128884610Y-87657740D01*
X128959239Y-87626827D01*
X129137867Y-87448198D01*
X129234540Y-87214809D01*
X129234540Y-86675750D01*
X129075790Y-86517000D01*
X127327000Y-86517000D01*
X127327000Y-86537000D01*
X127073000Y-86537000D01*
X127073000Y-86517000D01*
X127053000Y-86517000D01*
X127053000Y-86263000D01*
X127073000Y-86263000D01*
X127073000Y-85215250D01*
X127327000Y-85215250D01*
X127327000Y-86263000D01*
X129075790Y-86263000D01*
X129234540Y-86104250D01*
X129234540Y-85565191D01*
X129137867Y-85331802D01*
X128959239Y-85153173D01*
X128725850Y-85056500D01*
X127485750Y-85056500D01*
X127327000Y-85215250D01*
X127073000Y-85215250D01*
X126914250Y-85056500D01*
X125674150Y-85056500D01*
X125440761Y-85153173D01*
X125362000Y-85231934D01*
X125362000Y-84312000D01*
X154228380Y-84312000D01*
X154156057Y-84341883D01*
G36*
X141227567Y-77435222D02*
X140869675Y-77970845D01*
X140744000Y-78602655D01*
X140744000Y-78667345D01*
X140869675Y-79299155D01*
X141227567Y-79834778D01*
X141763190Y-80192670D01*
X142395000Y-80318345D01*
X142522999Y-80292884D01*
X142785000Y-80344999D01*
X143075839Y-80287148D01*
X143322401Y-80122401D01*
X143396446Y-80011585D01*
X143454910Y-80102441D01*
X143667110Y-80247431D01*
X143919000Y-80298440D01*
X145123638Y-80298440D01*
X146597599Y-81772401D01*
X146844161Y-81937148D01*
X147135000Y-81995000D01*
X149885000Y-81995000D01*
X150175839Y-81937148D01*
X150422401Y-81772401D01*
X150922401Y-81272401D01*
X150938083Y-81248931D01*
X150995317Y-81238162D01*
X151211441Y-81099090D01*
X151282563Y-80995000D01*
X151906614Y-80995000D01*
X152033110Y-81081431D01*
X152285000Y-81132440D01*
X153185000Y-81132440D01*
X153420317Y-81088162D01*
X153636441Y-80949090D01*
X153781431Y-80736890D01*
X153832440Y-80485000D01*
X153832440Y-79985000D01*
X153788162Y-79749683D01*
X153649090Y-79533559D01*
X153579289Y-79485866D01*
X153626123Y-79455729D01*
X154295197Y-80124803D01*
X154337211Y-80152666D01*
X154385000Y-80162000D01*
X156116487Y-80162000D01*
X156065460Y-80285191D01*
X156065460Y-80824250D01*
X156224210Y-80983000D01*
X157973000Y-80983000D01*
X157973000Y-80963000D01*
X158227000Y-80963000D01*
X158227000Y-80983000D01*
X159975790Y-80983000D01*
X160005000Y-80953790D01*
X160034210Y-80983000D01*
X161783000Y-80983000D01*
X161783000Y-80963000D01*
X162037000Y-80963000D01*
X162037000Y-80983000D01*
X162057000Y-80983000D01*
X162057000Y-81237000D01*
X162037000Y-81237000D01*
X162037000Y-81257000D01*
X161783000Y-81257000D01*
X161783000Y-81237000D01*
X160034210Y-81237000D01*
X160005000Y-81266210D01*
X159975790Y-81237000D01*
X158227000Y-81237000D01*
X158227000Y-81257000D01*
X157973000Y-81257000D01*
X157973000Y-81237000D01*
X156224210Y-81237000D01*
X156065460Y-81395750D01*
X156065460Y-81934809D01*
X156162133Y-82168198D01*
X156251934Y-82258000D01*
X125312000Y-82258000D01*
X125312000Y-80579335D01*
X125440761Y-80708097D01*
X125674150Y-80804770D01*
X126914250Y-80804770D01*
X127073000Y-80646020D01*
X127073000Y-79597000D01*
X127327000Y-79597000D01*
X127327000Y-80646020D01*
X127485750Y-80804770D01*
X128725850Y-80804770D01*
X128959239Y-80708097D01*
X129137867Y-80529468D01*
X129234540Y-80296079D01*
X129234540Y-79755750D01*
X129075790Y-79597000D01*
X127327000Y-79597000D01*
X127073000Y-79597000D01*
X127053000Y-79597000D01*
X127053000Y-79343000D01*
X127073000Y-79343000D01*
X127073000Y-79323000D01*
X127327000Y-79323000D01*
X127327000Y-79343000D01*
X129075790Y-79343000D01*
X129234540Y-79184250D01*
X129234540Y-78643921D01*
X129137867Y-78410532D01*
X128959239Y-78231903D01*
X128883340Y-78200464D01*
X129050981Y-78092590D01*
X129195971Y-77880390D01*
X129206011Y-77830813D01*
X129397599Y-78022401D01*
X129463385Y-78066357D01*
X129450162Y-78098201D01*
X129449838Y-78470167D01*
X129591883Y-78813943D01*
X129662666Y-78884850D01*
X129642808Y-78904673D01*
X129500162Y-79248201D01*
X129499838Y-79620167D01*
X129641883Y-79963943D01*
X129904673Y-80227192D01*
X130248201Y-80369838D01*
X130620167Y-80370162D01*
X130963943Y-80228117D01*
X131227192Y-79965327D01*
X131318680Y-79745000D01*
X131500116Y-79745000D01*
X131685000Y-79782440D01*
X131887560Y-79782440D01*
X131887560Y-79985000D01*
X131931838Y-80220317D01*
X132070910Y-80436441D01*
X132283110Y-80581431D01*
X132535000Y-80632440D01*
X132835000Y-80632440D01*
X132938671Y-80612933D01*
X133035000Y-80632440D01*
X133335000Y-80632440D01*
X133438671Y-80612933D01*
X133535000Y-80632440D01*
X133835000Y-80632440D01*
X133938671Y-80612933D01*
X134035000Y-80632440D01*
X134335000Y-80632440D01*
X134438671Y-80612933D01*
X134535000Y-80632440D01*
X134800089Y-80632440D01*
X134799838Y-80920167D01*
X134941883Y-81263943D01*
X135204673Y-81527192D01*
X135548201Y-81669838D01*
X135920167Y-81670162D01*
X136260413Y-81529576D01*
X136598201Y-81669838D01*
X136970167Y-81670162D01*
X137313943Y-81528117D01*
X137577192Y-81265327D01*
X137719838Y-80921799D01*
X137720162Y-80549833D01*
X137701200Y-80503941D01*
X137786441Y-80449090D01*
X137931431Y-80236890D01*
X137982440Y-79985000D01*
X137982440Y-79770000D01*
X138062002Y-79770000D01*
X138062002Y-79613252D01*
X138218750Y-79770000D01*
X138311309Y-79770000D01*
X138544698Y-79673327D01*
X138723327Y-79494699D01*
X138820000Y-79261310D01*
X138820000Y-79245000D01*
X139085000Y-79245000D01*
X139375839Y-79187148D01*
X139622401Y-79022401D01*
X141382802Y-77262000D01*
X141486812Y-77262000D01*
X141227567Y-77435222D01*
X141227567Y-77435222D01*
G37*
X141227567Y-77435222D02*
X140869675Y-77970845D01*
X140744000Y-78602655D01*
X140744000Y-78667345D01*
X140869675Y-79299155D01*
X141227567Y-79834778D01*
X141763190Y-80192670D01*
X142395000Y-80318345D01*
X142522999Y-80292884D01*
X142785000Y-80344999D01*
X143075839Y-80287148D01*
X143322401Y-80122401D01*
X143396446Y-80011585D01*
X143454910Y-80102441D01*
X143667110Y-80247431D01*
X143919000Y-80298440D01*
X145123638Y-80298440D01*
X146597599Y-81772401D01*
X146844161Y-81937148D01*
X147135000Y-81995000D01*
X149885000Y-81995000D01*
X150175839Y-81937148D01*
X150422401Y-81772401D01*
X150922401Y-81272401D01*
X150938083Y-81248931D01*
X150995317Y-81238162D01*
X151211441Y-81099090D01*
X151282563Y-80995000D01*
X151906614Y-80995000D01*
X152033110Y-81081431D01*
X152285000Y-81132440D01*
X153185000Y-81132440D01*
X153420317Y-81088162D01*
X153636441Y-80949090D01*
X153781431Y-80736890D01*
X153832440Y-80485000D01*
X153832440Y-79985000D01*
X153788162Y-79749683D01*
X153649090Y-79533559D01*
X153579289Y-79485866D01*
X153626123Y-79455729D01*
X154295197Y-80124803D01*
X154337211Y-80152666D01*
X154385000Y-80162000D01*
X156116487Y-80162000D01*
X156065460Y-80285191D01*
X156065460Y-80824250D01*
X156224210Y-80983000D01*
X157973000Y-80983000D01*
X157973000Y-80963000D01*
X158227000Y-80963000D01*
X158227000Y-80983000D01*
X159975790Y-80983000D01*
X160005000Y-80953790D01*
X160034210Y-80983000D01*
X161783000Y-80983000D01*
X161783000Y-80963000D01*
X162037000Y-80963000D01*
X162037000Y-80983000D01*
X162057000Y-80983000D01*
X162057000Y-81237000D01*
X162037000Y-81237000D01*
X162037000Y-81257000D01*
X161783000Y-81257000D01*
X161783000Y-81237000D01*
X160034210Y-81237000D01*
X160005000Y-81266210D01*
X159975790Y-81237000D01*
X158227000Y-81237000D01*
X158227000Y-81257000D01*
X157973000Y-81257000D01*
X157973000Y-81237000D01*
X156224210Y-81237000D01*
X156065460Y-81395750D01*
X156065460Y-81934809D01*
X156162133Y-82168198D01*
X156251934Y-82258000D01*
X125312000Y-82258000D01*
X125312000Y-80579335D01*
X125440761Y-80708097D01*
X125674150Y-80804770D01*
X126914250Y-80804770D01*
X127073000Y-80646020D01*
X127073000Y-79597000D01*
X127327000Y-79597000D01*
X127327000Y-80646020D01*
X127485750Y-80804770D01*
X128725850Y-80804770D01*
X128959239Y-80708097D01*
X129137867Y-80529468D01*
X129234540Y-80296079D01*
X129234540Y-79755750D01*
X129075790Y-79597000D01*
X127327000Y-79597000D01*
X127073000Y-79597000D01*
X127053000Y-79597000D01*
X127053000Y-79343000D01*
X127073000Y-79343000D01*
X127073000Y-79323000D01*
X127327000Y-79323000D01*
X127327000Y-79343000D01*
X129075790Y-79343000D01*
X129234540Y-79184250D01*
X129234540Y-78643921D01*
X129137867Y-78410532D01*
X128959239Y-78231903D01*
X128883340Y-78200464D01*
X129050981Y-78092590D01*
X129195971Y-77880390D01*
X129206011Y-77830813D01*
X129397599Y-78022401D01*
X129463385Y-78066357D01*
X129450162Y-78098201D01*
X129449838Y-78470167D01*
X129591883Y-78813943D01*
X129662666Y-78884850D01*
X129642808Y-78904673D01*
X129500162Y-79248201D01*
X129499838Y-79620167D01*
X129641883Y-79963943D01*
X129904673Y-80227192D01*
X130248201Y-80369838D01*
X130620167Y-80370162D01*
X130963943Y-80228117D01*
X131227192Y-79965327D01*
X131318680Y-79745000D01*
X131500116Y-79745000D01*
X131685000Y-79782440D01*
X131887560Y-79782440D01*
X131887560Y-79985000D01*
X131931838Y-80220317D01*
X132070910Y-80436441D01*
X132283110Y-80581431D01*
X132535000Y-80632440D01*
X132835000Y-80632440D01*
X132938671Y-80612933D01*
X133035000Y-80632440D01*
X133335000Y-80632440D01*
X133438671Y-80612933D01*
X133535000Y-80632440D01*
X133835000Y-80632440D01*
X133938671Y-80612933D01*
X134035000Y-80632440D01*
X134335000Y-80632440D01*
X134438671Y-80612933D01*
X134535000Y-80632440D01*
X134800089Y-80632440D01*
X134799838Y-80920167D01*
X134941883Y-81263943D01*
X135204673Y-81527192D01*
X135548201Y-81669838D01*
X135920167Y-81670162D01*
X136260413Y-81529576D01*
X136598201Y-81669838D01*
X136970167Y-81670162D01*
X137313943Y-81528117D01*
X137577192Y-81265327D01*
X137719838Y-80921799D01*
X137720162Y-80549833D01*
X137701200Y-80503941D01*
X137786441Y-80449090D01*
X137931431Y-80236890D01*
X137982440Y-79985000D01*
X137982440Y-79770000D01*
X138062002Y-79770000D01*
X138062002Y-79613252D01*
X138218750Y-79770000D01*
X138311309Y-79770000D01*
X138544698Y-79673327D01*
X138723327Y-79494699D01*
X138820000Y-79261310D01*
X138820000Y-79245000D01*
X139085000Y-79245000D01*
X139375839Y-79187148D01*
X139622401Y-79022401D01*
X141382802Y-77262000D01*
X141486812Y-77262000D01*
X141227567Y-77435222D01*
G36*
X146835000Y-77745000D02*
X147354340Y-77745000D01*
X147350301Y-77746673D01*
X147171673Y-77925302D01*
X147075000Y-78158691D01*
X147075000Y-78399250D01*
X147233750Y-78558000D01*
X147958000Y-78558000D01*
X147958000Y-78538000D01*
X148212000Y-78538000D01*
X148212000Y-78558000D01*
X148232000Y-78558000D01*
X148232000Y-78812000D01*
X148212000Y-78812000D01*
X148212000Y-78832000D01*
X147958000Y-78832000D01*
X147958000Y-78812000D01*
X147233750Y-78812000D01*
X147075000Y-78970750D01*
X147075000Y-79211309D01*
X147171673Y-79444698D01*
X147173043Y-79446068D01*
X147113569Y-79533110D01*
X147062560Y-79785000D01*
X147062560Y-80087758D01*
X146598440Y-79623638D01*
X146598440Y-77697945D01*
X146835000Y-77745000D01*
X146835000Y-77745000D01*
G37*
X146835000Y-77745000D02*
X147354340Y-77745000D01*
X147350301Y-77746673D01*
X147171673Y-77925302D01*
X147075000Y-78158691D01*
X147075000Y-78399250D01*
X147233750Y-78558000D01*
X147958000Y-78558000D01*
X147958000Y-78538000D01*
X148212000Y-78538000D01*
X148212000Y-78558000D01*
X148232000Y-78558000D01*
X148232000Y-78812000D01*
X148212000Y-78812000D01*
X148212000Y-78832000D01*
X147958000Y-78832000D01*
X147958000Y-78812000D01*
X147233750Y-78812000D01*
X147075000Y-78970750D01*
X147075000Y-79211309D01*
X147171673Y-79444698D01*
X147173043Y-79446068D01*
X147113569Y-79533110D01*
X147062560Y-79785000D01*
X147062560Y-80087758D01*
X146598440Y-79623638D01*
X146598440Y-77697945D01*
X146835000Y-77745000D01*
G36*
X151737173Y-78161975D02*
X151688569Y-78233110D01*
X151637560Y-78485000D01*
X151637560Y-78985000D01*
X151681838Y-79220317D01*
X151820910Y-79436441D01*
X151877343Y-79475000D01*
X151306486Y-79475000D01*
X151395000Y-79261309D01*
X151395000Y-79020750D01*
X151236250Y-78862000D01*
X150512000Y-78862000D01*
X150512000Y-78882000D01*
X150258000Y-78882000D01*
X150258000Y-78862000D01*
X150238000Y-78862000D01*
X150238000Y-78608000D01*
X150258000Y-78608000D01*
X150258000Y-77858750D01*
X150512000Y-77858750D01*
X150512000Y-78608000D01*
X151236250Y-78608000D01*
X151395000Y-78449250D01*
X151395000Y-78208691D01*
X151298327Y-77975302D01*
X151119699Y-77796673D01*
X150886310Y-77700000D01*
X150670750Y-77700000D01*
X150512000Y-77858750D01*
X150258000Y-77858750D01*
X150099250Y-77700000D01*
X149995000Y-77700000D01*
X149995000Y-77599802D01*
X150332802Y-77262000D01*
X150837198Y-77262000D01*
X151737173Y-78161975D01*
X151737173Y-78161975D01*
G37*
X151737173Y-78161975D02*
X151688569Y-78233110D01*
X151637560Y-78485000D01*
X151637560Y-78985000D01*
X151681838Y-79220317D01*
X151820910Y-79436441D01*
X151877343Y-79475000D01*
X151306486Y-79475000D01*
X151395000Y-79261309D01*
X151395000Y-79020750D01*
X151236250Y-78862000D01*
X150512000Y-78862000D01*
X150512000Y-78882000D01*
X150258000Y-78882000D01*
X150258000Y-78862000D01*
X150238000Y-78862000D01*
X150238000Y-78608000D01*
X150258000Y-78608000D01*
X150258000Y-77858750D01*
X150512000Y-77858750D01*
X150512000Y-78608000D01*
X151236250Y-78608000D01*
X151395000Y-78449250D01*
X151395000Y-78208691D01*
X151298327Y-77975302D01*
X151119699Y-77796673D01*
X150886310Y-77700000D01*
X150670750Y-77700000D01*
X150512000Y-77858750D01*
X150258000Y-77858750D01*
X150099250Y-77700000D01*
X149995000Y-77700000D01*
X149995000Y-77599802D01*
X150332802Y-77262000D01*
X150837198Y-77262000D01*
X151737173Y-78161975D01*
G36*
X154156057Y-72341883D02*
X153892808Y-72604673D01*
X153750162Y-72948201D01*
X153749902Y-73246876D01*
X153674698Y-73171673D01*
X153441309Y-73075000D01*
X153070750Y-73075000D01*
X152912000Y-73233750D01*
X152912000Y-73908000D01*
X153791250Y-73908000D01*
X153950000Y-73749250D01*
X153950000Y-73722162D01*
X154075000Y-73847380D01*
X154075000Y-75985000D01*
X154132852Y-76275839D01*
X154297599Y-76522401D01*
X154342599Y-76567401D01*
X154589161Y-76732148D01*
X154880000Y-76790000D01*
X156064353Y-76790000D01*
X156097298Y-76965087D01*
X156236370Y-77181211D01*
X156414233Y-77302740D01*
X156340761Y-77333173D01*
X156162133Y-77511802D01*
X156065460Y-77745191D01*
X156065460Y-78284250D01*
X156224210Y-78443000D01*
X157973000Y-78443000D01*
X157973000Y-78423000D01*
X158227000Y-78423000D01*
X158227000Y-78443000D01*
X159975790Y-78443000D01*
X160005000Y-78413790D01*
X160034210Y-78443000D01*
X161783000Y-78443000D01*
X161783000Y-78423000D01*
X162037000Y-78423000D01*
X162037000Y-78443000D01*
X162057000Y-78443000D01*
X162057000Y-78697000D01*
X162037000Y-78697000D01*
X162037000Y-78717000D01*
X161783000Y-78717000D01*
X161783000Y-78697000D01*
X160034210Y-78697000D01*
X160005000Y-78726210D01*
X159975790Y-78697000D01*
X158227000Y-78697000D01*
X158227000Y-78717000D01*
X157973000Y-78717000D01*
X157973000Y-78697000D01*
X156224210Y-78697000D01*
X156065460Y-78855750D01*
X156065460Y-79358000D01*
X155137606Y-79358000D01*
X152586928Y-76807322D01*
X152658000Y-76736250D01*
X152658000Y-76062000D01*
X152912000Y-76062000D01*
X152912000Y-76736250D01*
X153070750Y-76895000D01*
X153441309Y-76895000D01*
X153674698Y-76798327D01*
X153853327Y-76619699D01*
X153950000Y-76386310D01*
X153950000Y-76220750D01*
X153791250Y-76062000D01*
X152912000Y-76062000D01*
X152658000Y-76062000D01*
X152638000Y-76062000D01*
X152638000Y-75957440D01*
X153315000Y-75957440D01*
X153550317Y-75913162D01*
X153713743Y-75808000D01*
X153791250Y-75808000D01*
X153950000Y-75649250D01*
X153950000Y-75483690D01*
X153934732Y-75446829D01*
X153962440Y-75310000D01*
X153962440Y-74660000D01*
X153936081Y-74519914D01*
X153950000Y-74486310D01*
X153950000Y-74320750D01*
X153791250Y-74162000D01*
X153710949Y-74162000D01*
X153566890Y-74063569D01*
X153315000Y-74012560D01*
X152638000Y-74012560D01*
X152638000Y-73908000D01*
X152658000Y-73908000D01*
X152658000Y-73233750D01*
X152499250Y-73075000D01*
X152128691Y-73075000D01*
X151895302Y-73171673D01*
X151716673Y-73350301D01*
X151685912Y-73424565D01*
X151579090Y-73258559D01*
X151366890Y-73113569D01*
X151115000Y-73062560D01*
X150055000Y-73062560D01*
X149819683Y-73106838D01*
X149603559Y-73245910D01*
X149458569Y-73458110D01*
X149407560Y-73710000D01*
X149407560Y-74225000D01*
X149095000Y-74225000D01*
X149095000Y-74220750D01*
X148936250Y-74062000D01*
X148212000Y-74062000D01*
X148212000Y-74082000D01*
X147958000Y-74082000D01*
X147958000Y-74062000D01*
X147233750Y-74062000D01*
X147075000Y-74220750D01*
X147075000Y-74461309D01*
X147171673Y-74694698D01*
X147173043Y-74696068D01*
X147113569Y-74783110D01*
X147062560Y-75035000D01*
X147062560Y-75835000D01*
X147106838Y-76070317D01*
X147152826Y-76141785D01*
X147150162Y-76148201D01*
X147150095Y-76225000D01*
X147149802Y-76225000D01*
X146532440Y-75607638D01*
X146532440Y-75235000D01*
X146488162Y-74999683D01*
X146349090Y-74783559D01*
X146279289Y-74735866D01*
X146336441Y-74699090D01*
X146481431Y-74486890D01*
X146532440Y-74235000D01*
X146532440Y-73735000D01*
X146488162Y-73499683D01*
X146429611Y-73408691D01*
X147075000Y-73408691D01*
X147075000Y-73649250D01*
X147233750Y-73808000D01*
X147958000Y-73808000D01*
X147958000Y-73058750D01*
X148212000Y-73058750D01*
X148212000Y-73808000D01*
X148936250Y-73808000D01*
X149095000Y-73649250D01*
X149095000Y-73408691D01*
X148998327Y-73175302D01*
X148819699Y-72996673D01*
X148586310Y-72900000D01*
X148370750Y-72900000D01*
X148212000Y-73058750D01*
X147958000Y-73058750D01*
X147799250Y-72900000D01*
X147583690Y-72900000D01*
X147350301Y-72996673D01*
X147171673Y-73175302D01*
X147075000Y-73408691D01*
X146429611Y-73408691D01*
X146349090Y-73283559D01*
X146136890Y-73138569D01*
X145885000Y-73087560D01*
X144985000Y-73087560D01*
X144749683Y-73131838D01*
X144678620Y-73177566D01*
X144371799Y-73050162D01*
X143999833Y-73049838D01*
X143656057Y-73191883D01*
X143619024Y-73228852D01*
X143486890Y-73138569D01*
X143235000Y-73087560D01*
X142335000Y-73087560D01*
X142099683Y-73131838D01*
X141954905Y-73225000D01*
X141947376Y-73225000D01*
X141865327Y-73142808D01*
X141521799Y-73000162D01*
X141149833Y-72999838D01*
X140806057Y-73141883D01*
X140542808Y-73404673D01*
X140409796Y-73725000D01*
X138369884Y-73725000D01*
X138185000Y-73687560D01*
X137982440Y-73687560D01*
X137982440Y-73485000D01*
X137938162Y-73249683D01*
X137799090Y-73033559D01*
X137586890Y-72888569D01*
X137335000Y-72837560D01*
X137035000Y-72837560D01*
X136931329Y-72857067D01*
X136835000Y-72837560D01*
X136535000Y-72837560D01*
X136431329Y-72857067D01*
X136335000Y-72837560D01*
X136035000Y-72837560D01*
X135931329Y-72857067D01*
X135835000Y-72837560D01*
X135535000Y-72837560D01*
X135431329Y-72857067D01*
X135335000Y-72837560D01*
X135035000Y-72837560D01*
X134931329Y-72857067D01*
X134835000Y-72837560D01*
X134535000Y-72837560D01*
X134431329Y-72857067D01*
X134335000Y-72837560D01*
X134035000Y-72837560D01*
X133931329Y-72857067D01*
X133835000Y-72837560D01*
X133535000Y-72837560D01*
X133431329Y-72857067D01*
X133335000Y-72837560D01*
X133035000Y-72837560D01*
X132931329Y-72857067D01*
X132835000Y-72837560D01*
X132535000Y-72837560D01*
X132299683Y-72881838D01*
X132083559Y-73020910D01*
X131938569Y-73233110D01*
X131887560Y-73485000D01*
X131887560Y-73687560D01*
X131685000Y-73687560D01*
X131449683Y-73731838D01*
X131233559Y-73870910D01*
X131088569Y-74083110D01*
X131037560Y-74335000D01*
X131037560Y-74635000D01*
X131057067Y-74738671D01*
X131037560Y-74835000D01*
X131037560Y-75135000D01*
X131057067Y-75238671D01*
X131037560Y-75335000D01*
X131037560Y-75635000D01*
X131057067Y-75738671D01*
X131037560Y-75835000D01*
X131037560Y-76135000D01*
X131057067Y-76238671D01*
X131053153Y-76258000D01*
X129715959Y-76258000D01*
X129670839Y-76227852D01*
X129380000Y-76170000D01*
X129235408Y-76170000D01*
X129202702Y-75996183D01*
X129063630Y-75780059D01*
X128884610Y-75657740D01*
X128959239Y-75626827D01*
X129137867Y-75448198D01*
X129234540Y-75214809D01*
X129234540Y-74675750D01*
X129075790Y-74517000D01*
X127327000Y-74517000D01*
X127327000Y-74537000D01*
X127073000Y-74537000D01*
X127073000Y-74517000D01*
X127053000Y-74517000D01*
X127053000Y-74263000D01*
X127073000Y-74263000D01*
X127073000Y-73215250D01*
X127327000Y-73215250D01*
X127327000Y-74263000D01*
X129075790Y-74263000D01*
X129234540Y-74104250D01*
X129234540Y-73565191D01*
X129137867Y-73331802D01*
X128959239Y-73153173D01*
X128725850Y-73056500D01*
X127485750Y-73056500D01*
X127327000Y-73215250D01*
X127073000Y-73215250D01*
X126914250Y-73056500D01*
X125674150Y-73056500D01*
X125440761Y-73153173D01*
X125362000Y-73231934D01*
X125362000Y-72312000D01*
X154228380Y-72312000D01*
X154156057Y-72341883D01*
X154156057Y-72341883D01*
G37*
X154156057Y-72341883D02*
X153892808Y-72604673D01*
X153750162Y-72948201D01*
X153749902Y-73246876D01*
X153674698Y-73171673D01*
X153441309Y-73075000D01*
X153070750Y-73075000D01*
X152912000Y-73233750D01*
X152912000Y-73908000D01*
X153791250Y-73908000D01*
X153950000Y-73749250D01*
X153950000Y-73722162D01*
X154075000Y-73847380D01*
X154075000Y-75985000D01*
X154132852Y-76275839D01*
X154297599Y-76522401D01*
X154342599Y-76567401D01*
X154589161Y-76732148D01*
X154880000Y-76790000D01*
X156064353Y-76790000D01*
X156097298Y-76965087D01*
X156236370Y-77181211D01*
X156414233Y-77302740D01*
X156340761Y-77333173D01*
X156162133Y-77511802D01*
X156065460Y-77745191D01*
X156065460Y-78284250D01*
X156224210Y-78443000D01*
X157973000Y-78443000D01*
X157973000Y-78423000D01*
X158227000Y-78423000D01*
X158227000Y-78443000D01*
X159975790Y-78443000D01*
X160005000Y-78413790D01*
X160034210Y-78443000D01*
X161783000Y-78443000D01*
X161783000Y-78423000D01*
X162037000Y-78423000D01*
X162037000Y-78443000D01*
X162057000Y-78443000D01*
X162057000Y-78697000D01*
X162037000Y-78697000D01*
X162037000Y-78717000D01*
X161783000Y-78717000D01*
X161783000Y-78697000D01*
X160034210Y-78697000D01*
X160005000Y-78726210D01*
X159975790Y-78697000D01*
X158227000Y-78697000D01*
X158227000Y-78717000D01*
X157973000Y-78717000D01*
X157973000Y-78697000D01*
X156224210Y-78697000D01*
X156065460Y-78855750D01*
X156065460Y-79358000D01*
X155137606Y-79358000D01*
X152586928Y-76807322D01*
X152658000Y-76736250D01*
X152658000Y-76062000D01*
X152912000Y-76062000D01*
X152912000Y-76736250D01*
X153070750Y-76895000D01*
X153441309Y-76895000D01*
X153674698Y-76798327D01*
X153853327Y-76619699D01*
X153950000Y-76386310D01*
X153950000Y-76220750D01*
X153791250Y-76062000D01*
X152912000Y-76062000D01*
X152658000Y-76062000D01*
X152638000Y-76062000D01*
X152638000Y-75957440D01*
X153315000Y-75957440D01*
X153550317Y-75913162D01*
X153713743Y-75808000D01*
X153791250Y-75808000D01*
X153950000Y-75649250D01*
X153950000Y-75483690D01*
X153934732Y-75446829D01*
X153962440Y-75310000D01*
X153962440Y-74660000D01*
X153936081Y-74519914D01*
X153950000Y-74486310D01*
X153950000Y-74320750D01*
X153791250Y-74162000D01*
X153710949Y-74162000D01*
X153566890Y-74063569D01*
X153315000Y-74012560D01*
X152638000Y-74012560D01*
X152638000Y-73908000D01*
X152658000Y-73908000D01*
X152658000Y-73233750D01*
X152499250Y-73075000D01*
X152128691Y-73075000D01*
X151895302Y-73171673D01*
X151716673Y-73350301D01*
X151685912Y-73424565D01*
X151579090Y-73258559D01*
X151366890Y-73113569D01*
X151115000Y-73062560D01*
X150055000Y-73062560D01*
X149819683Y-73106838D01*
X149603559Y-73245910D01*
X149458569Y-73458110D01*
X149407560Y-73710000D01*
X149407560Y-74225000D01*
X149095000Y-74225000D01*
X149095000Y-74220750D01*
X148936250Y-74062000D01*
X148212000Y-74062000D01*
X148212000Y-74082000D01*
X147958000Y-74082000D01*
X147958000Y-74062000D01*
X147233750Y-74062000D01*
X147075000Y-74220750D01*
X147075000Y-74461309D01*
X147171673Y-74694698D01*
X147173043Y-74696068D01*
X147113569Y-74783110D01*
X147062560Y-75035000D01*
X147062560Y-75835000D01*
X147106838Y-76070317D01*
X147152826Y-76141785D01*
X147150162Y-76148201D01*
X147150095Y-76225000D01*
X147149802Y-76225000D01*
X146532440Y-75607638D01*
X146532440Y-75235000D01*
X146488162Y-74999683D01*
X146349090Y-74783559D01*
X146279289Y-74735866D01*
X146336441Y-74699090D01*
X146481431Y-74486890D01*
X146532440Y-74235000D01*
X146532440Y-73735000D01*
X146488162Y-73499683D01*
X146429611Y-73408691D01*
X147075000Y-73408691D01*
X147075000Y-73649250D01*
X147233750Y-73808000D01*
X147958000Y-73808000D01*
X147958000Y-73058750D01*
X148212000Y-73058750D01*
X148212000Y-73808000D01*
X148936250Y-73808000D01*
X149095000Y-73649250D01*
X149095000Y-73408691D01*
X148998327Y-73175302D01*
X148819699Y-72996673D01*
X148586310Y-72900000D01*
X148370750Y-72900000D01*
X148212000Y-73058750D01*
X147958000Y-73058750D01*
X147799250Y-72900000D01*
X147583690Y-72900000D01*
X147350301Y-72996673D01*
X147171673Y-73175302D01*
X147075000Y-73408691D01*
X146429611Y-73408691D01*
X146349090Y-73283559D01*
X146136890Y-73138569D01*
X145885000Y-73087560D01*
X144985000Y-73087560D01*
X144749683Y-73131838D01*
X144678620Y-73177566D01*
X144371799Y-73050162D01*
X143999833Y-73049838D01*
X143656057Y-73191883D01*
X143619024Y-73228852D01*
X143486890Y-73138569D01*
X143235000Y-73087560D01*
X142335000Y-73087560D01*
X142099683Y-73131838D01*
X141954905Y-73225000D01*
X141947376Y-73225000D01*
X141865327Y-73142808D01*
X141521799Y-73000162D01*
X141149833Y-72999838D01*
X140806057Y-73141883D01*
X140542808Y-73404673D01*
X140409796Y-73725000D01*
X138369884Y-73725000D01*
X138185000Y-73687560D01*
X137982440Y-73687560D01*
X137982440Y-73485000D01*
X137938162Y-73249683D01*
X137799090Y-73033559D01*
X137586890Y-72888569D01*
X137335000Y-72837560D01*
X137035000Y-72837560D01*
X136931329Y-72857067D01*
X136835000Y-72837560D01*
X136535000Y-72837560D01*
X136431329Y-72857067D01*
X136335000Y-72837560D01*
X136035000Y-72837560D01*
X135931329Y-72857067D01*
X135835000Y-72837560D01*
X135535000Y-72837560D01*
X135431329Y-72857067D01*
X135335000Y-72837560D01*
X135035000Y-72837560D01*
X134931329Y-72857067D01*
X134835000Y-72837560D01*
X134535000Y-72837560D01*
X134431329Y-72857067D01*
X134335000Y-72837560D01*
X134035000Y-72837560D01*
X133931329Y-72857067D01*
X133835000Y-72837560D01*
X133535000Y-72837560D01*
X133431329Y-72857067D01*
X133335000Y-72837560D01*
X133035000Y-72837560D01*
X132931329Y-72857067D01*
X132835000Y-72837560D01*
X132535000Y-72837560D01*
X132299683Y-72881838D01*
X132083559Y-73020910D01*
X131938569Y-73233110D01*
X131887560Y-73485000D01*
X131887560Y-73687560D01*
X131685000Y-73687560D01*
X131449683Y-73731838D01*
X131233559Y-73870910D01*
X131088569Y-74083110D01*
X131037560Y-74335000D01*
X131037560Y-74635000D01*
X131057067Y-74738671D01*
X131037560Y-74835000D01*
X131037560Y-75135000D01*
X131057067Y-75238671D01*
X131037560Y-75335000D01*
X131037560Y-75635000D01*
X131057067Y-75738671D01*
X131037560Y-75835000D01*
X131037560Y-76135000D01*
X131057067Y-76238671D01*
X131053153Y-76258000D01*
X129715959Y-76258000D01*
X129670839Y-76227852D01*
X129380000Y-76170000D01*
X129235408Y-76170000D01*
X129202702Y-75996183D01*
X129063630Y-75780059D01*
X128884610Y-75657740D01*
X128959239Y-75626827D01*
X129137867Y-75448198D01*
X129234540Y-75214809D01*
X129234540Y-74675750D01*
X129075790Y-74517000D01*
X127327000Y-74517000D01*
X127327000Y-74537000D01*
X127073000Y-74537000D01*
X127073000Y-74517000D01*
X127053000Y-74517000D01*
X127053000Y-74263000D01*
X127073000Y-74263000D01*
X127073000Y-73215250D01*
X127327000Y-73215250D01*
X127327000Y-74263000D01*
X129075790Y-74263000D01*
X129234540Y-74104250D01*
X129234540Y-73565191D01*
X129137867Y-73331802D01*
X128959239Y-73153173D01*
X128725850Y-73056500D01*
X127485750Y-73056500D01*
X127327000Y-73215250D01*
X127073000Y-73215250D01*
X126914250Y-73056500D01*
X125674150Y-73056500D01*
X125440761Y-73153173D01*
X125362000Y-73231934D01*
X125362000Y-72312000D01*
X154228380Y-72312000D01*
X154156057Y-72341883D01*
M02*
