G04 #@! TF.FileFunction,Copper,L1,Top,Signal*
%FSLAX46Y46*%
G04 Gerber Fmt 4.6, Leading zero omitted, Abs format (unit mm)*
G04 Created by KiCad (PCBNEW 4.0.2-stable) date 11.06.2016 10:01:23*
%MOMM*%
G01*
G04 APERTURE LIST*
%ADD10C,0.200000*%
%ADD11R,1.200000X0.750000*%
%ADD12R,2.032000X2.032000*%
%ADD13O,2.032000X2.032000*%
%ADD14R,2.799080X1.397000*%
%ADD15R,2.799080X1.399540*%
%ADD16R,1.200000X0.900000*%
%ADD17R,0.900000X1.200000*%
%ADD18R,1.060000X0.650000*%
%ADD19R,0.850000X0.300000*%
%ADD20R,0.300000X0.850000*%
%ADD21C,0.600000*%
%ADD22C,0.250000*%
G04 APERTURE END LIST*
D10*
D11*
X121535000Y-109585000D03*
X123435000Y-109585000D03*
X123335000Y-103885000D03*
X121435000Y-103885000D03*
X123335000Y-105985000D03*
X121435000Y-105985000D03*
D12*
X118385000Y-109185000D03*
D13*
X115845000Y-109185000D03*
D14*
X139910000Y-111110000D03*
X136100000Y-111110000D03*
X139910000Y-108570000D03*
X136100000Y-108570000D03*
X139910000Y-106030000D03*
X136100000Y-103490000D03*
X139910000Y-103490000D03*
D15*
X136100000Y-106030000D03*
D16*
X127985000Y-109585000D03*
X125785000Y-109585000D03*
D17*
X115485000Y-106085000D03*
X115485000Y-103885000D03*
X118385000Y-106085000D03*
X118385000Y-103885000D03*
D18*
X127885000Y-105935000D03*
X127885000Y-104985000D03*
X127885000Y-104035000D03*
X125685000Y-104035000D03*
X125685000Y-105935000D03*
D19*
X112850000Y-108050000D03*
X112850000Y-107550000D03*
X112850000Y-107050000D03*
X112850000Y-106550000D03*
X112850000Y-106050000D03*
X112850000Y-105550000D03*
D20*
X112150000Y-104850000D03*
X111650000Y-104850000D03*
X111150000Y-104850000D03*
X110650000Y-104850000D03*
X110150000Y-104850000D03*
X109650000Y-104850000D03*
D19*
X108950000Y-105550000D03*
X108950000Y-106050000D03*
X108950000Y-106550000D03*
X108950000Y-107050000D03*
X108950000Y-107550000D03*
X108950000Y-108050000D03*
D20*
X109650000Y-108750000D03*
X110150000Y-108750000D03*
X110650000Y-108750000D03*
X111150000Y-108750000D03*
X111650000Y-108750000D03*
X112150000Y-108750000D03*
D14*
X105200000Y-104390000D03*
X105200000Y-106930000D03*
D15*
X105200000Y-109470000D03*
D11*
X121535000Y-97585000D03*
X123435000Y-97585000D03*
X123335000Y-91885000D03*
X121435000Y-91885000D03*
X123335000Y-93985000D03*
X121435000Y-93985000D03*
D12*
X118385000Y-97185000D03*
D13*
X115845000Y-97185000D03*
D14*
X139910000Y-99110000D03*
X136100000Y-99110000D03*
X139910000Y-96570000D03*
X136100000Y-96570000D03*
X139910000Y-94030000D03*
X136100000Y-91490000D03*
X139910000Y-91490000D03*
D15*
X136100000Y-94030000D03*
D16*
X127985000Y-97585000D03*
X125785000Y-97585000D03*
D17*
X115485000Y-94085000D03*
X115485000Y-91885000D03*
X118385000Y-94085000D03*
X118385000Y-91885000D03*
D18*
X127885000Y-93935000D03*
X127885000Y-92985000D03*
X127885000Y-92035000D03*
X125685000Y-92035000D03*
X125685000Y-93935000D03*
D19*
X112850000Y-96050000D03*
X112850000Y-95550000D03*
X112850000Y-95050000D03*
X112850000Y-94550000D03*
X112850000Y-94050000D03*
X112850000Y-93550000D03*
D20*
X112150000Y-92850000D03*
X111650000Y-92850000D03*
X111150000Y-92850000D03*
X110650000Y-92850000D03*
X110150000Y-92850000D03*
X109650000Y-92850000D03*
D19*
X108950000Y-93550000D03*
X108950000Y-94050000D03*
X108950000Y-94550000D03*
X108950000Y-95050000D03*
X108950000Y-95550000D03*
X108950000Y-96050000D03*
D20*
X109650000Y-96750000D03*
X110150000Y-96750000D03*
X110650000Y-96750000D03*
X111150000Y-96750000D03*
X111650000Y-96750000D03*
X112150000Y-96750000D03*
D14*
X105200000Y-92390000D03*
X105200000Y-94930000D03*
D15*
X105200000Y-97470000D03*
D11*
X121535000Y-85585000D03*
X123435000Y-85585000D03*
X123335000Y-79885000D03*
X121435000Y-79885000D03*
X123335000Y-81985000D03*
X121435000Y-81985000D03*
D12*
X118385000Y-85185000D03*
D13*
X115845000Y-85185000D03*
D14*
X139910000Y-87110000D03*
X136100000Y-87110000D03*
X139910000Y-84570000D03*
X136100000Y-84570000D03*
X139910000Y-82030000D03*
X136100000Y-79490000D03*
X139910000Y-79490000D03*
D15*
X136100000Y-82030000D03*
D16*
X127985000Y-85585000D03*
X125785000Y-85585000D03*
D17*
X115485000Y-82085000D03*
X115485000Y-79885000D03*
X118385000Y-82085000D03*
X118385000Y-79885000D03*
D18*
X127885000Y-81935000D03*
X127885000Y-80985000D03*
X127885000Y-80035000D03*
X125685000Y-80035000D03*
X125685000Y-81935000D03*
D19*
X112850000Y-84050000D03*
X112850000Y-83550000D03*
X112850000Y-83050000D03*
X112850000Y-82550000D03*
X112850000Y-82050000D03*
X112850000Y-81550000D03*
D20*
X112150000Y-80850000D03*
X111650000Y-80850000D03*
X111150000Y-80850000D03*
X110650000Y-80850000D03*
X110150000Y-80850000D03*
X109650000Y-80850000D03*
D19*
X108950000Y-81550000D03*
X108950000Y-82050000D03*
X108950000Y-82550000D03*
X108950000Y-83050000D03*
X108950000Y-83550000D03*
X108950000Y-84050000D03*
D20*
X109650000Y-84750000D03*
X110150000Y-84750000D03*
X110650000Y-84750000D03*
X111150000Y-84750000D03*
X111650000Y-84750000D03*
X112150000Y-84750000D03*
D14*
X105200000Y-80390000D03*
X105200000Y-82930000D03*
D15*
X105200000Y-85470000D03*
D11*
X121535000Y-73585000D03*
X123435000Y-73585000D03*
X123335000Y-67885000D03*
X121435000Y-67885000D03*
X123335000Y-69985000D03*
X121435000Y-69985000D03*
D12*
X118385000Y-73185000D03*
D13*
X115845000Y-73185000D03*
D14*
X139910000Y-75110000D03*
X136100000Y-75110000D03*
X139910000Y-72570000D03*
X136100000Y-72570000D03*
X139910000Y-70030000D03*
X136100000Y-67490000D03*
X139910000Y-67490000D03*
D15*
X136100000Y-70030000D03*
D16*
X127985000Y-73585000D03*
X125785000Y-73585000D03*
D17*
X115485000Y-70085000D03*
X115485000Y-67885000D03*
X118385000Y-70085000D03*
X118385000Y-67885000D03*
D18*
X127885000Y-69935000D03*
X127885000Y-68985000D03*
X127885000Y-68035000D03*
X125685000Y-68035000D03*
X125685000Y-69935000D03*
D19*
X112850000Y-72050000D03*
X112850000Y-71550000D03*
X112850000Y-71050000D03*
X112850000Y-70550000D03*
X112850000Y-70050000D03*
X112850000Y-69550000D03*
D20*
X112150000Y-68850000D03*
X111650000Y-68850000D03*
X111150000Y-68850000D03*
X110650000Y-68850000D03*
X110150000Y-68850000D03*
X109650000Y-68850000D03*
D19*
X108950000Y-69550000D03*
X108950000Y-70050000D03*
X108950000Y-70550000D03*
X108950000Y-71050000D03*
X108950000Y-71550000D03*
X108950000Y-72050000D03*
D20*
X109650000Y-72750000D03*
X110150000Y-72750000D03*
X110650000Y-72750000D03*
X111150000Y-72750000D03*
X111650000Y-72750000D03*
X112150000Y-72750000D03*
D14*
X105200000Y-68390000D03*
X105200000Y-70930000D03*
D15*
X105200000Y-73470000D03*
D21*
X107485000Y-109485000D03*
X133085000Y-111135000D03*
X120335000Y-111685000D03*
X119785000Y-104985000D03*
X107485000Y-97485000D03*
X133085000Y-99135000D03*
X120335000Y-99685000D03*
X119785000Y-92985000D03*
X107485000Y-85485000D03*
X133085000Y-87135000D03*
X120335000Y-87685000D03*
X119785000Y-80985000D03*
X107485000Y-73485000D03*
X133085000Y-75135000D03*
X120335000Y-75685000D03*
X119785000Y-68985000D03*
X116885000Y-106185000D03*
X112485000Y-110485000D03*
X116885000Y-94185000D03*
X112485000Y-98485000D03*
X116885000Y-82185000D03*
X112485000Y-86485000D03*
X116885000Y-70185000D03*
X112485000Y-74485000D03*
X116935000Y-103885000D03*
X131585000Y-103885000D03*
X116935000Y-91885000D03*
X131585000Y-91885000D03*
X116935000Y-79885000D03*
X131585000Y-79885000D03*
X116935000Y-67885000D03*
X131585000Y-67885000D03*
X131735000Y-102935000D03*
X119835000Y-102935000D03*
X131735000Y-90935000D03*
X119835000Y-90935000D03*
X131735000Y-78935000D03*
X119835000Y-78935000D03*
X131735000Y-66935000D03*
X119835000Y-66935000D03*
D22*
X121535000Y-109585000D02*
X121535000Y-108835000D01*
X124285000Y-108085000D02*
X125785000Y-109585000D01*
X122285000Y-108085000D02*
X124285000Y-108085000D01*
X121535000Y-108835000D02*
X122285000Y-108085000D01*
X112850000Y-108050000D02*
X112850000Y-109450000D01*
X116685000Y-110885000D02*
X118385000Y-109185000D01*
X114285000Y-110885000D02*
X116685000Y-110885000D01*
X112850000Y-109450000D02*
X114285000Y-110885000D01*
X121535000Y-109585000D02*
X118785000Y-109585000D01*
X118785000Y-109585000D02*
X118385000Y-109185000D01*
X121535000Y-97585000D02*
X121535000Y-96835000D01*
X124285000Y-96085000D02*
X125785000Y-97585000D01*
X122285000Y-96085000D02*
X124285000Y-96085000D01*
X121535000Y-96835000D02*
X122285000Y-96085000D01*
X112850000Y-96050000D02*
X112850000Y-97450000D01*
X116685000Y-98885000D02*
X118385000Y-97185000D01*
X114285000Y-98885000D02*
X116685000Y-98885000D01*
X112850000Y-97450000D02*
X114285000Y-98885000D01*
X121535000Y-97585000D02*
X118785000Y-97585000D01*
X118785000Y-97585000D02*
X118385000Y-97185000D01*
X121535000Y-85585000D02*
X121535000Y-84835000D01*
X124285000Y-84085000D02*
X125785000Y-85585000D01*
X122285000Y-84085000D02*
X124285000Y-84085000D01*
X121535000Y-84835000D02*
X122285000Y-84085000D01*
X112850000Y-84050000D02*
X112850000Y-85450000D01*
X116685000Y-86885000D02*
X118385000Y-85185000D01*
X114285000Y-86885000D02*
X116685000Y-86885000D01*
X112850000Y-85450000D02*
X114285000Y-86885000D01*
X121535000Y-85585000D02*
X118785000Y-85585000D01*
X118785000Y-85585000D02*
X118385000Y-85185000D01*
X121535000Y-73585000D02*
X121535000Y-72835000D01*
X124285000Y-72085000D02*
X125785000Y-73585000D01*
X122285000Y-72085000D02*
X124285000Y-72085000D01*
X121535000Y-72835000D02*
X122285000Y-72085000D01*
X112850000Y-72050000D02*
X112850000Y-73450000D01*
X116685000Y-74885000D02*
X118385000Y-73185000D01*
X114285000Y-74885000D02*
X116685000Y-74885000D01*
X112850000Y-73450000D02*
X114285000Y-74885000D01*
X121535000Y-73585000D02*
X118785000Y-73585000D01*
X118785000Y-73585000D02*
X118385000Y-73185000D01*
X105200000Y-109470000D02*
X107470000Y-109470000D01*
X107470000Y-109470000D02*
X107485000Y-109485000D01*
X133085000Y-111135000D02*
X133110000Y-111110000D01*
X121435000Y-104985000D02*
X119785000Y-104985000D01*
X121435000Y-105985000D02*
X121435000Y-104985000D01*
X121435000Y-104985000D02*
X121435000Y-104935000D01*
X121485000Y-104985000D02*
X127885000Y-104985000D01*
X121435000Y-104935000D02*
X121485000Y-104985000D01*
X111650000Y-108750000D02*
X111650000Y-111350000D01*
X111650000Y-111350000D02*
X111985000Y-111685000D01*
X111985000Y-111685000D02*
X120335000Y-111685000D01*
X123235000Y-111685000D02*
X123810000Y-111110000D01*
X120335000Y-111685000D02*
X123235000Y-111685000D01*
X139910000Y-111110000D02*
X136100000Y-111110000D01*
X127885000Y-104985000D02*
X126885000Y-104985000D01*
X126885000Y-104985000D02*
X126785000Y-105085000D01*
X126785000Y-105085000D02*
X126785000Y-107085000D01*
X126785000Y-107085000D02*
X127785000Y-108085000D01*
X127785000Y-108085000D02*
X130085000Y-108085000D01*
X130085000Y-108085000D02*
X133110000Y-111110000D01*
X133110000Y-111110000D02*
X136100000Y-111110000D01*
X123435000Y-109585000D02*
X123435000Y-110735000D01*
X123435000Y-110735000D02*
X123810000Y-111110000D01*
X123810000Y-111110000D02*
X136100000Y-111110000D01*
X121435000Y-105985000D02*
X121435000Y-103885000D01*
X108950000Y-108050000D02*
X108950000Y-109750000D01*
X111650000Y-110020000D02*
X111650000Y-108750000D01*
X111585000Y-110085000D02*
X111650000Y-110020000D01*
X109285000Y-110085000D02*
X111585000Y-110085000D01*
X108950000Y-109750000D02*
X109285000Y-110085000D01*
X105200000Y-109470000D02*
X107000000Y-109470000D01*
X108420000Y-108050000D02*
X107000000Y-109470000D01*
X108420000Y-108050000D02*
X108950000Y-108050000D01*
X105200000Y-97470000D02*
X107470000Y-97470000D01*
X107470000Y-97470000D02*
X107485000Y-97485000D01*
X133085000Y-99135000D02*
X133110000Y-99110000D01*
X121435000Y-92985000D02*
X119785000Y-92985000D01*
X121435000Y-93985000D02*
X121435000Y-92985000D01*
X121435000Y-92985000D02*
X121435000Y-92935000D01*
X121485000Y-92985000D02*
X127885000Y-92985000D01*
X121435000Y-92935000D02*
X121485000Y-92985000D01*
X111650000Y-96750000D02*
X111650000Y-99350000D01*
X111650000Y-99350000D02*
X111985000Y-99685000D01*
X111985000Y-99685000D02*
X120335000Y-99685000D01*
X123235000Y-99685000D02*
X123810000Y-99110000D01*
X120335000Y-99685000D02*
X123235000Y-99685000D01*
X139910000Y-99110000D02*
X136100000Y-99110000D01*
X127885000Y-92985000D02*
X126885000Y-92985000D01*
X126885000Y-92985000D02*
X126785000Y-93085000D01*
X126785000Y-93085000D02*
X126785000Y-95085000D01*
X126785000Y-95085000D02*
X127785000Y-96085000D01*
X127785000Y-96085000D02*
X130085000Y-96085000D01*
X130085000Y-96085000D02*
X133110000Y-99110000D01*
X133110000Y-99110000D02*
X136100000Y-99110000D01*
X123435000Y-97585000D02*
X123435000Y-98735000D01*
X123435000Y-98735000D02*
X123810000Y-99110000D01*
X123810000Y-99110000D02*
X136100000Y-99110000D01*
X121435000Y-93985000D02*
X121435000Y-91885000D01*
X108950000Y-96050000D02*
X108950000Y-97750000D01*
X111650000Y-98020000D02*
X111650000Y-96750000D01*
X111585000Y-98085000D02*
X111650000Y-98020000D01*
X109285000Y-98085000D02*
X111585000Y-98085000D01*
X108950000Y-97750000D02*
X109285000Y-98085000D01*
X105200000Y-97470000D02*
X107000000Y-97470000D01*
X108420000Y-96050000D02*
X107000000Y-97470000D01*
X108420000Y-96050000D02*
X108950000Y-96050000D01*
X105200000Y-85470000D02*
X107470000Y-85470000D01*
X107470000Y-85470000D02*
X107485000Y-85485000D01*
X133085000Y-87135000D02*
X133110000Y-87110000D01*
X121435000Y-80985000D02*
X119785000Y-80985000D01*
X121435000Y-81985000D02*
X121435000Y-80985000D01*
X121435000Y-80985000D02*
X121435000Y-80935000D01*
X121485000Y-80985000D02*
X127885000Y-80985000D01*
X121435000Y-80935000D02*
X121485000Y-80985000D01*
X111650000Y-84750000D02*
X111650000Y-87350000D01*
X111650000Y-87350000D02*
X111985000Y-87685000D01*
X111985000Y-87685000D02*
X120335000Y-87685000D01*
X123235000Y-87685000D02*
X123810000Y-87110000D01*
X120335000Y-87685000D02*
X123235000Y-87685000D01*
X139910000Y-87110000D02*
X136100000Y-87110000D01*
X127885000Y-80985000D02*
X126885000Y-80985000D01*
X126885000Y-80985000D02*
X126785000Y-81085000D01*
X126785000Y-81085000D02*
X126785000Y-83085000D01*
X126785000Y-83085000D02*
X127785000Y-84085000D01*
X127785000Y-84085000D02*
X130085000Y-84085000D01*
X130085000Y-84085000D02*
X133110000Y-87110000D01*
X133110000Y-87110000D02*
X136100000Y-87110000D01*
X123435000Y-85585000D02*
X123435000Y-86735000D01*
X123435000Y-86735000D02*
X123810000Y-87110000D01*
X123810000Y-87110000D02*
X136100000Y-87110000D01*
X121435000Y-81985000D02*
X121435000Y-79885000D01*
X108950000Y-84050000D02*
X108950000Y-85750000D01*
X111650000Y-86020000D02*
X111650000Y-84750000D01*
X111585000Y-86085000D02*
X111650000Y-86020000D01*
X109285000Y-86085000D02*
X111585000Y-86085000D01*
X108950000Y-85750000D02*
X109285000Y-86085000D01*
X105200000Y-85470000D02*
X107000000Y-85470000D01*
X108420000Y-84050000D02*
X107000000Y-85470000D01*
X108420000Y-84050000D02*
X108950000Y-84050000D01*
X105200000Y-73470000D02*
X107470000Y-73470000D01*
X107470000Y-73470000D02*
X107485000Y-73485000D01*
X133085000Y-75135000D02*
X133110000Y-75110000D01*
X121435000Y-68985000D02*
X119785000Y-68985000D01*
X121435000Y-69985000D02*
X121435000Y-68985000D01*
X121435000Y-68985000D02*
X121435000Y-68935000D01*
X121485000Y-68985000D02*
X127885000Y-68985000D01*
X121435000Y-68935000D02*
X121485000Y-68985000D01*
X111650000Y-72750000D02*
X111650000Y-75350000D01*
X111650000Y-75350000D02*
X111985000Y-75685000D01*
X111985000Y-75685000D02*
X120335000Y-75685000D01*
X123235000Y-75685000D02*
X123810000Y-75110000D01*
X120335000Y-75685000D02*
X123235000Y-75685000D01*
X139910000Y-75110000D02*
X136100000Y-75110000D01*
X127885000Y-68985000D02*
X126885000Y-68985000D01*
X126885000Y-68985000D02*
X126785000Y-69085000D01*
X126785000Y-69085000D02*
X126785000Y-71085000D01*
X126785000Y-71085000D02*
X127785000Y-72085000D01*
X127785000Y-72085000D02*
X130085000Y-72085000D01*
X130085000Y-72085000D02*
X133110000Y-75110000D01*
X133110000Y-75110000D02*
X136100000Y-75110000D01*
X123435000Y-73585000D02*
X123435000Y-74735000D01*
X123435000Y-74735000D02*
X123810000Y-75110000D01*
X123810000Y-75110000D02*
X136100000Y-75110000D01*
X121435000Y-69985000D02*
X121435000Y-67885000D01*
X108950000Y-72050000D02*
X108950000Y-73750000D01*
X111650000Y-74020000D02*
X111650000Y-72750000D01*
X111585000Y-74085000D02*
X111650000Y-74020000D01*
X109285000Y-74085000D02*
X111585000Y-74085000D01*
X108950000Y-73750000D02*
X109285000Y-74085000D01*
X105200000Y-73470000D02*
X107000000Y-73470000D01*
X108420000Y-72050000D02*
X107000000Y-73470000D01*
X108420000Y-72050000D02*
X108950000Y-72050000D01*
X139910000Y-108570000D02*
X136100000Y-108570000D01*
X123385000Y-101785000D02*
X125635000Y-101785000D01*
X125635000Y-101785000D02*
X127885000Y-104035000D01*
X136100000Y-108570000D02*
X132870000Y-108570000D01*
X128985000Y-105985000D02*
X128985000Y-105935000D01*
X130285000Y-105985000D02*
X128985000Y-105985000D01*
X132870000Y-108570000D02*
X130285000Y-105985000D01*
X127885000Y-104035000D02*
X129135000Y-104035000D01*
X129135000Y-104035000D02*
X129485000Y-104385000D01*
X129485000Y-104385000D02*
X129485000Y-105785000D01*
X129485000Y-105785000D02*
X129335000Y-105935000D01*
X129335000Y-105935000D02*
X128985000Y-105935000D01*
X128985000Y-105935000D02*
X127885000Y-105935000D01*
X105200000Y-104390000D02*
X106180000Y-104390000D01*
X106180000Y-104390000D02*
X108785000Y-101785000D01*
X108785000Y-101785000D02*
X123385000Y-101785000D01*
X123385000Y-101785000D02*
X123335000Y-101835000D01*
X123335000Y-101835000D02*
X123335000Y-103885000D01*
X139910000Y-96570000D02*
X136100000Y-96570000D01*
X123385000Y-89785000D02*
X125635000Y-89785000D01*
X125635000Y-89785000D02*
X127885000Y-92035000D01*
X136100000Y-96570000D02*
X132870000Y-96570000D01*
X128985000Y-93985000D02*
X128985000Y-93935000D01*
X130285000Y-93985000D02*
X128985000Y-93985000D01*
X132870000Y-96570000D02*
X130285000Y-93985000D01*
X127885000Y-92035000D02*
X129135000Y-92035000D01*
X129135000Y-92035000D02*
X129485000Y-92385000D01*
X129485000Y-92385000D02*
X129485000Y-93785000D01*
X129485000Y-93785000D02*
X129335000Y-93935000D01*
X129335000Y-93935000D02*
X128985000Y-93935000D01*
X128985000Y-93935000D02*
X127885000Y-93935000D01*
X105200000Y-92390000D02*
X106180000Y-92390000D01*
X106180000Y-92390000D02*
X108785000Y-89785000D01*
X108785000Y-89785000D02*
X123385000Y-89785000D01*
X123385000Y-89785000D02*
X123335000Y-89835000D01*
X123335000Y-89835000D02*
X123335000Y-91885000D01*
X139910000Y-84570000D02*
X136100000Y-84570000D01*
X123385000Y-77785000D02*
X125635000Y-77785000D01*
X125635000Y-77785000D02*
X127885000Y-80035000D01*
X136100000Y-84570000D02*
X132870000Y-84570000D01*
X128985000Y-81985000D02*
X128985000Y-81935000D01*
X130285000Y-81985000D02*
X128985000Y-81985000D01*
X132870000Y-84570000D02*
X130285000Y-81985000D01*
X127885000Y-80035000D02*
X129135000Y-80035000D01*
X129135000Y-80035000D02*
X129485000Y-80385000D01*
X129485000Y-80385000D02*
X129485000Y-81785000D01*
X129485000Y-81785000D02*
X129335000Y-81935000D01*
X129335000Y-81935000D02*
X128985000Y-81935000D01*
X128985000Y-81935000D02*
X127885000Y-81935000D01*
X105200000Y-80390000D02*
X106180000Y-80390000D01*
X106180000Y-80390000D02*
X108785000Y-77785000D01*
X108785000Y-77785000D02*
X123385000Y-77785000D01*
X123385000Y-77785000D02*
X123335000Y-77835000D01*
X123335000Y-77835000D02*
X123335000Y-79885000D01*
X139910000Y-72570000D02*
X136100000Y-72570000D01*
X123385000Y-65785000D02*
X125635000Y-65785000D01*
X125635000Y-65785000D02*
X127885000Y-68035000D01*
X136100000Y-72570000D02*
X132870000Y-72570000D01*
X128985000Y-69985000D02*
X128985000Y-69935000D01*
X130285000Y-69985000D02*
X128985000Y-69985000D01*
X132870000Y-72570000D02*
X130285000Y-69985000D01*
X127885000Y-68035000D02*
X129135000Y-68035000D01*
X129135000Y-68035000D02*
X129485000Y-68385000D01*
X129485000Y-68385000D02*
X129485000Y-69785000D01*
X129485000Y-69785000D02*
X129335000Y-69935000D01*
X129335000Y-69935000D02*
X128985000Y-69935000D01*
X128985000Y-69935000D02*
X127885000Y-69935000D01*
X105200000Y-68390000D02*
X106180000Y-68390000D01*
X106180000Y-68390000D02*
X108785000Y-65785000D01*
X108785000Y-65785000D02*
X123385000Y-65785000D01*
X123385000Y-65785000D02*
X123335000Y-65835000D01*
X123335000Y-65835000D02*
X123335000Y-67885000D01*
X115485000Y-106085000D02*
X116785000Y-106085000D01*
X116785000Y-106085000D02*
X116885000Y-106185000D01*
X112150000Y-110150000D02*
X112150000Y-108750000D01*
X112485000Y-110485000D02*
X112150000Y-110150000D01*
X123335000Y-105985000D02*
X123335000Y-106735000D01*
X119385000Y-107085000D02*
X118385000Y-106085000D01*
X122985000Y-107085000D02*
X119385000Y-107085000D01*
X123335000Y-106735000D02*
X122985000Y-107085000D01*
X125685000Y-105935000D02*
X123385000Y-105935000D01*
X123385000Y-105935000D02*
X123335000Y-105985000D01*
X115485000Y-106085000D02*
X118385000Y-106085000D01*
X127985000Y-109585000D02*
X126285000Y-107885000D01*
X125685000Y-107285000D02*
X125685000Y-105935000D01*
X126285000Y-107885000D02*
X125685000Y-107285000D01*
X115485000Y-94085000D02*
X116785000Y-94085000D01*
X116785000Y-94085000D02*
X116885000Y-94185000D01*
X112150000Y-98150000D02*
X112150000Y-96750000D01*
X112485000Y-98485000D02*
X112150000Y-98150000D01*
X123335000Y-93985000D02*
X123335000Y-94735000D01*
X119385000Y-95085000D02*
X118385000Y-94085000D01*
X122985000Y-95085000D02*
X119385000Y-95085000D01*
X123335000Y-94735000D02*
X122985000Y-95085000D01*
X125685000Y-93935000D02*
X123385000Y-93935000D01*
X123385000Y-93935000D02*
X123335000Y-93985000D01*
X115485000Y-94085000D02*
X118385000Y-94085000D01*
X127985000Y-97585000D02*
X126285000Y-95885000D01*
X125685000Y-95285000D02*
X125685000Y-93935000D01*
X126285000Y-95885000D02*
X125685000Y-95285000D01*
X115485000Y-82085000D02*
X116785000Y-82085000D01*
X116785000Y-82085000D02*
X116885000Y-82185000D01*
X112150000Y-86150000D02*
X112150000Y-84750000D01*
X112485000Y-86485000D02*
X112150000Y-86150000D01*
X123335000Y-81985000D02*
X123335000Y-82735000D01*
X119385000Y-83085000D02*
X118385000Y-82085000D01*
X122985000Y-83085000D02*
X119385000Y-83085000D01*
X123335000Y-82735000D02*
X122985000Y-83085000D01*
X125685000Y-81935000D02*
X123385000Y-81935000D01*
X123385000Y-81935000D02*
X123335000Y-81985000D01*
X115485000Y-82085000D02*
X118385000Y-82085000D01*
X127985000Y-85585000D02*
X126285000Y-83885000D01*
X125685000Y-83285000D02*
X125685000Y-81935000D01*
X126285000Y-83885000D02*
X125685000Y-83285000D01*
X115485000Y-70085000D02*
X116785000Y-70085000D01*
X116785000Y-70085000D02*
X116885000Y-70185000D01*
X112150000Y-74150000D02*
X112150000Y-72750000D01*
X112485000Y-74485000D02*
X112150000Y-74150000D01*
X123335000Y-69985000D02*
X123335000Y-70735000D01*
X119385000Y-71085000D02*
X118385000Y-70085000D01*
X122985000Y-71085000D02*
X119385000Y-71085000D01*
X123335000Y-70735000D02*
X122985000Y-71085000D01*
X125685000Y-69935000D02*
X123385000Y-69935000D01*
X123385000Y-69935000D02*
X123335000Y-69985000D01*
X115485000Y-70085000D02*
X118385000Y-70085000D01*
X127985000Y-73585000D02*
X126285000Y-71885000D01*
X125685000Y-71285000D02*
X125685000Y-69935000D01*
X126285000Y-71885000D02*
X125685000Y-71285000D01*
X112850000Y-107550000D02*
X114210000Y-107550000D01*
X114210000Y-107550000D02*
X115845000Y-109185000D01*
X112850000Y-95550000D02*
X114210000Y-95550000D01*
X114210000Y-95550000D02*
X115845000Y-97185000D01*
X112850000Y-83550000D02*
X114210000Y-83550000D01*
X114210000Y-83550000D02*
X115845000Y-85185000D01*
X112850000Y-71550000D02*
X114210000Y-71550000D01*
X114210000Y-71550000D02*
X115845000Y-73185000D01*
X136100000Y-106030000D02*
X133730000Y-106030000D01*
X133730000Y-106030000D02*
X133135000Y-105435000D01*
X115485000Y-103885000D02*
X116935000Y-103885000D01*
X131585000Y-103885000D02*
X131885000Y-104185000D01*
X131885000Y-104185000D02*
X132085000Y-104385000D01*
X132085000Y-104385000D02*
X133135000Y-105435000D01*
X133135000Y-105435000D02*
X133330000Y-105630000D01*
X115485000Y-103885000D02*
X116285000Y-103885000D01*
X139910000Y-106030000D02*
X136100000Y-106030000D01*
X111150000Y-104850000D02*
X111150000Y-103320000D01*
X114585000Y-102985000D02*
X115485000Y-103885000D01*
X111485000Y-102985000D02*
X114585000Y-102985000D01*
X111150000Y-103320000D02*
X111485000Y-102985000D01*
X136100000Y-94030000D02*
X133730000Y-94030000D01*
X133730000Y-94030000D02*
X133135000Y-93435000D01*
X115485000Y-91885000D02*
X116935000Y-91885000D01*
X131585000Y-91885000D02*
X131885000Y-92185000D01*
X131885000Y-92185000D02*
X132085000Y-92385000D01*
X132085000Y-92385000D02*
X133135000Y-93435000D01*
X133135000Y-93435000D02*
X133330000Y-93630000D01*
X115485000Y-91885000D02*
X116285000Y-91885000D01*
X139910000Y-94030000D02*
X136100000Y-94030000D01*
X111150000Y-92850000D02*
X111150000Y-91320000D01*
X114585000Y-90985000D02*
X115485000Y-91885000D01*
X111485000Y-90985000D02*
X114585000Y-90985000D01*
X111150000Y-91320000D02*
X111485000Y-90985000D01*
X136100000Y-82030000D02*
X133730000Y-82030000D01*
X133730000Y-82030000D02*
X133135000Y-81435000D01*
X115485000Y-79885000D02*
X116935000Y-79885000D01*
X131585000Y-79885000D02*
X131885000Y-80185000D01*
X131885000Y-80185000D02*
X132085000Y-80385000D01*
X132085000Y-80385000D02*
X133135000Y-81435000D01*
X133135000Y-81435000D02*
X133330000Y-81630000D01*
X115485000Y-79885000D02*
X116285000Y-79885000D01*
X139910000Y-82030000D02*
X136100000Y-82030000D01*
X111150000Y-80850000D02*
X111150000Y-79320000D01*
X114585000Y-78985000D02*
X115485000Y-79885000D01*
X111485000Y-78985000D02*
X114585000Y-78985000D01*
X111150000Y-79320000D02*
X111485000Y-78985000D01*
X136100000Y-70030000D02*
X133730000Y-70030000D01*
X133730000Y-70030000D02*
X133135000Y-69435000D01*
X115485000Y-67885000D02*
X116935000Y-67885000D01*
X131585000Y-67885000D02*
X131885000Y-68185000D01*
X131885000Y-68185000D02*
X132085000Y-68385000D01*
X132085000Y-68385000D02*
X133135000Y-69435000D01*
X133135000Y-69435000D02*
X133330000Y-69630000D01*
X115485000Y-67885000D02*
X116285000Y-67885000D01*
X139910000Y-70030000D02*
X136100000Y-70030000D01*
X111150000Y-68850000D02*
X111150000Y-67320000D01*
X114585000Y-66985000D02*
X115485000Y-67885000D01*
X111485000Y-66985000D02*
X114585000Y-66985000D01*
X111150000Y-67320000D02*
X111485000Y-66985000D01*
X118385000Y-103885000D02*
X118885000Y-103885000D01*
X132290000Y-103490000D02*
X136100000Y-103490000D01*
X131735000Y-102935000D02*
X132290000Y-103490000D01*
X118885000Y-103885000D02*
X119835000Y-102935000D01*
X139910000Y-103490000D02*
X136100000Y-103490000D01*
X110650000Y-104850000D02*
X110650000Y-102720000D01*
X118385000Y-102885000D02*
X118385000Y-103885000D01*
X117785000Y-102285000D02*
X118385000Y-102885000D01*
X111085000Y-102285000D02*
X117785000Y-102285000D01*
X110650000Y-102720000D02*
X111085000Y-102285000D01*
X118385000Y-91885000D02*
X118885000Y-91885000D01*
X132290000Y-91490000D02*
X136100000Y-91490000D01*
X131735000Y-90935000D02*
X132290000Y-91490000D01*
X118885000Y-91885000D02*
X119835000Y-90935000D01*
X139910000Y-91490000D02*
X136100000Y-91490000D01*
X110650000Y-92850000D02*
X110650000Y-90720000D01*
X118385000Y-90885000D02*
X118385000Y-91885000D01*
X117785000Y-90285000D02*
X118385000Y-90885000D01*
X111085000Y-90285000D02*
X117785000Y-90285000D01*
X110650000Y-90720000D02*
X111085000Y-90285000D01*
X118385000Y-79885000D02*
X118885000Y-79885000D01*
X132290000Y-79490000D02*
X136100000Y-79490000D01*
X131735000Y-78935000D02*
X132290000Y-79490000D01*
X118885000Y-79885000D02*
X119835000Y-78935000D01*
X139910000Y-79490000D02*
X136100000Y-79490000D01*
X110650000Y-80850000D02*
X110650000Y-78720000D01*
X118385000Y-78885000D02*
X118385000Y-79885000D01*
X117785000Y-78285000D02*
X118385000Y-78885000D01*
X111085000Y-78285000D02*
X117785000Y-78285000D01*
X110650000Y-78720000D02*
X111085000Y-78285000D01*
X118385000Y-67885000D02*
X118885000Y-67885000D01*
X132290000Y-67490000D02*
X136100000Y-67490000D01*
X131735000Y-66935000D02*
X132290000Y-67490000D01*
X118885000Y-67885000D02*
X119835000Y-66935000D01*
X139910000Y-67490000D02*
X136100000Y-67490000D01*
X110650000Y-68850000D02*
X110650000Y-66720000D01*
X118385000Y-66885000D02*
X118385000Y-67885000D01*
X117785000Y-66285000D02*
X118385000Y-66885000D01*
X111085000Y-66285000D02*
X117785000Y-66285000D01*
X110650000Y-66720000D02*
X111085000Y-66285000D01*
X108950000Y-107550000D02*
X107550000Y-107550000D01*
X106930000Y-106930000D02*
X105200000Y-106930000D01*
X107550000Y-107550000D02*
X106930000Y-106930000D01*
X108950000Y-95550000D02*
X107550000Y-95550000D01*
X106930000Y-94930000D02*
X105200000Y-94930000D01*
X107550000Y-95550000D02*
X106930000Y-94930000D01*
X108950000Y-83550000D02*
X107550000Y-83550000D01*
X106930000Y-82930000D02*
X105200000Y-82930000D01*
X107550000Y-83550000D02*
X106930000Y-82930000D01*
X108950000Y-71550000D02*
X107550000Y-71550000D01*
X106930000Y-70930000D02*
X105200000Y-70930000D01*
X107550000Y-71550000D02*
X106930000Y-70930000D01*
M02*
