G04 #@! TF.FileFunction,Legend,Top*
%FSLAX46Y46*%
G04 Gerber Fmt 4.6, Leading zero omitted, Abs format (unit mm)*
G04 Created by KiCad (PCBNEW 4.0.2-stable) date 12.07.2016 15:23:50*
%MOMM*%
G01*
G04 APERTURE LIST*
%ADD10C,0.100000*%
%ADD11C,0.150000*%
%ADD12C,0.127000*%
G04 APERTURE END LIST*
D10*
D11*
X143615000Y-115955000D02*
X141075000Y-115955000D01*
X146435000Y-116235000D02*
X144885000Y-116235000D01*
X143615000Y-115955000D02*
X143615000Y-113415000D01*
X144885000Y-113135000D02*
X146435000Y-113135000D01*
X146435000Y-113135000D02*
X146435000Y-116235000D01*
X143615000Y-113415000D02*
X141075000Y-113415000D01*
X141075000Y-113415000D02*
X141075000Y-115955000D01*
X164400000Y-108270000D02*
X164400000Y-118430000D01*
X164400000Y-118430000D02*
X155510000Y-118430000D01*
X155510000Y-118430000D02*
X155510000Y-108270000D01*
X155510000Y-108270000D02*
X164400000Y-108270000D01*
X152035000Y-112735000D02*
G75*
G03X152035000Y-112735000I-100000J0D01*
G01*
X151385000Y-112485000D02*
X151885000Y-112485000D01*
X151385000Y-109585000D02*
X151385000Y-112485000D01*
X151885000Y-109585000D02*
X151385000Y-109585000D01*
X151885000Y-112485000D02*
X151885000Y-109585000D01*
X129690000Y-109170000D02*
X124610000Y-109170000D01*
X124610000Y-109170000D02*
X124610000Y-116790000D01*
X124610000Y-116790000D02*
X129690000Y-116790000D01*
X129690000Y-116790000D02*
X129690000Y-109170000D01*
X138035000Y-115935000D02*
X137510000Y-115935000D01*
X131735000Y-109635000D02*
X132260000Y-109635000D01*
X131735000Y-115935000D02*
X132260000Y-115935000D01*
X138035000Y-109635000D02*
X138035000Y-110160000D01*
X131735000Y-109635000D02*
X131735000Y-110160000D01*
X131735000Y-115935000D02*
X131735000Y-115410000D01*
X138035000Y-115935000D02*
X138035000Y-115410000D01*
X152010000Y-116035000D02*
X152010000Y-115035000D01*
X153360000Y-115035000D02*
X153360000Y-116035000D01*
X146060000Y-110285000D02*
X146060000Y-111285000D01*
X144710000Y-111285000D02*
X144710000Y-110285000D01*
X143410000Y-110285000D02*
X143410000Y-111285000D01*
X142060000Y-111285000D02*
X142060000Y-110285000D01*
X148635000Y-110385000D02*
X148635000Y-111085000D01*
X147435000Y-111085000D02*
X147435000Y-110385000D01*
X147435000Y-115835000D02*
X147435000Y-115135000D01*
X148635000Y-115135000D02*
X148635000Y-115835000D01*
X149735000Y-115885000D02*
X149735000Y-115185000D01*
X150935000Y-115185000D02*
X150935000Y-115885000D01*
X143665000Y-103905000D02*
X141125000Y-103905000D01*
X146485000Y-104185000D02*
X144935000Y-104185000D01*
X143665000Y-103905000D02*
X143665000Y-101365000D01*
X144935000Y-101085000D02*
X146485000Y-101085000D01*
X146485000Y-101085000D02*
X146485000Y-104185000D01*
X143665000Y-101365000D02*
X141125000Y-101365000D01*
X141125000Y-101365000D02*
X141125000Y-103905000D01*
X164450000Y-96220000D02*
X164450000Y-106380000D01*
X164450000Y-106380000D02*
X155560000Y-106380000D01*
X155560000Y-106380000D02*
X155560000Y-96220000D01*
X155560000Y-96220000D02*
X164450000Y-96220000D01*
X152085000Y-100685000D02*
G75*
G03X152085000Y-100685000I-100000J0D01*
G01*
X151435000Y-100435000D02*
X151935000Y-100435000D01*
X151435000Y-97535000D02*
X151435000Y-100435000D01*
X151935000Y-97535000D02*
X151435000Y-97535000D01*
X151935000Y-100435000D02*
X151935000Y-97535000D01*
X129740000Y-97120000D02*
X124660000Y-97120000D01*
X124660000Y-97120000D02*
X124660000Y-104740000D01*
X124660000Y-104740000D02*
X129740000Y-104740000D01*
X129740000Y-104740000D02*
X129740000Y-97120000D01*
X138085000Y-103885000D02*
X137560000Y-103885000D01*
X131785000Y-97585000D02*
X132310000Y-97585000D01*
X131785000Y-103885000D02*
X132310000Y-103885000D01*
X138085000Y-97585000D02*
X138085000Y-98110000D01*
X131785000Y-97585000D02*
X131785000Y-98110000D01*
X131785000Y-103885000D02*
X131785000Y-103360000D01*
X138085000Y-103885000D02*
X138085000Y-103360000D01*
X152060000Y-103985000D02*
X152060000Y-102985000D01*
X153410000Y-102985000D02*
X153410000Y-103985000D01*
X146110000Y-98235000D02*
X146110000Y-99235000D01*
X144760000Y-99235000D02*
X144760000Y-98235000D01*
X143460000Y-98235000D02*
X143460000Y-99235000D01*
X142110000Y-99235000D02*
X142110000Y-98235000D01*
X148685000Y-98335000D02*
X148685000Y-99035000D01*
X147485000Y-99035000D02*
X147485000Y-98335000D01*
X147485000Y-103785000D02*
X147485000Y-103085000D01*
X148685000Y-103085000D02*
X148685000Y-103785000D01*
X149785000Y-103835000D02*
X149785000Y-103135000D01*
X150985000Y-103135000D02*
X150985000Y-103835000D01*
X143665000Y-91905000D02*
X141125000Y-91905000D01*
X146485000Y-92185000D02*
X144935000Y-92185000D01*
X143665000Y-91905000D02*
X143665000Y-89365000D01*
X144935000Y-89085000D02*
X146485000Y-89085000D01*
X146485000Y-89085000D02*
X146485000Y-92185000D01*
X143665000Y-89365000D02*
X141125000Y-89365000D01*
X141125000Y-89365000D02*
X141125000Y-91905000D01*
X164450000Y-84220000D02*
X164450000Y-94380000D01*
X164450000Y-94380000D02*
X155560000Y-94380000D01*
X155560000Y-94380000D02*
X155560000Y-84220000D01*
X155560000Y-84220000D02*
X164450000Y-84220000D01*
X152085000Y-88685000D02*
G75*
G03X152085000Y-88685000I-100000J0D01*
G01*
X151435000Y-88435000D02*
X151935000Y-88435000D01*
X151435000Y-85535000D02*
X151435000Y-88435000D01*
X151935000Y-85535000D02*
X151435000Y-85535000D01*
X151935000Y-88435000D02*
X151935000Y-85535000D01*
X129740000Y-85120000D02*
X124660000Y-85120000D01*
X124660000Y-85120000D02*
X124660000Y-92740000D01*
X124660000Y-92740000D02*
X129740000Y-92740000D01*
X129740000Y-92740000D02*
X129740000Y-85120000D01*
X138085000Y-91885000D02*
X137560000Y-91885000D01*
X131785000Y-85585000D02*
X132310000Y-85585000D01*
X131785000Y-91885000D02*
X132310000Y-91885000D01*
X138085000Y-85585000D02*
X138085000Y-86110000D01*
X131785000Y-85585000D02*
X131785000Y-86110000D01*
X131785000Y-91885000D02*
X131785000Y-91360000D01*
X138085000Y-91885000D02*
X138085000Y-91360000D01*
X152060000Y-91985000D02*
X152060000Y-90985000D01*
X153410000Y-90985000D02*
X153410000Y-91985000D01*
X146110000Y-86235000D02*
X146110000Y-87235000D01*
X144760000Y-87235000D02*
X144760000Y-86235000D01*
X143460000Y-86235000D02*
X143460000Y-87235000D01*
X142110000Y-87235000D02*
X142110000Y-86235000D01*
X148685000Y-86335000D02*
X148685000Y-87035000D01*
X147485000Y-87035000D02*
X147485000Y-86335000D01*
X147485000Y-91785000D02*
X147485000Y-91085000D01*
X148685000Y-91085000D02*
X148685000Y-91785000D01*
X149785000Y-91835000D02*
X149785000Y-91135000D01*
X150985000Y-91135000D02*
X150985000Y-91835000D01*
X143665000Y-79905000D02*
X141125000Y-79905000D01*
X146485000Y-80185000D02*
X144935000Y-80185000D01*
X143665000Y-79905000D02*
X143665000Y-77365000D01*
X144935000Y-77085000D02*
X146485000Y-77085000D01*
X146485000Y-77085000D02*
X146485000Y-80185000D01*
X143665000Y-77365000D02*
X141125000Y-77365000D01*
X141125000Y-77365000D02*
X141125000Y-79905000D01*
X164450000Y-72220000D02*
X164450000Y-82380000D01*
X164450000Y-82380000D02*
X155560000Y-82380000D01*
X155560000Y-82380000D02*
X155560000Y-72220000D01*
X155560000Y-72220000D02*
X164450000Y-72220000D01*
X152085000Y-76685000D02*
G75*
G03X152085000Y-76685000I-100000J0D01*
G01*
X151435000Y-76435000D02*
X151935000Y-76435000D01*
X151435000Y-73535000D02*
X151435000Y-76435000D01*
X151935000Y-73535000D02*
X151435000Y-73535000D01*
X151935000Y-76435000D02*
X151935000Y-73535000D01*
X129740000Y-73120000D02*
X124660000Y-73120000D01*
X124660000Y-73120000D02*
X124660000Y-80740000D01*
X124660000Y-80740000D02*
X129740000Y-80740000D01*
X129740000Y-80740000D02*
X129740000Y-73120000D01*
X138085000Y-79885000D02*
X137560000Y-79885000D01*
X131785000Y-73585000D02*
X132310000Y-73585000D01*
X131785000Y-79885000D02*
X132310000Y-79885000D01*
X138085000Y-73585000D02*
X138085000Y-74110000D01*
X131785000Y-73585000D02*
X131785000Y-74110000D01*
X131785000Y-79885000D02*
X131785000Y-79360000D01*
X138085000Y-79885000D02*
X138085000Y-79360000D01*
X152060000Y-79985000D02*
X152060000Y-78985000D01*
X153410000Y-78985000D02*
X153410000Y-79985000D01*
X146110000Y-74235000D02*
X146110000Y-75235000D01*
X144760000Y-75235000D02*
X144760000Y-74235000D01*
X143460000Y-74235000D02*
X143460000Y-75235000D01*
X142110000Y-75235000D02*
X142110000Y-74235000D01*
X148685000Y-74335000D02*
X148685000Y-75035000D01*
X147485000Y-75035000D02*
X147485000Y-74335000D01*
X147485000Y-79785000D02*
X147485000Y-79085000D01*
X148685000Y-79085000D02*
X148685000Y-79785000D01*
X149785000Y-79835000D02*
X149785000Y-79135000D01*
X150985000Y-79135000D02*
X150985000Y-79835000D01*
X141346905Y-117537381D02*
X141346905Y-116537381D01*
X141727858Y-116537381D01*
X141823096Y-116585000D01*
X141870715Y-116632619D01*
X141918334Y-116727857D01*
X141918334Y-116870714D01*
X141870715Y-116965952D01*
X141823096Y-117013571D01*
X141727858Y-117061190D01*
X141346905Y-117061190D01*
X142870715Y-117537381D02*
X142299286Y-117537381D01*
X142585000Y-117537381D02*
X142585000Y-116537381D01*
X142489762Y-116680238D01*
X142394524Y-116775476D01*
X142299286Y-116823095D01*
D12*
X165379714Y-118347428D02*
X164617714Y-118347428D01*
X164617714Y-118057143D01*
X164654000Y-117984571D01*
X164690286Y-117948286D01*
X164762857Y-117912000D01*
X164871714Y-117912000D01*
X164944286Y-117948286D01*
X164980571Y-117984571D01*
X165016857Y-118057143D01*
X165016857Y-118347428D01*
X164690286Y-117621714D02*
X164654000Y-117585428D01*
X164617714Y-117512857D01*
X164617714Y-117331428D01*
X164654000Y-117258857D01*
X164690286Y-117222571D01*
X164762857Y-117186286D01*
X164835429Y-117186286D01*
X164944286Y-117222571D01*
X165379714Y-117658000D01*
X165379714Y-117186286D01*
D11*
X149723095Y-108287381D02*
X149723095Y-109096905D01*
X149770714Y-109192143D01*
X149818333Y-109239762D01*
X149913571Y-109287381D01*
X150104048Y-109287381D01*
X150199286Y-109239762D01*
X150246905Y-109192143D01*
X150294524Y-109096905D01*
X150294524Y-108287381D01*
X151294524Y-109287381D02*
X150723095Y-109287381D01*
X151008809Y-109287381D02*
X151008809Y-108287381D01*
X150913571Y-108430238D01*
X150818333Y-108525476D01*
X150723095Y-108573095D01*
D12*
X130679714Y-117197428D02*
X129917714Y-117197428D01*
X129917714Y-116907143D01*
X129954000Y-116834571D01*
X129990286Y-116798286D01*
X130062857Y-116762000D01*
X130171714Y-116762000D01*
X130244286Y-116798286D01*
X130280571Y-116834571D01*
X130316857Y-116907143D01*
X130316857Y-117197428D01*
X129917714Y-116508000D02*
X129917714Y-116036286D01*
X130208000Y-116290286D01*
X130208000Y-116181428D01*
X130244286Y-116108857D01*
X130280571Y-116072571D01*
X130353143Y-116036286D01*
X130534571Y-116036286D01*
X130607143Y-116072571D01*
X130643429Y-116108857D01*
X130679714Y-116181428D01*
X130679714Y-116399143D01*
X130643429Y-116471714D01*
X130607143Y-116508000D01*
D11*
X138587381Y-113546905D02*
X139396905Y-113546905D01*
X139492143Y-113499286D01*
X139539762Y-113451667D01*
X139587381Y-113356429D01*
X139587381Y-113165952D01*
X139539762Y-113070714D01*
X139492143Y-113023095D01*
X139396905Y-112975476D01*
X138587381Y-112975476D01*
X138682619Y-112546905D02*
X138635000Y-112499286D01*
X138587381Y-112404048D01*
X138587381Y-112165952D01*
X138635000Y-112070714D01*
X138682619Y-112023095D01*
X138777857Y-111975476D01*
X138873095Y-111975476D01*
X139015952Y-112023095D01*
X139587381Y-112594524D01*
X139587381Y-111975476D01*
X152618334Y-118037381D02*
X152285000Y-117561190D01*
X152046905Y-118037381D02*
X152046905Y-117037381D01*
X152427858Y-117037381D01*
X152523096Y-117085000D01*
X152570715Y-117132619D01*
X152618334Y-117227857D01*
X152618334Y-117370714D01*
X152570715Y-117465952D01*
X152523096Y-117513571D01*
X152427858Y-117561190D01*
X152046905Y-117561190D01*
X153570715Y-118037381D02*
X152999286Y-118037381D01*
X153285000Y-118037381D02*
X153285000Y-117037381D01*
X153189762Y-117180238D01*
X153094524Y-117275476D01*
X152999286Y-117323095D01*
X145268334Y-109187381D02*
X144935000Y-108711190D01*
X144696905Y-109187381D02*
X144696905Y-108187381D01*
X145077858Y-108187381D01*
X145173096Y-108235000D01*
X145220715Y-108282619D01*
X145268334Y-108377857D01*
X145268334Y-108520714D01*
X145220715Y-108615952D01*
X145173096Y-108663571D01*
X145077858Y-108711190D01*
X144696905Y-108711190D01*
X145601667Y-108187381D02*
X146220715Y-108187381D01*
X145887381Y-108568333D01*
X146030239Y-108568333D01*
X146125477Y-108615952D01*
X146173096Y-108663571D01*
X146220715Y-108758810D01*
X146220715Y-108996905D01*
X146173096Y-109092143D01*
X146125477Y-109139762D01*
X146030239Y-109187381D01*
X145744524Y-109187381D01*
X145649286Y-109139762D01*
X145601667Y-109092143D01*
X142668334Y-109187381D02*
X142335000Y-108711190D01*
X142096905Y-109187381D02*
X142096905Y-108187381D01*
X142477858Y-108187381D01*
X142573096Y-108235000D01*
X142620715Y-108282619D01*
X142668334Y-108377857D01*
X142668334Y-108520714D01*
X142620715Y-108615952D01*
X142573096Y-108663571D01*
X142477858Y-108711190D01*
X142096905Y-108711190D01*
X143049286Y-108282619D02*
X143096905Y-108235000D01*
X143192143Y-108187381D01*
X143430239Y-108187381D01*
X143525477Y-108235000D01*
X143573096Y-108282619D01*
X143620715Y-108377857D01*
X143620715Y-108473095D01*
X143573096Y-108615952D01*
X143001667Y-109187381D01*
X143620715Y-109187381D01*
X147818334Y-108992143D02*
X147770715Y-109039762D01*
X147627858Y-109087381D01*
X147532620Y-109087381D01*
X147389762Y-109039762D01*
X147294524Y-108944524D01*
X147246905Y-108849286D01*
X147199286Y-108658810D01*
X147199286Y-108515952D01*
X147246905Y-108325476D01*
X147294524Y-108230238D01*
X147389762Y-108135000D01*
X147532620Y-108087381D01*
X147627858Y-108087381D01*
X147770715Y-108135000D01*
X147818334Y-108182619D01*
X148199286Y-108182619D02*
X148246905Y-108135000D01*
X148342143Y-108087381D01*
X148580239Y-108087381D01*
X148675477Y-108135000D01*
X148723096Y-108182619D01*
X148770715Y-108277857D01*
X148770715Y-108373095D01*
X148723096Y-108515952D01*
X148151667Y-109087381D01*
X148770715Y-109087381D01*
X147868334Y-117992143D02*
X147820715Y-118039762D01*
X147677858Y-118087381D01*
X147582620Y-118087381D01*
X147439762Y-118039762D01*
X147344524Y-117944524D01*
X147296905Y-117849286D01*
X147249286Y-117658810D01*
X147249286Y-117515952D01*
X147296905Y-117325476D01*
X147344524Y-117230238D01*
X147439762Y-117135000D01*
X147582620Y-117087381D01*
X147677858Y-117087381D01*
X147820715Y-117135000D01*
X147868334Y-117182619D01*
X148201667Y-117087381D02*
X148820715Y-117087381D01*
X148487381Y-117468333D01*
X148630239Y-117468333D01*
X148725477Y-117515952D01*
X148773096Y-117563571D01*
X148820715Y-117658810D01*
X148820715Y-117896905D01*
X148773096Y-117992143D01*
X148725477Y-118039762D01*
X148630239Y-118087381D01*
X148344524Y-118087381D01*
X148249286Y-118039762D01*
X148201667Y-117992143D01*
X150218334Y-118042143D02*
X150170715Y-118089762D01*
X150027858Y-118137381D01*
X149932620Y-118137381D01*
X149789762Y-118089762D01*
X149694524Y-117994524D01*
X149646905Y-117899286D01*
X149599286Y-117708810D01*
X149599286Y-117565952D01*
X149646905Y-117375476D01*
X149694524Y-117280238D01*
X149789762Y-117185000D01*
X149932620Y-117137381D01*
X150027858Y-117137381D01*
X150170715Y-117185000D01*
X150218334Y-117232619D01*
X151170715Y-118137381D02*
X150599286Y-118137381D01*
X150885000Y-118137381D02*
X150885000Y-117137381D01*
X150789762Y-117280238D01*
X150694524Y-117375476D01*
X150599286Y-117423095D01*
X141396905Y-105487381D02*
X141396905Y-104487381D01*
X141777858Y-104487381D01*
X141873096Y-104535000D01*
X141920715Y-104582619D01*
X141968334Y-104677857D01*
X141968334Y-104820714D01*
X141920715Y-104915952D01*
X141873096Y-104963571D01*
X141777858Y-105011190D01*
X141396905Y-105011190D01*
X142920715Y-105487381D02*
X142349286Y-105487381D01*
X142635000Y-105487381D02*
X142635000Y-104487381D01*
X142539762Y-104630238D01*
X142444524Y-104725476D01*
X142349286Y-104773095D01*
D12*
X165429714Y-106297428D02*
X164667714Y-106297428D01*
X164667714Y-106007143D01*
X164704000Y-105934571D01*
X164740286Y-105898286D01*
X164812857Y-105862000D01*
X164921714Y-105862000D01*
X164994286Y-105898286D01*
X165030571Y-105934571D01*
X165066857Y-106007143D01*
X165066857Y-106297428D01*
X164740286Y-105571714D02*
X164704000Y-105535428D01*
X164667714Y-105462857D01*
X164667714Y-105281428D01*
X164704000Y-105208857D01*
X164740286Y-105172571D01*
X164812857Y-105136286D01*
X164885429Y-105136286D01*
X164994286Y-105172571D01*
X165429714Y-105608000D01*
X165429714Y-105136286D01*
D11*
X149773095Y-96237381D02*
X149773095Y-97046905D01*
X149820714Y-97142143D01*
X149868333Y-97189762D01*
X149963571Y-97237381D01*
X150154048Y-97237381D01*
X150249286Y-97189762D01*
X150296905Y-97142143D01*
X150344524Y-97046905D01*
X150344524Y-96237381D01*
X151344524Y-97237381D02*
X150773095Y-97237381D01*
X151058809Y-97237381D02*
X151058809Y-96237381D01*
X150963571Y-96380238D01*
X150868333Y-96475476D01*
X150773095Y-96523095D01*
D12*
X130729714Y-105147428D02*
X129967714Y-105147428D01*
X129967714Y-104857143D01*
X130004000Y-104784571D01*
X130040286Y-104748286D01*
X130112857Y-104712000D01*
X130221714Y-104712000D01*
X130294286Y-104748286D01*
X130330571Y-104784571D01*
X130366857Y-104857143D01*
X130366857Y-105147428D01*
X129967714Y-104458000D02*
X129967714Y-103986286D01*
X130258000Y-104240286D01*
X130258000Y-104131428D01*
X130294286Y-104058857D01*
X130330571Y-104022571D01*
X130403143Y-103986286D01*
X130584571Y-103986286D01*
X130657143Y-104022571D01*
X130693429Y-104058857D01*
X130729714Y-104131428D01*
X130729714Y-104349143D01*
X130693429Y-104421714D01*
X130657143Y-104458000D01*
D11*
X138637381Y-101496905D02*
X139446905Y-101496905D01*
X139542143Y-101449286D01*
X139589762Y-101401667D01*
X139637381Y-101306429D01*
X139637381Y-101115952D01*
X139589762Y-101020714D01*
X139542143Y-100973095D01*
X139446905Y-100925476D01*
X138637381Y-100925476D01*
X138732619Y-100496905D02*
X138685000Y-100449286D01*
X138637381Y-100354048D01*
X138637381Y-100115952D01*
X138685000Y-100020714D01*
X138732619Y-99973095D01*
X138827857Y-99925476D01*
X138923095Y-99925476D01*
X139065952Y-99973095D01*
X139637381Y-100544524D01*
X139637381Y-99925476D01*
X152668334Y-105987381D02*
X152335000Y-105511190D01*
X152096905Y-105987381D02*
X152096905Y-104987381D01*
X152477858Y-104987381D01*
X152573096Y-105035000D01*
X152620715Y-105082619D01*
X152668334Y-105177857D01*
X152668334Y-105320714D01*
X152620715Y-105415952D01*
X152573096Y-105463571D01*
X152477858Y-105511190D01*
X152096905Y-105511190D01*
X153620715Y-105987381D02*
X153049286Y-105987381D01*
X153335000Y-105987381D02*
X153335000Y-104987381D01*
X153239762Y-105130238D01*
X153144524Y-105225476D01*
X153049286Y-105273095D01*
X145318334Y-97137381D02*
X144985000Y-96661190D01*
X144746905Y-97137381D02*
X144746905Y-96137381D01*
X145127858Y-96137381D01*
X145223096Y-96185000D01*
X145270715Y-96232619D01*
X145318334Y-96327857D01*
X145318334Y-96470714D01*
X145270715Y-96565952D01*
X145223096Y-96613571D01*
X145127858Y-96661190D01*
X144746905Y-96661190D01*
X145651667Y-96137381D02*
X146270715Y-96137381D01*
X145937381Y-96518333D01*
X146080239Y-96518333D01*
X146175477Y-96565952D01*
X146223096Y-96613571D01*
X146270715Y-96708810D01*
X146270715Y-96946905D01*
X146223096Y-97042143D01*
X146175477Y-97089762D01*
X146080239Y-97137381D01*
X145794524Y-97137381D01*
X145699286Y-97089762D01*
X145651667Y-97042143D01*
X142718334Y-97137381D02*
X142385000Y-96661190D01*
X142146905Y-97137381D02*
X142146905Y-96137381D01*
X142527858Y-96137381D01*
X142623096Y-96185000D01*
X142670715Y-96232619D01*
X142718334Y-96327857D01*
X142718334Y-96470714D01*
X142670715Y-96565952D01*
X142623096Y-96613571D01*
X142527858Y-96661190D01*
X142146905Y-96661190D01*
X143099286Y-96232619D02*
X143146905Y-96185000D01*
X143242143Y-96137381D01*
X143480239Y-96137381D01*
X143575477Y-96185000D01*
X143623096Y-96232619D01*
X143670715Y-96327857D01*
X143670715Y-96423095D01*
X143623096Y-96565952D01*
X143051667Y-97137381D01*
X143670715Y-97137381D01*
X147868334Y-96942143D02*
X147820715Y-96989762D01*
X147677858Y-97037381D01*
X147582620Y-97037381D01*
X147439762Y-96989762D01*
X147344524Y-96894524D01*
X147296905Y-96799286D01*
X147249286Y-96608810D01*
X147249286Y-96465952D01*
X147296905Y-96275476D01*
X147344524Y-96180238D01*
X147439762Y-96085000D01*
X147582620Y-96037381D01*
X147677858Y-96037381D01*
X147820715Y-96085000D01*
X147868334Y-96132619D01*
X148249286Y-96132619D02*
X148296905Y-96085000D01*
X148392143Y-96037381D01*
X148630239Y-96037381D01*
X148725477Y-96085000D01*
X148773096Y-96132619D01*
X148820715Y-96227857D01*
X148820715Y-96323095D01*
X148773096Y-96465952D01*
X148201667Y-97037381D01*
X148820715Y-97037381D01*
X147918334Y-105942143D02*
X147870715Y-105989762D01*
X147727858Y-106037381D01*
X147632620Y-106037381D01*
X147489762Y-105989762D01*
X147394524Y-105894524D01*
X147346905Y-105799286D01*
X147299286Y-105608810D01*
X147299286Y-105465952D01*
X147346905Y-105275476D01*
X147394524Y-105180238D01*
X147489762Y-105085000D01*
X147632620Y-105037381D01*
X147727858Y-105037381D01*
X147870715Y-105085000D01*
X147918334Y-105132619D01*
X148251667Y-105037381D02*
X148870715Y-105037381D01*
X148537381Y-105418333D01*
X148680239Y-105418333D01*
X148775477Y-105465952D01*
X148823096Y-105513571D01*
X148870715Y-105608810D01*
X148870715Y-105846905D01*
X148823096Y-105942143D01*
X148775477Y-105989762D01*
X148680239Y-106037381D01*
X148394524Y-106037381D01*
X148299286Y-105989762D01*
X148251667Y-105942143D01*
X150268334Y-105992143D02*
X150220715Y-106039762D01*
X150077858Y-106087381D01*
X149982620Y-106087381D01*
X149839762Y-106039762D01*
X149744524Y-105944524D01*
X149696905Y-105849286D01*
X149649286Y-105658810D01*
X149649286Y-105515952D01*
X149696905Y-105325476D01*
X149744524Y-105230238D01*
X149839762Y-105135000D01*
X149982620Y-105087381D01*
X150077858Y-105087381D01*
X150220715Y-105135000D01*
X150268334Y-105182619D01*
X151220715Y-106087381D02*
X150649286Y-106087381D01*
X150935000Y-106087381D02*
X150935000Y-105087381D01*
X150839762Y-105230238D01*
X150744524Y-105325476D01*
X150649286Y-105373095D01*
X141396905Y-93487381D02*
X141396905Y-92487381D01*
X141777858Y-92487381D01*
X141873096Y-92535000D01*
X141920715Y-92582619D01*
X141968334Y-92677857D01*
X141968334Y-92820714D01*
X141920715Y-92915952D01*
X141873096Y-92963571D01*
X141777858Y-93011190D01*
X141396905Y-93011190D01*
X142920715Y-93487381D02*
X142349286Y-93487381D01*
X142635000Y-93487381D02*
X142635000Y-92487381D01*
X142539762Y-92630238D01*
X142444524Y-92725476D01*
X142349286Y-92773095D01*
D12*
X165429714Y-94297428D02*
X164667714Y-94297428D01*
X164667714Y-94007143D01*
X164704000Y-93934571D01*
X164740286Y-93898286D01*
X164812857Y-93862000D01*
X164921714Y-93862000D01*
X164994286Y-93898286D01*
X165030571Y-93934571D01*
X165066857Y-94007143D01*
X165066857Y-94297428D01*
X164740286Y-93571714D02*
X164704000Y-93535428D01*
X164667714Y-93462857D01*
X164667714Y-93281428D01*
X164704000Y-93208857D01*
X164740286Y-93172571D01*
X164812857Y-93136286D01*
X164885429Y-93136286D01*
X164994286Y-93172571D01*
X165429714Y-93608000D01*
X165429714Y-93136286D01*
D11*
X149773095Y-84237381D02*
X149773095Y-85046905D01*
X149820714Y-85142143D01*
X149868333Y-85189762D01*
X149963571Y-85237381D01*
X150154048Y-85237381D01*
X150249286Y-85189762D01*
X150296905Y-85142143D01*
X150344524Y-85046905D01*
X150344524Y-84237381D01*
X151344524Y-85237381D02*
X150773095Y-85237381D01*
X151058809Y-85237381D02*
X151058809Y-84237381D01*
X150963571Y-84380238D01*
X150868333Y-84475476D01*
X150773095Y-84523095D01*
D12*
X130729714Y-93147428D02*
X129967714Y-93147428D01*
X129967714Y-92857143D01*
X130004000Y-92784571D01*
X130040286Y-92748286D01*
X130112857Y-92712000D01*
X130221714Y-92712000D01*
X130294286Y-92748286D01*
X130330571Y-92784571D01*
X130366857Y-92857143D01*
X130366857Y-93147428D01*
X129967714Y-92458000D02*
X129967714Y-91986286D01*
X130258000Y-92240286D01*
X130258000Y-92131428D01*
X130294286Y-92058857D01*
X130330571Y-92022571D01*
X130403143Y-91986286D01*
X130584571Y-91986286D01*
X130657143Y-92022571D01*
X130693429Y-92058857D01*
X130729714Y-92131428D01*
X130729714Y-92349143D01*
X130693429Y-92421714D01*
X130657143Y-92458000D01*
D11*
X138637381Y-89496905D02*
X139446905Y-89496905D01*
X139542143Y-89449286D01*
X139589762Y-89401667D01*
X139637381Y-89306429D01*
X139637381Y-89115952D01*
X139589762Y-89020714D01*
X139542143Y-88973095D01*
X139446905Y-88925476D01*
X138637381Y-88925476D01*
X138732619Y-88496905D02*
X138685000Y-88449286D01*
X138637381Y-88354048D01*
X138637381Y-88115952D01*
X138685000Y-88020714D01*
X138732619Y-87973095D01*
X138827857Y-87925476D01*
X138923095Y-87925476D01*
X139065952Y-87973095D01*
X139637381Y-88544524D01*
X139637381Y-87925476D01*
X152668334Y-93987381D02*
X152335000Y-93511190D01*
X152096905Y-93987381D02*
X152096905Y-92987381D01*
X152477858Y-92987381D01*
X152573096Y-93035000D01*
X152620715Y-93082619D01*
X152668334Y-93177857D01*
X152668334Y-93320714D01*
X152620715Y-93415952D01*
X152573096Y-93463571D01*
X152477858Y-93511190D01*
X152096905Y-93511190D01*
X153620715Y-93987381D02*
X153049286Y-93987381D01*
X153335000Y-93987381D02*
X153335000Y-92987381D01*
X153239762Y-93130238D01*
X153144524Y-93225476D01*
X153049286Y-93273095D01*
X145318334Y-85137381D02*
X144985000Y-84661190D01*
X144746905Y-85137381D02*
X144746905Y-84137381D01*
X145127858Y-84137381D01*
X145223096Y-84185000D01*
X145270715Y-84232619D01*
X145318334Y-84327857D01*
X145318334Y-84470714D01*
X145270715Y-84565952D01*
X145223096Y-84613571D01*
X145127858Y-84661190D01*
X144746905Y-84661190D01*
X145651667Y-84137381D02*
X146270715Y-84137381D01*
X145937381Y-84518333D01*
X146080239Y-84518333D01*
X146175477Y-84565952D01*
X146223096Y-84613571D01*
X146270715Y-84708810D01*
X146270715Y-84946905D01*
X146223096Y-85042143D01*
X146175477Y-85089762D01*
X146080239Y-85137381D01*
X145794524Y-85137381D01*
X145699286Y-85089762D01*
X145651667Y-85042143D01*
X142718334Y-85137381D02*
X142385000Y-84661190D01*
X142146905Y-85137381D02*
X142146905Y-84137381D01*
X142527858Y-84137381D01*
X142623096Y-84185000D01*
X142670715Y-84232619D01*
X142718334Y-84327857D01*
X142718334Y-84470714D01*
X142670715Y-84565952D01*
X142623096Y-84613571D01*
X142527858Y-84661190D01*
X142146905Y-84661190D01*
X143099286Y-84232619D02*
X143146905Y-84185000D01*
X143242143Y-84137381D01*
X143480239Y-84137381D01*
X143575477Y-84185000D01*
X143623096Y-84232619D01*
X143670715Y-84327857D01*
X143670715Y-84423095D01*
X143623096Y-84565952D01*
X143051667Y-85137381D01*
X143670715Y-85137381D01*
X147868334Y-84942143D02*
X147820715Y-84989762D01*
X147677858Y-85037381D01*
X147582620Y-85037381D01*
X147439762Y-84989762D01*
X147344524Y-84894524D01*
X147296905Y-84799286D01*
X147249286Y-84608810D01*
X147249286Y-84465952D01*
X147296905Y-84275476D01*
X147344524Y-84180238D01*
X147439762Y-84085000D01*
X147582620Y-84037381D01*
X147677858Y-84037381D01*
X147820715Y-84085000D01*
X147868334Y-84132619D01*
X148249286Y-84132619D02*
X148296905Y-84085000D01*
X148392143Y-84037381D01*
X148630239Y-84037381D01*
X148725477Y-84085000D01*
X148773096Y-84132619D01*
X148820715Y-84227857D01*
X148820715Y-84323095D01*
X148773096Y-84465952D01*
X148201667Y-85037381D01*
X148820715Y-85037381D01*
X147918334Y-93942143D02*
X147870715Y-93989762D01*
X147727858Y-94037381D01*
X147632620Y-94037381D01*
X147489762Y-93989762D01*
X147394524Y-93894524D01*
X147346905Y-93799286D01*
X147299286Y-93608810D01*
X147299286Y-93465952D01*
X147346905Y-93275476D01*
X147394524Y-93180238D01*
X147489762Y-93085000D01*
X147632620Y-93037381D01*
X147727858Y-93037381D01*
X147870715Y-93085000D01*
X147918334Y-93132619D01*
X148251667Y-93037381D02*
X148870715Y-93037381D01*
X148537381Y-93418333D01*
X148680239Y-93418333D01*
X148775477Y-93465952D01*
X148823096Y-93513571D01*
X148870715Y-93608810D01*
X148870715Y-93846905D01*
X148823096Y-93942143D01*
X148775477Y-93989762D01*
X148680239Y-94037381D01*
X148394524Y-94037381D01*
X148299286Y-93989762D01*
X148251667Y-93942143D01*
X150268334Y-93992143D02*
X150220715Y-94039762D01*
X150077858Y-94087381D01*
X149982620Y-94087381D01*
X149839762Y-94039762D01*
X149744524Y-93944524D01*
X149696905Y-93849286D01*
X149649286Y-93658810D01*
X149649286Y-93515952D01*
X149696905Y-93325476D01*
X149744524Y-93230238D01*
X149839762Y-93135000D01*
X149982620Y-93087381D01*
X150077858Y-93087381D01*
X150220715Y-93135000D01*
X150268334Y-93182619D01*
X151220715Y-94087381D02*
X150649286Y-94087381D01*
X150935000Y-94087381D02*
X150935000Y-93087381D01*
X150839762Y-93230238D01*
X150744524Y-93325476D01*
X150649286Y-93373095D01*
X141396905Y-81487381D02*
X141396905Y-80487381D01*
X141777858Y-80487381D01*
X141873096Y-80535000D01*
X141920715Y-80582619D01*
X141968334Y-80677857D01*
X141968334Y-80820714D01*
X141920715Y-80915952D01*
X141873096Y-80963571D01*
X141777858Y-81011190D01*
X141396905Y-81011190D01*
X142920715Y-81487381D02*
X142349286Y-81487381D01*
X142635000Y-81487381D02*
X142635000Y-80487381D01*
X142539762Y-80630238D01*
X142444524Y-80725476D01*
X142349286Y-80773095D01*
D12*
X165429714Y-82297428D02*
X164667714Y-82297428D01*
X164667714Y-82007143D01*
X164704000Y-81934571D01*
X164740286Y-81898286D01*
X164812857Y-81862000D01*
X164921714Y-81862000D01*
X164994286Y-81898286D01*
X165030571Y-81934571D01*
X165066857Y-82007143D01*
X165066857Y-82297428D01*
X164740286Y-81571714D02*
X164704000Y-81535428D01*
X164667714Y-81462857D01*
X164667714Y-81281428D01*
X164704000Y-81208857D01*
X164740286Y-81172571D01*
X164812857Y-81136286D01*
X164885429Y-81136286D01*
X164994286Y-81172571D01*
X165429714Y-81608000D01*
X165429714Y-81136286D01*
D11*
X149773095Y-72237381D02*
X149773095Y-73046905D01*
X149820714Y-73142143D01*
X149868333Y-73189762D01*
X149963571Y-73237381D01*
X150154048Y-73237381D01*
X150249286Y-73189762D01*
X150296905Y-73142143D01*
X150344524Y-73046905D01*
X150344524Y-72237381D01*
X151344524Y-73237381D02*
X150773095Y-73237381D01*
X151058809Y-73237381D02*
X151058809Y-72237381D01*
X150963571Y-72380238D01*
X150868333Y-72475476D01*
X150773095Y-72523095D01*
D12*
X130729714Y-81147428D02*
X129967714Y-81147428D01*
X129967714Y-80857143D01*
X130004000Y-80784571D01*
X130040286Y-80748286D01*
X130112857Y-80712000D01*
X130221714Y-80712000D01*
X130294286Y-80748286D01*
X130330571Y-80784571D01*
X130366857Y-80857143D01*
X130366857Y-81147428D01*
X129967714Y-80458000D02*
X129967714Y-79986286D01*
X130258000Y-80240286D01*
X130258000Y-80131428D01*
X130294286Y-80058857D01*
X130330571Y-80022571D01*
X130403143Y-79986286D01*
X130584571Y-79986286D01*
X130657143Y-80022571D01*
X130693429Y-80058857D01*
X130729714Y-80131428D01*
X130729714Y-80349143D01*
X130693429Y-80421714D01*
X130657143Y-80458000D01*
D11*
X138637381Y-77496905D02*
X139446905Y-77496905D01*
X139542143Y-77449286D01*
X139589762Y-77401667D01*
X139637381Y-77306429D01*
X139637381Y-77115952D01*
X139589762Y-77020714D01*
X139542143Y-76973095D01*
X139446905Y-76925476D01*
X138637381Y-76925476D01*
X138732619Y-76496905D02*
X138685000Y-76449286D01*
X138637381Y-76354048D01*
X138637381Y-76115952D01*
X138685000Y-76020714D01*
X138732619Y-75973095D01*
X138827857Y-75925476D01*
X138923095Y-75925476D01*
X139065952Y-75973095D01*
X139637381Y-76544524D01*
X139637381Y-75925476D01*
X152668334Y-81987381D02*
X152335000Y-81511190D01*
X152096905Y-81987381D02*
X152096905Y-80987381D01*
X152477858Y-80987381D01*
X152573096Y-81035000D01*
X152620715Y-81082619D01*
X152668334Y-81177857D01*
X152668334Y-81320714D01*
X152620715Y-81415952D01*
X152573096Y-81463571D01*
X152477858Y-81511190D01*
X152096905Y-81511190D01*
X153620715Y-81987381D02*
X153049286Y-81987381D01*
X153335000Y-81987381D02*
X153335000Y-80987381D01*
X153239762Y-81130238D01*
X153144524Y-81225476D01*
X153049286Y-81273095D01*
X145318334Y-73137381D02*
X144985000Y-72661190D01*
X144746905Y-73137381D02*
X144746905Y-72137381D01*
X145127858Y-72137381D01*
X145223096Y-72185000D01*
X145270715Y-72232619D01*
X145318334Y-72327857D01*
X145318334Y-72470714D01*
X145270715Y-72565952D01*
X145223096Y-72613571D01*
X145127858Y-72661190D01*
X144746905Y-72661190D01*
X145651667Y-72137381D02*
X146270715Y-72137381D01*
X145937381Y-72518333D01*
X146080239Y-72518333D01*
X146175477Y-72565952D01*
X146223096Y-72613571D01*
X146270715Y-72708810D01*
X146270715Y-72946905D01*
X146223096Y-73042143D01*
X146175477Y-73089762D01*
X146080239Y-73137381D01*
X145794524Y-73137381D01*
X145699286Y-73089762D01*
X145651667Y-73042143D01*
X142718334Y-73137381D02*
X142385000Y-72661190D01*
X142146905Y-73137381D02*
X142146905Y-72137381D01*
X142527858Y-72137381D01*
X142623096Y-72185000D01*
X142670715Y-72232619D01*
X142718334Y-72327857D01*
X142718334Y-72470714D01*
X142670715Y-72565952D01*
X142623096Y-72613571D01*
X142527858Y-72661190D01*
X142146905Y-72661190D01*
X143099286Y-72232619D02*
X143146905Y-72185000D01*
X143242143Y-72137381D01*
X143480239Y-72137381D01*
X143575477Y-72185000D01*
X143623096Y-72232619D01*
X143670715Y-72327857D01*
X143670715Y-72423095D01*
X143623096Y-72565952D01*
X143051667Y-73137381D01*
X143670715Y-73137381D01*
X147868334Y-72942143D02*
X147820715Y-72989762D01*
X147677858Y-73037381D01*
X147582620Y-73037381D01*
X147439762Y-72989762D01*
X147344524Y-72894524D01*
X147296905Y-72799286D01*
X147249286Y-72608810D01*
X147249286Y-72465952D01*
X147296905Y-72275476D01*
X147344524Y-72180238D01*
X147439762Y-72085000D01*
X147582620Y-72037381D01*
X147677858Y-72037381D01*
X147820715Y-72085000D01*
X147868334Y-72132619D01*
X148249286Y-72132619D02*
X148296905Y-72085000D01*
X148392143Y-72037381D01*
X148630239Y-72037381D01*
X148725477Y-72085000D01*
X148773096Y-72132619D01*
X148820715Y-72227857D01*
X148820715Y-72323095D01*
X148773096Y-72465952D01*
X148201667Y-73037381D01*
X148820715Y-73037381D01*
X147918334Y-81942143D02*
X147870715Y-81989762D01*
X147727858Y-82037381D01*
X147632620Y-82037381D01*
X147489762Y-81989762D01*
X147394524Y-81894524D01*
X147346905Y-81799286D01*
X147299286Y-81608810D01*
X147299286Y-81465952D01*
X147346905Y-81275476D01*
X147394524Y-81180238D01*
X147489762Y-81085000D01*
X147632620Y-81037381D01*
X147727858Y-81037381D01*
X147870715Y-81085000D01*
X147918334Y-81132619D01*
X148251667Y-81037381D02*
X148870715Y-81037381D01*
X148537381Y-81418333D01*
X148680239Y-81418333D01*
X148775477Y-81465952D01*
X148823096Y-81513571D01*
X148870715Y-81608810D01*
X148870715Y-81846905D01*
X148823096Y-81942143D01*
X148775477Y-81989762D01*
X148680239Y-82037381D01*
X148394524Y-82037381D01*
X148299286Y-81989762D01*
X148251667Y-81942143D01*
X150268334Y-81992143D02*
X150220715Y-82039762D01*
X150077858Y-82087381D01*
X149982620Y-82087381D01*
X149839762Y-82039762D01*
X149744524Y-81944524D01*
X149696905Y-81849286D01*
X149649286Y-81658810D01*
X149649286Y-81515952D01*
X149696905Y-81325476D01*
X149744524Y-81230238D01*
X149839762Y-81135000D01*
X149982620Y-81087381D01*
X150077858Y-81087381D01*
X150220715Y-81135000D01*
X150268334Y-81182619D01*
X151220715Y-82087381D02*
X150649286Y-82087381D01*
X150935000Y-82087381D02*
X150935000Y-81087381D01*
X150839762Y-81230238D01*
X150744524Y-81325476D01*
X150649286Y-81373095D01*
M02*
