G04 #@! TF.FileFunction,Copper,L2,Bot,Signal*
%FSLAX46Y46*%
G04 Gerber Fmt 4.6, Leading zero omitted, Abs format (unit mm)*
G04 Created by KiCad (PCBNEW 4.0.2-stable) date 11.06.2016 10:01:23*
%MOMM*%
G01*
G04 APERTURE LIST*
%ADD10C,0.200000*%
%ADD11R,2.032000X2.032000*%
%ADD12O,2.032000X2.032000*%
%ADD13C,0.600000*%
%ADD14C,0.250000*%
%ADD15C,0.254000*%
G04 APERTURE END LIST*
D10*
D11*
X118385000Y-109185000D03*
D12*
X115845000Y-109185000D03*
D11*
X118385000Y-97185000D03*
D12*
X115845000Y-97185000D03*
D11*
X118385000Y-85185000D03*
D12*
X115845000Y-85185000D03*
D11*
X118385000Y-73185000D03*
D12*
X115845000Y-73185000D03*
D13*
X107485000Y-109485000D03*
X133085000Y-111135000D03*
X120335000Y-111685000D03*
X119785000Y-104985000D03*
X107485000Y-97485000D03*
X133085000Y-99135000D03*
X120335000Y-99685000D03*
X119785000Y-92985000D03*
X107485000Y-85485000D03*
X133085000Y-87135000D03*
X120335000Y-87685000D03*
X119785000Y-80985000D03*
X107485000Y-73485000D03*
X133085000Y-75135000D03*
X120335000Y-75685000D03*
X119785000Y-68985000D03*
X116885000Y-106185000D03*
X112485000Y-110485000D03*
X116885000Y-94185000D03*
X112485000Y-98485000D03*
X116885000Y-82185000D03*
X112485000Y-86485000D03*
X116885000Y-70185000D03*
X112485000Y-74485000D03*
X116935000Y-103885000D03*
X131585000Y-103885000D03*
X116935000Y-91885000D03*
X131585000Y-91885000D03*
X116935000Y-79885000D03*
X131585000Y-79885000D03*
X116935000Y-67885000D03*
X131585000Y-67885000D03*
X131735000Y-102935000D03*
X119835000Y-102935000D03*
X131735000Y-90935000D03*
X119835000Y-90935000D03*
X131735000Y-78935000D03*
X119835000Y-78935000D03*
X131735000Y-66935000D03*
X119835000Y-66935000D03*
D14*
X120335000Y-105535000D02*
X120335000Y-111685000D01*
X119785000Y-104985000D02*
X120335000Y-105535000D01*
X120335000Y-93535000D02*
X120335000Y-99685000D01*
X119785000Y-92985000D02*
X120335000Y-93535000D01*
X120335000Y-81535000D02*
X120335000Y-87685000D01*
X119785000Y-80985000D02*
X120335000Y-81535000D01*
X120335000Y-69535000D02*
X120335000Y-75685000D01*
X119785000Y-68985000D02*
X120335000Y-69535000D01*
X116885000Y-106185000D02*
X116785000Y-106085000D01*
X116785000Y-106085000D02*
X115685000Y-106085000D01*
X112485000Y-109285000D02*
X112485000Y-110485000D01*
X115685000Y-106085000D02*
X112485000Y-109285000D01*
X116885000Y-94185000D02*
X116785000Y-94085000D01*
X116785000Y-94085000D02*
X115685000Y-94085000D01*
X112485000Y-97285000D02*
X112485000Y-98485000D01*
X115685000Y-94085000D02*
X112485000Y-97285000D01*
X116885000Y-82185000D02*
X116785000Y-82085000D01*
X116785000Y-82085000D02*
X115685000Y-82085000D01*
X112485000Y-85285000D02*
X112485000Y-86485000D01*
X115685000Y-82085000D02*
X112485000Y-85285000D01*
X116885000Y-70185000D02*
X116785000Y-70085000D01*
X116785000Y-70085000D02*
X115685000Y-70085000D01*
X112485000Y-73285000D02*
X112485000Y-74485000D01*
X115685000Y-70085000D02*
X112485000Y-73285000D01*
X116935000Y-103885000D02*
X131585000Y-103885000D01*
X116935000Y-91885000D02*
X131585000Y-91885000D01*
X116935000Y-79885000D02*
X131585000Y-79885000D01*
X116935000Y-67885000D02*
X131585000Y-67885000D01*
X119835000Y-102935000D02*
X131735000Y-102935000D01*
X119835000Y-90935000D02*
X131735000Y-90935000D01*
X119835000Y-78935000D02*
X131735000Y-78935000D01*
X119835000Y-66935000D02*
X131735000Y-66935000D01*
D15*
G36*
X135358000Y-112608000D02*
X126635309Y-112608000D01*
X106085309Y-112558000D01*
X104012000Y-112558000D01*
X104012000Y-110670167D01*
X111549838Y-110670167D01*
X111691883Y-111013943D01*
X111954673Y-111277192D01*
X112298201Y-111419838D01*
X112670167Y-111420162D01*
X113013943Y-111278117D01*
X113277192Y-111015327D01*
X113419838Y-110671799D01*
X113420162Y-110299833D01*
X113278117Y-109956057D01*
X113245000Y-109922882D01*
X113245000Y-109599802D01*
X114318612Y-108526190D01*
X114194000Y-109152655D01*
X114194000Y-109217345D01*
X114319675Y-109849155D01*
X114677567Y-110384778D01*
X115213190Y-110742670D01*
X115845000Y-110868345D01*
X116476810Y-110742670D01*
X116816792Y-110515501D01*
X116904910Y-110652441D01*
X117117110Y-110797431D01*
X117369000Y-110848440D01*
X119401000Y-110848440D01*
X119636317Y-110804162D01*
X119852441Y-110665090D01*
X119997431Y-110452890D01*
X120048440Y-110201000D01*
X120048440Y-108169000D01*
X120004162Y-107933683D01*
X119865090Y-107717559D01*
X119652890Y-107572569D01*
X119401000Y-107521560D01*
X117369000Y-107521560D01*
X117133683Y-107565838D01*
X116917559Y-107704910D01*
X116815802Y-107853837D01*
X116476810Y-107627330D01*
X115845000Y-107501655D01*
X115218535Y-107626267D01*
X115999802Y-106845000D01*
X116222711Y-106845000D01*
X116354673Y-106977192D01*
X116698201Y-107119838D01*
X117070167Y-107120162D01*
X117413943Y-106978117D01*
X117677192Y-106715327D01*
X117819838Y-106371799D01*
X117820162Y-105999833D01*
X117678117Y-105656057D01*
X117415327Y-105392808D01*
X117071799Y-105250162D01*
X116699833Y-105249838D01*
X116517927Y-105325000D01*
X115685000Y-105325000D01*
X115394160Y-105382852D01*
X115147599Y-105547599D01*
X111947599Y-108747599D01*
X111782852Y-108994161D01*
X111725000Y-109285000D01*
X111725000Y-109922537D01*
X111692808Y-109954673D01*
X111550162Y-110298201D01*
X111549838Y-110670167D01*
X104012000Y-110670167D01*
X104012000Y-104070167D01*
X115999838Y-104070167D01*
X116141883Y-104413943D01*
X116404673Y-104677192D01*
X116748201Y-104819838D01*
X117120167Y-104820162D01*
X117463943Y-104678117D01*
X117497118Y-104645000D01*
X131022537Y-104645000D01*
X131054673Y-104677192D01*
X131398201Y-104819838D01*
X131770167Y-104820162D01*
X132113943Y-104678117D01*
X132377192Y-104415327D01*
X132519838Y-104071799D01*
X132520162Y-103699833D01*
X132453615Y-103538776D01*
X132527192Y-103465327D01*
X132669838Y-103121799D01*
X132670162Y-102749833D01*
X132528117Y-102406057D01*
X132265327Y-102142808D01*
X131921799Y-102000162D01*
X131549833Y-101999838D01*
X131206057Y-102141883D01*
X131172882Y-102175000D01*
X120397463Y-102175000D01*
X120365327Y-102142808D01*
X120021799Y-102000162D01*
X119649833Y-101999838D01*
X119306057Y-102141883D01*
X119042808Y-102404673D01*
X118900162Y-102748201D01*
X118899838Y-103120167D01*
X118901835Y-103125000D01*
X117497463Y-103125000D01*
X117465327Y-103092808D01*
X117121799Y-102950162D01*
X116749833Y-102949838D01*
X116406057Y-103091883D01*
X116142808Y-103354673D01*
X116000162Y-103698201D01*
X115999838Y-104070167D01*
X104012000Y-104070167D01*
X104012000Y-101985000D01*
X135358000Y-101985000D01*
X135358000Y-112608000D01*
X135358000Y-112608000D01*
G37*
X135358000Y-112608000D02*
X126635309Y-112608000D01*
X106085309Y-112558000D01*
X104012000Y-112558000D01*
X104012000Y-110670167D01*
X111549838Y-110670167D01*
X111691883Y-111013943D01*
X111954673Y-111277192D01*
X112298201Y-111419838D01*
X112670167Y-111420162D01*
X113013943Y-111278117D01*
X113277192Y-111015327D01*
X113419838Y-110671799D01*
X113420162Y-110299833D01*
X113278117Y-109956057D01*
X113245000Y-109922882D01*
X113245000Y-109599802D01*
X114318612Y-108526190D01*
X114194000Y-109152655D01*
X114194000Y-109217345D01*
X114319675Y-109849155D01*
X114677567Y-110384778D01*
X115213190Y-110742670D01*
X115845000Y-110868345D01*
X116476810Y-110742670D01*
X116816792Y-110515501D01*
X116904910Y-110652441D01*
X117117110Y-110797431D01*
X117369000Y-110848440D01*
X119401000Y-110848440D01*
X119636317Y-110804162D01*
X119852441Y-110665090D01*
X119997431Y-110452890D01*
X120048440Y-110201000D01*
X120048440Y-108169000D01*
X120004162Y-107933683D01*
X119865090Y-107717559D01*
X119652890Y-107572569D01*
X119401000Y-107521560D01*
X117369000Y-107521560D01*
X117133683Y-107565838D01*
X116917559Y-107704910D01*
X116815802Y-107853837D01*
X116476810Y-107627330D01*
X115845000Y-107501655D01*
X115218535Y-107626267D01*
X115999802Y-106845000D01*
X116222711Y-106845000D01*
X116354673Y-106977192D01*
X116698201Y-107119838D01*
X117070167Y-107120162D01*
X117413943Y-106978117D01*
X117677192Y-106715327D01*
X117819838Y-106371799D01*
X117820162Y-105999833D01*
X117678117Y-105656057D01*
X117415327Y-105392808D01*
X117071799Y-105250162D01*
X116699833Y-105249838D01*
X116517927Y-105325000D01*
X115685000Y-105325000D01*
X115394160Y-105382852D01*
X115147599Y-105547599D01*
X111947599Y-108747599D01*
X111782852Y-108994161D01*
X111725000Y-109285000D01*
X111725000Y-109922537D01*
X111692808Y-109954673D01*
X111550162Y-110298201D01*
X111549838Y-110670167D01*
X104012000Y-110670167D01*
X104012000Y-104070167D01*
X115999838Y-104070167D01*
X116141883Y-104413943D01*
X116404673Y-104677192D01*
X116748201Y-104819838D01*
X117120167Y-104820162D01*
X117463943Y-104678117D01*
X117497118Y-104645000D01*
X131022537Y-104645000D01*
X131054673Y-104677192D01*
X131398201Y-104819838D01*
X131770167Y-104820162D01*
X132113943Y-104678117D01*
X132377192Y-104415327D01*
X132519838Y-104071799D01*
X132520162Y-103699833D01*
X132453615Y-103538776D01*
X132527192Y-103465327D01*
X132669838Y-103121799D01*
X132670162Y-102749833D01*
X132528117Y-102406057D01*
X132265327Y-102142808D01*
X131921799Y-102000162D01*
X131549833Y-101999838D01*
X131206057Y-102141883D01*
X131172882Y-102175000D01*
X120397463Y-102175000D01*
X120365327Y-102142808D01*
X120021799Y-102000162D01*
X119649833Y-101999838D01*
X119306057Y-102141883D01*
X119042808Y-102404673D01*
X118900162Y-102748201D01*
X118899838Y-103120167D01*
X118901835Y-103125000D01*
X117497463Y-103125000D01*
X117465327Y-103092808D01*
X117121799Y-102950162D01*
X116749833Y-102949838D01*
X116406057Y-103091883D01*
X116142808Y-103354673D01*
X116000162Y-103698201D01*
X115999838Y-104070167D01*
X104012000Y-104070167D01*
X104012000Y-101985000D01*
X135358000Y-101985000D01*
X135358000Y-112608000D01*
G36*
X135358000Y-100608000D02*
X126635309Y-100608000D01*
X106085309Y-100558000D01*
X104012000Y-100558000D01*
X104012000Y-98670167D01*
X111549838Y-98670167D01*
X111691883Y-99013943D01*
X111954673Y-99277192D01*
X112298201Y-99419838D01*
X112670167Y-99420162D01*
X113013943Y-99278117D01*
X113277192Y-99015327D01*
X113419838Y-98671799D01*
X113420162Y-98299833D01*
X113278117Y-97956057D01*
X113245000Y-97922882D01*
X113245000Y-97599802D01*
X114318612Y-96526190D01*
X114194000Y-97152655D01*
X114194000Y-97217345D01*
X114319675Y-97849155D01*
X114677567Y-98384778D01*
X115213190Y-98742670D01*
X115845000Y-98868345D01*
X116476810Y-98742670D01*
X116816792Y-98515501D01*
X116904910Y-98652441D01*
X117117110Y-98797431D01*
X117369000Y-98848440D01*
X119401000Y-98848440D01*
X119636317Y-98804162D01*
X119852441Y-98665090D01*
X119997431Y-98452890D01*
X120048440Y-98201000D01*
X120048440Y-96169000D01*
X120004162Y-95933683D01*
X119865090Y-95717559D01*
X119652890Y-95572569D01*
X119401000Y-95521560D01*
X117369000Y-95521560D01*
X117133683Y-95565838D01*
X116917559Y-95704910D01*
X116815802Y-95853837D01*
X116476810Y-95627330D01*
X115845000Y-95501655D01*
X115218535Y-95626267D01*
X115999802Y-94845000D01*
X116222711Y-94845000D01*
X116354673Y-94977192D01*
X116698201Y-95119838D01*
X117070167Y-95120162D01*
X117413943Y-94978117D01*
X117677192Y-94715327D01*
X117819838Y-94371799D01*
X117820162Y-93999833D01*
X117678117Y-93656057D01*
X117415327Y-93392808D01*
X117071799Y-93250162D01*
X116699833Y-93249838D01*
X116517927Y-93325000D01*
X115685000Y-93325000D01*
X115394160Y-93382852D01*
X115147599Y-93547599D01*
X111947599Y-96747599D01*
X111782852Y-96994161D01*
X111725000Y-97285000D01*
X111725000Y-97922537D01*
X111692808Y-97954673D01*
X111550162Y-98298201D01*
X111549838Y-98670167D01*
X104012000Y-98670167D01*
X104012000Y-92070167D01*
X115999838Y-92070167D01*
X116141883Y-92413943D01*
X116404673Y-92677192D01*
X116748201Y-92819838D01*
X117120167Y-92820162D01*
X117463943Y-92678117D01*
X117497118Y-92645000D01*
X131022537Y-92645000D01*
X131054673Y-92677192D01*
X131398201Y-92819838D01*
X131770167Y-92820162D01*
X132113943Y-92678117D01*
X132377192Y-92415327D01*
X132519838Y-92071799D01*
X132520162Y-91699833D01*
X132453615Y-91538776D01*
X132527192Y-91465327D01*
X132669838Y-91121799D01*
X132670162Y-90749833D01*
X132528117Y-90406057D01*
X132265327Y-90142808D01*
X131921799Y-90000162D01*
X131549833Y-89999838D01*
X131206057Y-90141883D01*
X131172882Y-90175000D01*
X120397463Y-90175000D01*
X120365327Y-90142808D01*
X120021799Y-90000162D01*
X119649833Y-89999838D01*
X119306057Y-90141883D01*
X119042808Y-90404673D01*
X118900162Y-90748201D01*
X118899838Y-91120167D01*
X118901835Y-91125000D01*
X117497463Y-91125000D01*
X117465327Y-91092808D01*
X117121799Y-90950162D01*
X116749833Y-90949838D01*
X116406057Y-91091883D01*
X116142808Y-91354673D01*
X116000162Y-91698201D01*
X115999838Y-92070167D01*
X104012000Y-92070167D01*
X104012000Y-89985000D01*
X135358000Y-89985000D01*
X135358000Y-100608000D01*
X135358000Y-100608000D01*
G37*
X135358000Y-100608000D02*
X126635309Y-100608000D01*
X106085309Y-100558000D01*
X104012000Y-100558000D01*
X104012000Y-98670167D01*
X111549838Y-98670167D01*
X111691883Y-99013943D01*
X111954673Y-99277192D01*
X112298201Y-99419838D01*
X112670167Y-99420162D01*
X113013943Y-99278117D01*
X113277192Y-99015327D01*
X113419838Y-98671799D01*
X113420162Y-98299833D01*
X113278117Y-97956057D01*
X113245000Y-97922882D01*
X113245000Y-97599802D01*
X114318612Y-96526190D01*
X114194000Y-97152655D01*
X114194000Y-97217345D01*
X114319675Y-97849155D01*
X114677567Y-98384778D01*
X115213190Y-98742670D01*
X115845000Y-98868345D01*
X116476810Y-98742670D01*
X116816792Y-98515501D01*
X116904910Y-98652441D01*
X117117110Y-98797431D01*
X117369000Y-98848440D01*
X119401000Y-98848440D01*
X119636317Y-98804162D01*
X119852441Y-98665090D01*
X119997431Y-98452890D01*
X120048440Y-98201000D01*
X120048440Y-96169000D01*
X120004162Y-95933683D01*
X119865090Y-95717559D01*
X119652890Y-95572569D01*
X119401000Y-95521560D01*
X117369000Y-95521560D01*
X117133683Y-95565838D01*
X116917559Y-95704910D01*
X116815802Y-95853837D01*
X116476810Y-95627330D01*
X115845000Y-95501655D01*
X115218535Y-95626267D01*
X115999802Y-94845000D01*
X116222711Y-94845000D01*
X116354673Y-94977192D01*
X116698201Y-95119838D01*
X117070167Y-95120162D01*
X117413943Y-94978117D01*
X117677192Y-94715327D01*
X117819838Y-94371799D01*
X117820162Y-93999833D01*
X117678117Y-93656057D01*
X117415327Y-93392808D01*
X117071799Y-93250162D01*
X116699833Y-93249838D01*
X116517927Y-93325000D01*
X115685000Y-93325000D01*
X115394160Y-93382852D01*
X115147599Y-93547599D01*
X111947599Y-96747599D01*
X111782852Y-96994161D01*
X111725000Y-97285000D01*
X111725000Y-97922537D01*
X111692808Y-97954673D01*
X111550162Y-98298201D01*
X111549838Y-98670167D01*
X104012000Y-98670167D01*
X104012000Y-92070167D01*
X115999838Y-92070167D01*
X116141883Y-92413943D01*
X116404673Y-92677192D01*
X116748201Y-92819838D01*
X117120167Y-92820162D01*
X117463943Y-92678117D01*
X117497118Y-92645000D01*
X131022537Y-92645000D01*
X131054673Y-92677192D01*
X131398201Y-92819838D01*
X131770167Y-92820162D01*
X132113943Y-92678117D01*
X132377192Y-92415327D01*
X132519838Y-92071799D01*
X132520162Y-91699833D01*
X132453615Y-91538776D01*
X132527192Y-91465327D01*
X132669838Y-91121799D01*
X132670162Y-90749833D01*
X132528117Y-90406057D01*
X132265327Y-90142808D01*
X131921799Y-90000162D01*
X131549833Y-89999838D01*
X131206057Y-90141883D01*
X131172882Y-90175000D01*
X120397463Y-90175000D01*
X120365327Y-90142808D01*
X120021799Y-90000162D01*
X119649833Y-89999838D01*
X119306057Y-90141883D01*
X119042808Y-90404673D01*
X118900162Y-90748201D01*
X118899838Y-91120167D01*
X118901835Y-91125000D01*
X117497463Y-91125000D01*
X117465327Y-91092808D01*
X117121799Y-90950162D01*
X116749833Y-90949838D01*
X116406057Y-91091883D01*
X116142808Y-91354673D01*
X116000162Y-91698201D01*
X115999838Y-92070167D01*
X104012000Y-92070167D01*
X104012000Y-89985000D01*
X135358000Y-89985000D01*
X135358000Y-100608000D01*
G36*
X135358000Y-88608000D02*
X126635309Y-88608000D01*
X106085309Y-88558000D01*
X104012000Y-88558000D01*
X104012000Y-86670167D01*
X111549838Y-86670167D01*
X111691883Y-87013943D01*
X111954673Y-87277192D01*
X112298201Y-87419838D01*
X112670167Y-87420162D01*
X113013943Y-87278117D01*
X113277192Y-87015327D01*
X113419838Y-86671799D01*
X113420162Y-86299833D01*
X113278117Y-85956057D01*
X113245000Y-85922882D01*
X113245000Y-85599802D01*
X114318612Y-84526190D01*
X114194000Y-85152655D01*
X114194000Y-85217345D01*
X114319675Y-85849155D01*
X114677567Y-86384778D01*
X115213190Y-86742670D01*
X115845000Y-86868345D01*
X116476810Y-86742670D01*
X116816792Y-86515501D01*
X116904910Y-86652441D01*
X117117110Y-86797431D01*
X117369000Y-86848440D01*
X119401000Y-86848440D01*
X119636317Y-86804162D01*
X119852441Y-86665090D01*
X119997431Y-86452890D01*
X120048440Y-86201000D01*
X120048440Y-84169000D01*
X120004162Y-83933683D01*
X119865090Y-83717559D01*
X119652890Y-83572569D01*
X119401000Y-83521560D01*
X117369000Y-83521560D01*
X117133683Y-83565838D01*
X116917559Y-83704910D01*
X116815802Y-83853837D01*
X116476810Y-83627330D01*
X115845000Y-83501655D01*
X115218535Y-83626267D01*
X115999802Y-82845000D01*
X116222711Y-82845000D01*
X116354673Y-82977192D01*
X116698201Y-83119838D01*
X117070167Y-83120162D01*
X117413943Y-82978117D01*
X117677192Y-82715327D01*
X117819838Y-82371799D01*
X117820162Y-81999833D01*
X117678117Y-81656057D01*
X117415327Y-81392808D01*
X117071799Y-81250162D01*
X116699833Y-81249838D01*
X116517927Y-81325000D01*
X115685000Y-81325000D01*
X115394160Y-81382852D01*
X115147599Y-81547599D01*
X111947599Y-84747599D01*
X111782852Y-84994161D01*
X111725000Y-85285000D01*
X111725000Y-85922537D01*
X111692808Y-85954673D01*
X111550162Y-86298201D01*
X111549838Y-86670167D01*
X104012000Y-86670167D01*
X104012000Y-80070167D01*
X115999838Y-80070167D01*
X116141883Y-80413943D01*
X116404673Y-80677192D01*
X116748201Y-80819838D01*
X117120167Y-80820162D01*
X117463943Y-80678117D01*
X117497118Y-80645000D01*
X131022537Y-80645000D01*
X131054673Y-80677192D01*
X131398201Y-80819838D01*
X131770167Y-80820162D01*
X132113943Y-80678117D01*
X132377192Y-80415327D01*
X132519838Y-80071799D01*
X132520162Y-79699833D01*
X132453615Y-79538776D01*
X132527192Y-79465327D01*
X132669838Y-79121799D01*
X132670162Y-78749833D01*
X132528117Y-78406057D01*
X132265327Y-78142808D01*
X131921799Y-78000162D01*
X131549833Y-77999838D01*
X131206057Y-78141883D01*
X131172882Y-78175000D01*
X120397463Y-78175000D01*
X120365327Y-78142808D01*
X120021799Y-78000162D01*
X119649833Y-77999838D01*
X119306057Y-78141883D01*
X119042808Y-78404673D01*
X118900162Y-78748201D01*
X118899838Y-79120167D01*
X118901835Y-79125000D01*
X117497463Y-79125000D01*
X117465327Y-79092808D01*
X117121799Y-78950162D01*
X116749833Y-78949838D01*
X116406057Y-79091883D01*
X116142808Y-79354673D01*
X116000162Y-79698201D01*
X115999838Y-80070167D01*
X104012000Y-80070167D01*
X104012000Y-77985000D01*
X135358000Y-77985000D01*
X135358000Y-88608000D01*
X135358000Y-88608000D01*
G37*
X135358000Y-88608000D02*
X126635309Y-88608000D01*
X106085309Y-88558000D01*
X104012000Y-88558000D01*
X104012000Y-86670167D01*
X111549838Y-86670167D01*
X111691883Y-87013943D01*
X111954673Y-87277192D01*
X112298201Y-87419838D01*
X112670167Y-87420162D01*
X113013943Y-87278117D01*
X113277192Y-87015327D01*
X113419838Y-86671799D01*
X113420162Y-86299833D01*
X113278117Y-85956057D01*
X113245000Y-85922882D01*
X113245000Y-85599802D01*
X114318612Y-84526190D01*
X114194000Y-85152655D01*
X114194000Y-85217345D01*
X114319675Y-85849155D01*
X114677567Y-86384778D01*
X115213190Y-86742670D01*
X115845000Y-86868345D01*
X116476810Y-86742670D01*
X116816792Y-86515501D01*
X116904910Y-86652441D01*
X117117110Y-86797431D01*
X117369000Y-86848440D01*
X119401000Y-86848440D01*
X119636317Y-86804162D01*
X119852441Y-86665090D01*
X119997431Y-86452890D01*
X120048440Y-86201000D01*
X120048440Y-84169000D01*
X120004162Y-83933683D01*
X119865090Y-83717559D01*
X119652890Y-83572569D01*
X119401000Y-83521560D01*
X117369000Y-83521560D01*
X117133683Y-83565838D01*
X116917559Y-83704910D01*
X116815802Y-83853837D01*
X116476810Y-83627330D01*
X115845000Y-83501655D01*
X115218535Y-83626267D01*
X115999802Y-82845000D01*
X116222711Y-82845000D01*
X116354673Y-82977192D01*
X116698201Y-83119838D01*
X117070167Y-83120162D01*
X117413943Y-82978117D01*
X117677192Y-82715327D01*
X117819838Y-82371799D01*
X117820162Y-81999833D01*
X117678117Y-81656057D01*
X117415327Y-81392808D01*
X117071799Y-81250162D01*
X116699833Y-81249838D01*
X116517927Y-81325000D01*
X115685000Y-81325000D01*
X115394160Y-81382852D01*
X115147599Y-81547599D01*
X111947599Y-84747599D01*
X111782852Y-84994161D01*
X111725000Y-85285000D01*
X111725000Y-85922537D01*
X111692808Y-85954673D01*
X111550162Y-86298201D01*
X111549838Y-86670167D01*
X104012000Y-86670167D01*
X104012000Y-80070167D01*
X115999838Y-80070167D01*
X116141883Y-80413943D01*
X116404673Y-80677192D01*
X116748201Y-80819838D01*
X117120167Y-80820162D01*
X117463943Y-80678117D01*
X117497118Y-80645000D01*
X131022537Y-80645000D01*
X131054673Y-80677192D01*
X131398201Y-80819838D01*
X131770167Y-80820162D01*
X132113943Y-80678117D01*
X132377192Y-80415327D01*
X132519838Y-80071799D01*
X132520162Y-79699833D01*
X132453615Y-79538776D01*
X132527192Y-79465327D01*
X132669838Y-79121799D01*
X132670162Y-78749833D01*
X132528117Y-78406057D01*
X132265327Y-78142808D01*
X131921799Y-78000162D01*
X131549833Y-77999838D01*
X131206057Y-78141883D01*
X131172882Y-78175000D01*
X120397463Y-78175000D01*
X120365327Y-78142808D01*
X120021799Y-78000162D01*
X119649833Y-77999838D01*
X119306057Y-78141883D01*
X119042808Y-78404673D01*
X118900162Y-78748201D01*
X118899838Y-79120167D01*
X118901835Y-79125000D01*
X117497463Y-79125000D01*
X117465327Y-79092808D01*
X117121799Y-78950162D01*
X116749833Y-78949838D01*
X116406057Y-79091883D01*
X116142808Y-79354673D01*
X116000162Y-79698201D01*
X115999838Y-80070167D01*
X104012000Y-80070167D01*
X104012000Y-77985000D01*
X135358000Y-77985000D01*
X135358000Y-88608000D01*
G36*
X135358000Y-76608000D02*
X126635309Y-76608000D01*
X106085309Y-76558000D01*
X104012000Y-76558000D01*
X104012000Y-74670167D01*
X111549838Y-74670167D01*
X111691883Y-75013943D01*
X111954673Y-75277192D01*
X112298201Y-75419838D01*
X112670167Y-75420162D01*
X113013943Y-75278117D01*
X113277192Y-75015327D01*
X113419838Y-74671799D01*
X113420162Y-74299833D01*
X113278117Y-73956057D01*
X113245000Y-73922882D01*
X113245000Y-73599802D01*
X114318612Y-72526190D01*
X114194000Y-73152655D01*
X114194000Y-73217345D01*
X114319675Y-73849155D01*
X114677567Y-74384778D01*
X115213190Y-74742670D01*
X115845000Y-74868345D01*
X116476810Y-74742670D01*
X116816792Y-74515501D01*
X116904910Y-74652441D01*
X117117110Y-74797431D01*
X117369000Y-74848440D01*
X119401000Y-74848440D01*
X119636317Y-74804162D01*
X119852441Y-74665090D01*
X119997431Y-74452890D01*
X120048440Y-74201000D01*
X120048440Y-72169000D01*
X120004162Y-71933683D01*
X119865090Y-71717559D01*
X119652890Y-71572569D01*
X119401000Y-71521560D01*
X117369000Y-71521560D01*
X117133683Y-71565838D01*
X116917559Y-71704910D01*
X116815802Y-71853837D01*
X116476810Y-71627330D01*
X115845000Y-71501655D01*
X115218535Y-71626267D01*
X115999802Y-70845000D01*
X116222711Y-70845000D01*
X116354673Y-70977192D01*
X116698201Y-71119838D01*
X117070167Y-71120162D01*
X117413943Y-70978117D01*
X117677192Y-70715327D01*
X117819838Y-70371799D01*
X117820162Y-69999833D01*
X117678117Y-69656057D01*
X117415327Y-69392808D01*
X117071799Y-69250162D01*
X116699833Y-69249838D01*
X116517927Y-69325000D01*
X115685000Y-69325000D01*
X115394160Y-69382852D01*
X115147599Y-69547599D01*
X111947599Y-72747599D01*
X111782852Y-72994161D01*
X111725000Y-73285000D01*
X111725000Y-73922537D01*
X111692808Y-73954673D01*
X111550162Y-74298201D01*
X111549838Y-74670167D01*
X104012000Y-74670167D01*
X104012000Y-68070167D01*
X115999838Y-68070167D01*
X116141883Y-68413943D01*
X116404673Y-68677192D01*
X116748201Y-68819838D01*
X117120167Y-68820162D01*
X117463943Y-68678117D01*
X117497118Y-68645000D01*
X131022537Y-68645000D01*
X131054673Y-68677192D01*
X131398201Y-68819838D01*
X131770167Y-68820162D01*
X132113943Y-68678117D01*
X132377192Y-68415327D01*
X132519838Y-68071799D01*
X132520162Y-67699833D01*
X132453615Y-67538776D01*
X132527192Y-67465327D01*
X132669838Y-67121799D01*
X132670162Y-66749833D01*
X132528117Y-66406057D01*
X132265327Y-66142808D01*
X131921799Y-66000162D01*
X131549833Y-65999838D01*
X131206057Y-66141883D01*
X131172882Y-66175000D01*
X120397463Y-66175000D01*
X120365327Y-66142808D01*
X120021799Y-66000162D01*
X119649833Y-65999838D01*
X119306057Y-66141883D01*
X119042808Y-66404673D01*
X118900162Y-66748201D01*
X118899838Y-67120167D01*
X118901835Y-67125000D01*
X117497463Y-67125000D01*
X117465327Y-67092808D01*
X117121799Y-66950162D01*
X116749833Y-66949838D01*
X116406057Y-67091883D01*
X116142808Y-67354673D01*
X116000162Y-67698201D01*
X115999838Y-68070167D01*
X104012000Y-68070167D01*
X104012000Y-65985000D01*
X135358000Y-65985000D01*
X135358000Y-76608000D01*
X135358000Y-76608000D01*
G37*
X135358000Y-76608000D02*
X126635309Y-76608000D01*
X106085309Y-76558000D01*
X104012000Y-76558000D01*
X104012000Y-74670167D01*
X111549838Y-74670167D01*
X111691883Y-75013943D01*
X111954673Y-75277192D01*
X112298201Y-75419838D01*
X112670167Y-75420162D01*
X113013943Y-75278117D01*
X113277192Y-75015327D01*
X113419838Y-74671799D01*
X113420162Y-74299833D01*
X113278117Y-73956057D01*
X113245000Y-73922882D01*
X113245000Y-73599802D01*
X114318612Y-72526190D01*
X114194000Y-73152655D01*
X114194000Y-73217345D01*
X114319675Y-73849155D01*
X114677567Y-74384778D01*
X115213190Y-74742670D01*
X115845000Y-74868345D01*
X116476810Y-74742670D01*
X116816792Y-74515501D01*
X116904910Y-74652441D01*
X117117110Y-74797431D01*
X117369000Y-74848440D01*
X119401000Y-74848440D01*
X119636317Y-74804162D01*
X119852441Y-74665090D01*
X119997431Y-74452890D01*
X120048440Y-74201000D01*
X120048440Y-72169000D01*
X120004162Y-71933683D01*
X119865090Y-71717559D01*
X119652890Y-71572569D01*
X119401000Y-71521560D01*
X117369000Y-71521560D01*
X117133683Y-71565838D01*
X116917559Y-71704910D01*
X116815802Y-71853837D01*
X116476810Y-71627330D01*
X115845000Y-71501655D01*
X115218535Y-71626267D01*
X115999802Y-70845000D01*
X116222711Y-70845000D01*
X116354673Y-70977192D01*
X116698201Y-71119838D01*
X117070167Y-71120162D01*
X117413943Y-70978117D01*
X117677192Y-70715327D01*
X117819838Y-70371799D01*
X117820162Y-69999833D01*
X117678117Y-69656057D01*
X117415327Y-69392808D01*
X117071799Y-69250162D01*
X116699833Y-69249838D01*
X116517927Y-69325000D01*
X115685000Y-69325000D01*
X115394160Y-69382852D01*
X115147599Y-69547599D01*
X111947599Y-72747599D01*
X111782852Y-72994161D01*
X111725000Y-73285000D01*
X111725000Y-73922537D01*
X111692808Y-73954673D01*
X111550162Y-74298201D01*
X111549838Y-74670167D01*
X104012000Y-74670167D01*
X104012000Y-68070167D01*
X115999838Y-68070167D01*
X116141883Y-68413943D01*
X116404673Y-68677192D01*
X116748201Y-68819838D01*
X117120167Y-68820162D01*
X117463943Y-68678117D01*
X117497118Y-68645000D01*
X131022537Y-68645000D01*
X131054673Y-68677192D01*
X131398201Y-68819838D01*
X131770167Y-68820162D01*
X132113943Y-68678117D01*
X132377192Y-68415327D01*
X132519838Y-68071799D01*
X132520162Y-67699833D01*
X132453615Y-67538776D01*
X132527192Y-67465327D01*
X132669838Y-67121799D01*
X132670162Y-66749833D01*
X132528117Y-66406057D01*
X132265327Y-66142808D01*
X131921799Y-66000162D01*
X131549833Y-65999838D01*
X131206057Y-66141883D01*
X131172882Y-66175000D01*
X120397463Y-66175000D01*
X120365327Y-66142808D01*
X120021799Y-66000162D01*
X119649833Y-65999838D01*
X119306057Y-66141883D01*
X119042808Y-66404673D01*
X118900162Y-66748201D01*
X118899838Y-67120167D01*
X118901835Y-67125000D01*
X117497463Y-67125000D01*
X117465327Y-67092808D01*
X117121799Y-66950162D01*
X116749833Y-66949838D01*
X116406057Y-67091883D01*
X116142808Y-67354673D01*
X116000162Y-67698201D01*
X115999838Y-68070167D01*
X104012000Y-68070167D01*
X104012000Y-65985000D01*
X135358000Y-65985000D01*
X135358000Y-76608000D01*
M02*
