M48
;DRILL file {KiCad 4.0.2-stable} date 11.06.2016 09:55:56
;FORMAT={-:-/ absolute / metric / decimal}
FMAT,2
METRIC,TZ
T1C0.400
T2C1.016
%
G90
G05
M71
T1
X107.485Y-73.485
X107.485Y-85.485
X107.485Y-97.485
X107.485Y-109.485
X112.485Y-74.485
X112.485Y-86.485
X112.485Y-98.485
X112.485Y-110.485
X116.885Y-70.185
X116.885Y-82.185
X116.885Y-94.185
X116.885Y-106.185
X116.935Y-67.885
X116.935Y-79.885
X116.935Y-91.885
X116.935Y-103.885
X119.785Y-68.985
X119.785Y-80.985
X119.785Y-92.985
X119.785Y-104.985
X119.835Y-66.935
X119.835Y-78.935
X119.835Y-90.935
X119.835Y-102.935
X120.335Y-75.685
X120.335Y-87.685
X120.335Y-99.685
X120.335Y-111.685
X131.585Y-67.885
X131.585Y-79.885
X131.585Y-91.885
X131.585Y-103.885
X131.735Y-66.935
X131.735Y-78.935
X131.735Y-90.935
X131.735Y-102.935
X133.085Y-75.135
X133.085Y-87.135
X133.085Y-99.135
X133.085Y-111.135
T2
X115.845Y-73.185
X115.845Y-85.185
X115.845Y-97.185
X115.845Y-109.185
X118.385Y-73.185
X118.385Y-85.185
X118.385Y-97.185
X118.385Y-109.185
T0
M30
