M48
INCH,TZ
T1C0.016
T2C0.040
%
G90
G05
T1
X5.1313Y-4.5014
X5.1333Y-3.0821
X5.1333Y-3.5545
X5.1333Y-4.027
X5.1333Y-4.5467
X5.1352Y-3.1274
X5.1352Y-3.5998
X5.1352Y-4.0722
X5.3419Y-4.5978
X5.3439Y-3.1785
X5.3439Y-3.651
X5.3439Y-4.1234
X5.3833Y-4.5978
X5.3852Y-3.1785
X5.3852Y-3.651
X5.3852Y-4.1234
X5.4738Y-4.4266
X5.4758Y-3.0073
X5.4758Y-3.4797
X5.4758Y-3.9522
X5.4915Y-4.5506
X5.4935Y-3.1313
X5.4935Y-3.6037
X5.4935Y-4.0762
X5.5624Y-4.3301
X5.5644Y-2.9108
X5.5644Y-3.3833
X5.5644Y-3.8557
X5.6746Y-4.3321
X5.6766Y-2.9128
X5.6766Y-3.3852
X5.6766Y-3.8577
X5.8281Y-4.4246
X5.8281Y-4.4758
X5.8281Y-4.6431
X5.8301Y-3.0053
X5.8301Y-3.0565
X5.8301Y-3.2238
X5.8301Y-3.4778
X5.8301Y-3.5289
X5.8301Y-3.6963
X5.8301Y-3.9502
X5.8301Y-4.0014
X5.8301Y-4.1687
X5.9187Y-4.4679
X5.9207Y-3.0486
X5.9207Y-3.5211
X5.9207Y-3.9935
X6.088Y-4.2986
X6.09Y-2.8793
X6.09Y-3.3518
X6.09Y-3.8242
X6.1254Y-4.3498
X6.1274Y-2.9305
X6.1274Y-3.403
X6.1274Y-3.8754
T2
X5.6041Y-4.5152
X5.6061Y-3.0959
X5.6061Y-3.5683
X5.6061Y-4.0407
X5.7041Y-4.5152
X5.7061Y-3.0959
X5.7061Y-3.5683
X5.7061Y-4.0407
T0
M30
