G04 #@! TF.FileFunction,Soldermask,Top*
%FSLAX46Y46*%
G04 Gerber Fmt 4.6, Leading zero omitted, Abs format (unit mm)*
G04 Created by KiCad (PCBNEW 4.0.2-stable) date 11.06.2016 10:01:23*
%MOMM*%
G01*
G04 APERTURE LIST*
%ADD10C,0.200000*%
%ADD11R,1.200000X0.750000*%
%ADD12R,2.032000X2.032000*%
%ADD13O,2.032000X2.032000*%
%ADD14R,2.799080X1.397000*%
%ADD15R,2.799080X1.399540*%
%ADD16R,1.200000X0.900000*%
%ADD17R,0.900000X1.200000*%
%ADD18R,1.060000X0.650000*%
%ADD19R,0.850000X0.300000*%
%ADD20R,0.300000X0.850000*%
G04 APERTURE END LIST*
D10*
D11*
X121535000Y-109585000D03*
X123435000Y-109585000D03*
X123335000Y-103885000D03*
X121435000Y-103885000D03*
X123335000Y-105985000D03*
X121435000Y-105985000D03*
D12*
X118385000Y-109185000D03*
D13*
X115845000Y-109185000D03*
D14*
X139910000Y-111110000D03*
X136100000Y-111110000D03*
X139910000Y-108570000D03*
X136100000Y-108570000D03*
X139910000Y-106030000D03*
X136100000Y-103490000D03*
X139910000Y-103490000D03*
D15*
X136100000Y-106030000D03*
D16*
X127985000Y-109585000D03*
X125785000Y-109585000D03*
D17*
X115485000Y-106085000D03*
X115485000Y-103885000D03*
X118385000Y-106085000D03*
X118385000Y-103885000D03*
D18*
X127885000Y-105935000D03*
X127885000Y-104985000D03*
X127885000Y-104035000D03*
X125685000Y-104035000D03*
X125685000Y-105935000D03*
D19*
X112850000Y-108050000D03*
X112850000Y-107550000D03*
X112850000Y-107050000D03*
X112850000Y-106550000D03*
X112850000Y-106050000D03*
X112850000Y-105550000D03*
D20*
X112150000Y-104850000D03*
X111650000Y-104850000D03*
X111150000Y-104850000D03*
X110650000Y-104850000D03*
X110150000Y-104850000D03*
X109650000Y-104850000D03*
D19*
X108950000Y-105550000D03*
X108950000Y-106050000D03*
X108950000Y-106550000D03*
X108950000Y-107050000D03*
X108950000Y-107550000D03*
X108950000Y-108050000D03*
D20*
X109650000Y-108750000D03*
X110150000Y-108750000D03*
X110650000Y-108750000D03*
X111150000Y-108750000D03*
X111650000Y-108750000D03*
X112150000Y-108750000D03*
D14*
X105200000Y-104390000D03*
X105200000Y-106930000D03*
D15*
X105200000Y-109470000D03*
D11*
X121535000Y-97585000D03*
X123435000Y-97585000D03*
X123335000Y-91885000D03*
X121435000Y-91885000D03*
X123335000Y-93985000D03*
X121435000Y-93985000D03*
D12*
X118385000Y-97185000D03*
D13*
X115845000Y-97185000D03*
D14*
X139910000Y-99110000D03*
X136100000Y-99110000D03*
X139910000Y-96570000D03*
X136100000Y-96570000D03*
X139910000Y-94030000D03*
X136100000Y-91490000D03*
X139910000Y-91490000D03*
D15*
X136100000Y-94030000D03*
D16*
X127985000Y-97585000D03*
X125785000Y-97585000D03*
D17*
X115485000Y-94085000D03*
X115485000Y-91885000D03*
X118385000Y-94085000D03*
X118385000Y-91885000D03*
D18*
X127885000Y-93935000D03*
X127885000Y-92985000D03*
X127885000Y-92035000D03*
X125685000Y-92035000D03*
X125685000Y-93935000D03*
D19*
X112850000Y-96050000D03*
X112850000Y-95550000D03*
X112850000Y-95050000D03*
X112850000Y-94550000D03*
X112850000Y-94050000D03*
X112850000Y-93550000D03*
D20*
X112150000Y-92850000D03*
X111650000Y-92850000D03*
X111150000Y-92850000D03*
X110650000Y-92850000D03*
X110150000Y-92850000D03*
X109650000Y-92850000D03*
D19*
X108950000Y-93550000D03*
X108950000Y-94050000D03*
X108950000Y-94550000D03*
X108950000Y-95050000D03*
X108950000Y-95550000D03*
X108950000Y-96050000D03*
D20*
X109650000Y-96750000D03*
X110150000Y-96750000D03*
X110650000Y-96750000D03*
X111150000Y-96750000D03*
X111650000Y-96750000D03*
X112150000Y-96750000D03*
D14*
X105200000Y-92390000D03*
X105200000Y-94930000D03*
D15*
X105200000Y-97470000D03*
D11*
X121535000Y-85585000D03*
X123435000Y-85585000D03*
X123335000Y-79885000D03*
X121435000Y-79885000D03*
X123335000Y-81985000D03*
X121435000Y-81985000D03*
D12*
X118385000Y-85185000D03*
D13*
X115845000Y-85185000D03*
D14*
X139910000Y-87110000D03*
X136100000Y-87110000D03*
X139910000Y-84570000D03*
X136100000Y-84570000D03*
X139910000Y-82030000D03*
X136100000Y-79490000D03*
X139910000Y-79490000D03*
D15*
X136100000Y-82030000D03*
D16*
X127985000Y-85585000D03*
X125785000Y-85585000D03*
D17*
X115485000Y-82085000D03*
X115485000Y-79885000D03*
X118385000Y-82085000D03*
X118385000Y-79885000D03*
D18*
X127885000Y-81935000D03*
X127885000Y-80985000D03*
X127885000Y-80035000D03*
X125685000Y-80035000D03*
X125685000Y-81935000D03*
D19*
X112850000Y-84050000D03*
X112850000Y-83550000D03*
X112850000Y-83050000D03*
X112850000Y-82550000D03*
X112850000Y-82050000D03*
X112850000Y-81550000D03*
D20*
X112150000Y-80850000D03*
X111650000Y-80850000D03*
X111150000Y-80850000D03*
X110650000Y-80850000D03*
X110150000Y-80850000D03*
X109650000Y-80850000D03*
D19*
X108950000Y-81550000D03*
X108950000Y-82050000D03*
X108950000Y-82550000D03*
X108950000Y-83050000D03*
X108950000Y-83550000D03*
X108950000Y-84050000D03*
D20*
X109650000Y-84750000D03*
X110150000Y-84750000D03*
X110650000Y-84750000D03*
X111150000Y-84750000D03*
X111650000Y-84750000D03*
X112150000Y-84750000D03*
D14*
X105200000Y-80390000D03*
X105200000Y-82930000D03*
D15*
X105200000Y-85470000D03*
D11*
X121535000Y-73585000D03*
X123435000Y-73585000D03*
X123335000Y-67885000D03*
X121435000Y-67885000D03*
X123335000Y-69985000D03*
X121435000Y-69985000D03*
D12*
X118385000Y-73185000D03*
D13*
X115845000Y-73185000D03*
D14*
X139910000Y-75110000D03*
X136100000Y-75110000D03*
X139910000Y-72570000D03*
X136100000Y-72570000D03*
X139910000Y-70030000D03*
X136100000Y-67490000D03*
X139910000Y-67490000D03*
D15*
X136100000Y-70030000D03*
D16*
X127985000Y-73585000D03*
X125785000Y-73585000D03*
D17*
X115485000Y-70085000D03*
X115485000Y-67885000D03*
X118385000Y-70085000D03*
X118385000Y-67885000D03*
D18*
X127885000Y-69935000D03*
X127885000Y-68985000D03*
X127885000Y-68035000D03*
X125685000Y-68035000D03*
X125685000Y-69935000D03*
D19*
X112850000Y-72050000D03*
X112850000Y-71550000D03*
X112850000Y-71050000D03*
X112850000Y-70550000D03*
X112850000Y-70050000D03*
X112850000Y-69550000D03*
D20*
X112150000Y-68850000D03*
X111650000Y-68850000D03*
X111150000Y-68850000D03*
X110650000Y-68850000D03*
X110150000Y-68850000D03*
X109650000Y-68850000D03*
D19*
X108950000Y-69550000D03*
X108950000Y-70050000D03*
X108950000Y-70550000D03*
X108950000Y-71050000D03*
X108950000Y-71550000D03*
X108950000Y-72050000D03*
D20*
X109650000Y-72750000D03*
X110150000Y-72750000D03*
X110650000Y-72750000D03*
X111150000Y-72750000D03*
X111650000Y-72750000D03*
X112150000Y-72750000D03*
D14*
X105200000Y-68390000D03*
X105200000Y-70930000D03*
D15*
X105200000Y-73470000D03*
M02*
